<svg width="380" height="276" viewBox="0 0 380 276" xmlns="http://www.w3.org/2000/svg">
  <g fill="none" fill-rule="evenodd">
    <path d="M337.7436 179.8521c-23.559 12.7064-117.1813 54.9617-178.6873 73.5632-26.9584 8.1535-54.6318 15.1886-81.1291 16.0393-26.5.8498-51.9447-5.1844-65.3474-20.0703-9.8647-10.9555-12.5445-25.7488-12.58-40.6445-.1095-47.146 26.3221-100.3478 75.234-140.2979 48.913-39.9492 120.4448-64.364 178.3542-57.045 18.9073 2.3905 36.001 7.9056 51.5144 14.9308 24.0102 10.872 44.631 25.5727 58.1364 44.4329 13.5035 18.862 19.6663 42.0118 15.1135 66.5344-2.7987 15.0807-17.0505 29.8498-40.6087 42.5571" fill="#F8FAFD"/>
    <path d="M241.3837 107.42c.444-1.2837.9041-2.598 1.7677-3.6482.8635-1.0493 2.2304-1.7958 3.5695-1.5478 1.8946.3512 3.0922 2.4911 5.002 2.7552 2.1675.2992 4.0171-1.961 6.2017-1.8281 1.1499.07 2.1386.7932 3.1867 1.2711 1.5759.717 3.3966.8876 5.0796.4753.48-.1168.969-.2938 1.303-.6576.751-.8166.3935-2.1228-.0847-3.1245-.4781-1.0008-1.0445-2.1498-.5844-3.1596.887-1.9476 4.4439-1.167 5.3642-3.1002.1972-.416.225-.8876.3295-1.335.5466-2.3231 3.0157-3.6302 4.2503-5.674.9482-1.5703 1.1085-3.4704 1.375-5.2842.3836-2.6187 1.0571-5.25 2.4853-7.4815 1.4282-2.2297 3.7054-4.0274 6.333-4.393-3.8504 5.0425-5.3425 11.4864-6.0485 17.7875-.705 6.2993-.7302 12.6975-2.1017 18.888-.7401 3.3438-1.8666 6.5887-2.9904 9.8263a17660.6344 17660.6344 0 01-3.602-5.0955c-.379-.5354-.859-1.1265-1.5154-1.13-.3665-.0019-.7024.1859-1.0194.3682a16172.3574 16172.3574 0 01-6.6878 3.8603c-.9455-2.1669-2.461-4.0822-4.3538-5.5016-.226-.1698-.4718-.3378-.7537-.3602-.3214-.0252-.6222.1437-.9004.3063-1.6524.9712-3.3057 1.9414-4.958 2.9116a16.5189 16.5189 0 00-3.8532-4.6553c-.2251-.1877-.4646-.3737-.7474-.45-.3304-.089-.6816-.019-1.014.062a18.1422 18.1422 0 00-4.9381 2.0015" fill="#A3DAE0"/>
    <path d="M301.5633 158.8911c-4.8031.0647-10.387.7627-12.8849 4.8565-2.3043 3.7777-.8788 8.7986-2.4943 12.9167-1.4146 3.6042-4.9805 5.9723-8.6706 7.1689-3.6902 1.1957-7.6117 1.4437-11.4235 2.1641-2.324.4402-4.9111 1.2982-5.862 3.4587-.4584 1.043-.453 2.245-.9284 3.28-1.1553 2.5127-4.4547 3.0077-7.221 3.1595-2.478.1374-4.9561.274-7.4342.4096-.6871.0387-1.411.088-1.982.4717-.4997.335-.8095.8795-1.1463 1.378-1.908 2.8236-5.102 4.579-8.406 5.4306-3.3046.8526-6.7562.8957-10.169.9343-10.1132.1141-20.2255.2291-30.3387.3432-.6367.9622-.0171 2.3456.9779 2.9314.995.5857 2.2151.5938 3.3705.5848 16.729-.1213 33.4589-.2435 50.1879-.3656 12.4814-.0908 24.9764-.1824 37.4183-1.1823 1.3939-.1114 2.8923-.2785 3.935-1.2074.7997-.7115 1.1968-1.758 1.565-2.7606 4.8446-13.1745 9.6883-26.349 14.5328-39.5234.4223-1.15.851-2.3879.5475-3.5746s-1.683-2.1695-2.7699-1.6009" fill="#E8EDF9"/>
    <path d="M148.3678 158.2677c-5.3479-.3404-10.468 1.9782-15.281 4.3292-3.3948 1.6584-6.9291 3.4983-8.9822 6.665-2.226 3.4335-2.3025 7.8067-1.9486 11.8808.3664 4.2178 1.1138 8.3925 1.8603 12.56l2.2233 12.4144c.2062 1.1517.5718 2.5002 1.6767 2.891.5349.1886 1.1229.096 1.6794-.0063a57.3712 57.3712 0 0013.3-4.1828c1.7595 7.6343 5.2065 14.8768 10.025 21.063.2764.3557.5925.7303 1.0328.83.4025.0926.815-.0682 1.195-.23 9.9375-4.2231 18.4272-11.162 26.7674-18.0094 1.656-1.3583 3.339-2.749 4.497-4.5484 1.9225-2.9897 2.2088-6.8176 4.2034-9.7598 3.2795-4.8385 9.9079-5.7791 15.7412-6.276-4.226-5.3146-6.442-11.9095-9.8314-17.7902-3.3894-5.8797-8.6806-11.4343-15.4521-12.0434-.5637-.0503-1.167-.0566-1.6488.238-.4403.2705-.7042.7475-.9338 1.2102-2.3682 4.7694-3.1327 10.314-2.1413 15.5434a89.1692 89.1692 0 00-8.3402-10.093c-2.7248 3.7039-4.0819 8.388-3.7586 12.9723-4.1548-7.009-9.1443-13.5249-14.8281-19.3687M143.9985 237.5744c-3.8414 4.4316-6.6788 9.7247-8.242 15.3718-.0667.2408-.128.5121-.0046.7286.0847.1482.2396.2399.3881.3243 6.6383 3.7588 14.259 5.6085 21.8825 5.9867 7.6234.3782 15.2648-.6756 22.6901-2.4382 2.1116-.5012 4.226-1.0672 6.1691-2.032.2153-.107.4359-.2255.5755-.4214.3061-.4285.1062-1.0187-.1018-1.502-1.9801-4.6005-3.9432-9.2711-4.732-14.2157-.5358-3.3563-.5196-6.7727-.5016-10.1712l.0433-8.1527c-3.3993 1.8947-6.0755 4.8197-8.957 7.4322-4.5483 4.1243-9.7288 7.5525-15.3063 10.129-2.1332.9855-4.3826 1.8596-6.7328 1.9144-2.3503.0548-4.8383-.8463-6.1584-2.7867" fill="#D3CBE6"/>
    <path d="M91.474 17.284c0-4.6086 3.745-8.345 8.3644-8.345 3.1733 0 5.935 1.7636 7.3515 4.3625" fill="#A3DAE0"/>
    <path fill="#FFA89C" d="M75.264 21.1064l6.5537-10.7166 12.1276 6.8429z"/>
    <path d="M173.7606 108.6479s0 8.8407 4.0386 13.832c0 0-4.5816 1.3835-6.6914 0M155.0124 89.6432s12.0565 14.9155 36.11 11.367M155.0124 95.5993s-.362 15.9953-10.73 14.7924M140.665 108.9487s-5.0634-1.865-5.6063 2.9466c-.5421 4.8117.2413 15.2767 8.6202 13.6524 0 0 3.1958 10.164 10.2483 12.7496v16.9601s8.6211 8.7204 16.6984-.4204l-.7231-5.8942" stroke="#46587F" stroke-width="2.4228" stroke-linecap="round" stroke-linejoin="round"/>
    <path d="M189.9165 106.6634s.4827 29.5902-13.1415 37.1077c0 0-5.9683 1.6233-12.0573-.8427" stroke="#46587F" stroke-width="2.4228" stroke-linecap="round" stroke-linejoin="round"/>
    <path d="M182.6222 144.0111s.1207 1.865-2.0494 3.2476c0 0 14.9496-2.766 16.3967-34.4611 1.447-31.6942-13.8043-47.0912-53.2297-39.5135 0 0-1.447-2.6457.542-4.1496 0 0-4.3402.7223-4.4006 5.834M138.1811 139.8194c4.0486 4.693 7.6685 7.018 7.6685 7.018s-4.9904-7.3747-.9707-11.2242" stroke="#46587F" stroke-width="2.4228" stroke-linecap="round" stroke-linejoin="round"/>
    <path d="M128.7478 94.9127c-.9158 4.2915-1.5263 9.441-1.5263 15.5435 0 11.4595 4.1043 20.1763 8.459 26.2007" stroke="#46587F" stroke-width="2.0673" stroke-linecap="round" stroke-linejoin="round" stroke-dasharray=".6165 2.5839"/>
    <path d="M136.9878 76.8929s-4.3222 4.0498-7.2155 13.9488M150.009 155.5586s-10.369 1.0826-17.5422 4.0292c-7.174 2.9475-21.4006 6.7359-8.9822 47.8134 0 0 8.6806 3.3078 21.913-7.398 0 0-4.0089-17.1398-6.6013-21.7717M127.7845 212.3927s7.0327 26.9436 20.295 28.9883c13.263 2.0447 41.8386-31.5747 41.8386-31.5747" stroke="#46587F" stroke-width="2.4228" stroke-linecap="round" stroke-linejoin="round"/>
    <path d="M141.5694 209.0248s2.4718 13.4718 9.8863 17.7417" stroke="#46587F" stroke-width="2.0673" stroke-linecap="round" stroke-linejoin="round" stroke-dasharray=".6165 2.5839"/>
    <path d="M155.2537 224.1802s20.918-12.2087 28.2127-19.5456c0 0 4.3403-6.8563 6.7518-11.3068 2.4115-4.4505 9.7053-7.097 17.9041-2.767 0 0-.724 1.0826-5.8477 1.7447-5.1237.6611-5.9683 7.2165-5.9683 7.8184M207.3607 194.8961l-7.437 5.1072M174.7854 156.5206s10.2483-.902 15.915 7.999c3.0751 4.8305 8.2627 12.9903 12.3644 19.4432M239.5096 207.4609h-47.1821v-4.0292h31.5282" stroke="#46587F" stroke-width="2.4228" stroke-linecap="round" stroke-linejoin="round"/>
    <path stroke="#46587F" stroke-width="2.0673" stroke-linecap="round" stroke-linejoin="round" stroke-dasharray=".6165 2.5839" d="M282.5892 207.4609h-39.7037"/>
    <path d="M227.3525 202.469s10.7903-32.8377 12.6597-37.6484c1.8685-4.8117 1.7479-5.7738 5.546-5.7738H292.7c13.2018 0 13.4431-.0602 11.7547 5.1117l-8.9218 26.4028s-5.2444 16.9-9.103 16.9M193.835 212.3322s8.4995 20.5086 16.5173 23.4553c8.0179 2.9475 46.84-23.4553 46.84-23.4553s10.4293 3.0679 17.362-1.3233" stroke="#46587F" stroke-width="2.4228" stroke-linecap="round" stroke-linejoin="round"/>
    <path d="M209.7496 211.7909s2.5322 7.6379 6.3898 9.262" stroke="#46587F" stroke-width="2.0673" stroke-linecap="round" stroke-linejoin="round" stroke-dasharray=".6165 2.5839"/>
    <path d="M220.9022 219.309s14.1663-4.8117 19.9536-7.5185M141.5694 243.265s-9.1552 12.913-14.8453 31.103M139.4393 256.6567s20.094 9.7832 47.4225 1.203c-10.1276-20.127-7.2335-31.0932-7.2335-31.0932" stroke="#46587F" stroke-width="2.4228" stroke-linecap="round" stroke-linejoin="round"/>
    <path d="M188.4697 261.3844s2.3197 3.8432 4.7834 10.2162" stroke="#46587F" stroke-width="2.0673" stroke-linecap="round" stroke-linejoin="round" stroke-dasharray=".6165 2.5839"/>
    <path d="M147.7182 236.369s.5628-.3827 1.6074-.3522" stroke="#46587F" stroke-width="2.7" stroke-linecap="round" stroke-linejoin="round"/>
    <path d="M147.7182 160.1895s11.735 10.1039 14.1465 15.3961c0 0 1.7685-9.1417 4.5816-12.4288M169.2595 165.8828l6.269 5.6138s-1.5749-7.7456.3215-11.3067" stroke="#46587F" stroke-width="2.4228" stroke-linecap="round" stroke-linejoin="round"/>
    <path d="M268.2226 123.0953c0 10.2934-1.4695 20.2455-4.2106 29.6576" stroke="#46587F" stroke-width="1.0584" stroke-linecap="round" stroke-linejoin="round" stroke-dasharray="1.5876 1.5876 .5292"/>
    <path d="M271.813 132.6825a106.396 106.396 0 01-.6511 5.587" stroke="#66C2CC" stroke-width="1.0584" stroke-linecap="round" stroke-linejoin="round" stroke-dasharray="1.5876 1.5876 .5292"/>
    <path d="M223.4817 36.5996a106.834 106.834 0 0122.9729 22.168" stroke="#46587F" stroke-width="1.0584" stroke-linecap="round" stroke-linejoin="round" stroke-dasharray="1.5876 1.5876 .5292"/>
    <path d="M233.2332 50.715a107.287 107.287 0 015.0715 5.2824" stroke="#66C2CC" stroke-width="1.0584" stroke-linecap="round" stroke-linejoin="round" stroke-dasharray="1.5876 1.5876 .5292"/>
    <path d="M122.2288 24.6068c10.6985-4.2897 22.2588-6.895 34.3486-7.486a107.6985 107.6985 0 015.292-.1294" stroke="#46587F" stroke-width="1.0584" stroke-linecap="round" stroke-linejoin="round" stroke-dasharray="1.5876 1.5876 .5292"/>
    <path d="M127.6018 17.7528a105.568 105.568 0 017.301-2.0932" stroke="#66C2CC" stroke-width="1.0584" stroke-linecap="round" stroke-linejoin="round" stroke-dasharray="1.5876 1.5876 .5292"/>
    <path d="M56.5969 107.9096c2.2674-15.7833 8.016-30.4464 16.4462-43.1878" stroke="#46587F" stroke-width="1.0584" stroke-linecap="round" stroke-linejoin="round" stroke-dasharray="1.5876 1.5876 .5292"/>
    <path d="M61.2545 103.6972a105.1763 105.1763 0 012.4646-9.7975M62.4733 75.8958a105.9198 105.9198 0 014.0188-7.4986" stroke="#66C2CC" stroke-width="1.0584" stroke-linecap="round" stroke-linejoin="round" stroke-dasharray="1.5876 1.5876 .5292"/>
    <path d="M124.8622 222.5993c-23.4492-8.6836-42.9958-25.3814-55.2954-46.7588" stroke="#46587F" stroke-width="1.0584" stroke-linecap="round" stroke-linejoin="round" stroke-dasharray="1.5876 1.5876 .5292"/>
    <path d="M102.3784 205.8111a106.7408 106.7408 0 01-14.3797-12.4782" stroke="#66C2CC" stroke-width="1.0584" stroke-linecap="round" stroke-linejoin="round" stroke-dasharray="1.5876 1.5876 .5292"/>
    <path fill="#FFA89C" d="M173.911 40.8738l-7.8243-1.8524 1.8577-7.8058 7.8233 1.8533z"/>
    <path fill="#A3DAE0" d="M194.6488 19.8619l-7.8242-1.8524 1.8576-7.8059 7.8234 1.8533z"/>
    <path stroke="#46587F" stroke-width="1.0584" stroke-linecap="round" stroke-linejoin="round" stroke-dasharray="1.5876 1.5876 .5292" d="M177.9438 33.2096l19.0946 4.5215M177.0508 36.9636l8.7805 2.0788"/>
    <path d="M227.6503 17.7993l-2.1693 9.1175c-.4898 2.06-2.5798 3.3455-4.6446 2.8568l-40.0162-9.475c-2.0648-.4896-3.3534-2.5747-2.8626-4.6338l2.7095-11.3939c.4908-2.059 2.5808-3.3446 4.6456-2.8559l14.195 3.3617" stroke="#46587F" stroke-width="2.4228" stroke-linecap="round" stroke-linejoin="round"/>
    <path d="M202.167 5.4061l23.162 5.4845c2.0639.4887 3.3525 2.5738 2.8626 4.6337" stroke="#46587F" stroke-width="1.0584" stroke-linecap="round" stroke-linejoin="round" stroke-dasharray="1.5876 1.5876 .5292"/>
    <path d="M206.7736 38.8744l-2.063 8.6728c-.4908 2.06-2.5808 3.3455-4.6456 2.8559L160.049 40.929c-2.0648-.4896-3.3525-2.5747-2.8626-4.6347l2.7104-11.393c.4899-2.059 2.5799-3.3446 4.6447-2.8559l3.529.8355" stroke="#46587F" stroke-width="2.4228" stroke-linecap="round" stroke-linejoin="round"/>
    <path d="M170.8853 23.5474l33.6723 7.973c2.0648.4887 3.3534 2.5747 2.8626 4.6346" stroke="#46587F" stroke-width="1.0584" stroke-linecap="round" stroke-linejoin="round" stroke-dasharray="1.5876 1.5876 .5292"/>
    <path stroke="#46587F" stroke-width="2.4228" stroke-linecap="round" stroke-linejoin="round" d="M172.4047 38.0033l-7.8242-1.8524 1.8577-7.805 7.8233 1.8524z"/>
    <path stroke="#46587F" stroke-width="1.0584" stroke-linecap="round" stroke-linejoin="round" stroke-dasharray="1.5876 1.5876 .5292" d="M198.7147 12.5794l19.0945 4.5215M197.8217 16.333l8.7805 2.0788"/>
    <path stroke="#46587F" stroke-width="2.4228" stroke-linecap="round" stroke-linejoin="round" d="M193.1757 17.373l-7.8242-1.8524 1.8577-7.805 7.8233 1.8524z"/>
    <path stroke="#46587F" stroke-width="2.7" stroke-linecap="round" stroke-linejoin="round" d="M164.9659 8.8802l2.4232 2.8919 7.7765-6.0703"/>
    <path stroke="#46587F" stroke-width="2.4228" stroke-linecap="round" stroke-linejoin="round" d="M211.8895 47.5032l7.7-5.0533M218.0409 48.9599l-4.6023-7.9667"/>
    <path d="M94.857 138.7144l-39.1194-10.059c-.479-.123-.7699-.6153-.6465-1.0942l.9347-3.6177c.1233-.4788.6168-.7699 1.0968-.6459l39.1183 10.059c.48.123.7708.6153.6475 1.0942l-.9347 3.6177c-.1234.4788-.6168.7699-1.0968.6459" fill="#FFA89C"/>
    <path d="M52.416 129.3228l2.9158-11.2852c.397-1.537 1.9828-2.4714 3.5244-2.0752l34.7376 8.9333c1.5416.3962 2.4772 1.9782 2.0801 3.5153l-5.3587 20.7422c-.3971 1.5371-1.9828 2.4705-3.5245 2.0744l-27.7048-7.124" stroke="#46587F" stroke-width="2.4228" stroke-linecap="round" stroke-linejoin="round"/>
    <path d="M55.6504 144.802c.4295 1.998.1458 4.7047-3.4885 6.5006" stroke="#46587F" stroke-width="2.0673" stroke-linecap="round" stroke-linejoin="round" stroke-dasharray=".6165 2.5839"/>
    <path d="M28.316 152.6294l8.1681-4.7488s.8105-5.4997 5.3966-7.8966c4.5861-2.3977 14.8263-8.6683 14.8263-8.6683l15.6646 4.0283s-3.1264 6.1969-7.7044 5.02l-5.9368-1.5272-3.2436 2.5145M82.5374 153.5711l-1.0877 4.2106s-3.791-.9747-4.7473-4.95M72.9197 151.0515c.2764.8714.3755 2.0976-.0838 3.7542-.6303 2.2729-2.1584 3.6303-4.161 3.1155-2.0027-.5147-10.4438-2.6852-10.4438-2.6852s1.665-4.6714 7.7612-2.8747M68.9249 161.6419c-.7834.9693-1.8775 1.4158-3.1697 1.0843a67534.5436 67534.5436 0 00-10.4437-2.686s.3881-1.088 1.475-2.0115M65.252 165.9727c-.7916 1.1301-1.954 1.6763-3.3462 1.3188a267669.801 267669.801 0 01-10.4437-2.6852s.3746-1.051 1.4191-1.9647M37.593 169.8675l6.5095-3.349s4.8644 1.2514 6.939 1.7841c1.1176.2875 1.91.292 2.561.1339M57.9688 122.8882l33.404 8.5902M76.9626 131.9578l13.3964 3.4452" stroke="#46587F" stroke-width="2.4228" stroke-linecap="round" stroke-linejoin="round"/>
    <path stroke="#46587F" stroke-width="2.0673" stroke-linecap="round" stroke-linejoin="round" stroke-dasharray=".6165 2.5839" d="M56.9548 126.8129l16.3058 4.1926"/>
    <path d="M75.6946 136.6545c.2143.0557 12.305 3.164 12.305 3.164" stroke="#46587F" stroke-width="1.0584" stroke-linecap="round" stroke-linejoin="round" stroke-dasharray="1.5876 1.5876 .5292"/>
    <path d="M273.7733 118.1758l-4.9725-5.9903-6.6842 3.7255-4.5942-6.0397-6.5302 3.8774-4.569-5.8502-7.483 3.1407 8.0205-41.0865c.5664-2.9017 3.384-4.7955 6.2926-4.2304l34.9023 6.7817c2.9086.566 4.8068 3.3752 4.2404 6.2769l-.9446 4.8412-6.3313-1.2307" stroke="#46587F" stroke-width="2.4228" stroke-linecap="round" stroke-linejoin="round"/>
    <path d="M282.5892 74.9044a5.3277 5.3277 0 00-.7258 1.831l-7.0741 36.237" stroke="#46587F" stroke-width="2.0673" stroke-linecap="round" stroke-linejoin="round" stroke-dasharray=".6165 2.5839"/>
    <path stroke="#46587F" stroke-width="1.0584" stroke-linecap="round" stroke-linejoin="round" stroke-dasharray="1.5876 1.5876 .5292" d="M252.3225 75.1611l15.0298 2.9206M250.7552 83.1898l10.1186 1.9656"/>
    <path d="M265.4215 96.13c.154-.7232.8312-.9442 1.3904-.9999l-.443 2.2702c-1.096-.5408-.9933-1.043-.9474-1.2703m3.6407 5.6139c-.1576.7492-.8663.9738-1.494 1.0205l.444-2.3025c1.194.5804 1.0878 1.0987 1.05 1.282m-.598-3.6007l.517-2.6492c.849.3396 1.464.8355 1.8522 1.219a.4863.4863 0 00.3485.141.484.484 0 00.344-.1535l.9004-.964a.4793.4793 0 00-.0153-.671c-.851-.8355-1.8559-1.4446-2.9914-1.8156l.2126-1.0897a.4817.4817 0 00-.381-.5651l-1.212-.2354a.4813.4813 0 00-.5655.38l-.2179 1.1149c-2.1674-.0503-3.7775 1.034-4.1557 2.8451-.3719 1.8183.6276 3.2377 2.8176 4.012l-.5187 2.688c-.9455-.3773-1.7298-.9712-2.1053-1.4221a.4802.4802 0 00-.3467-.1734.4797.4797 0 00-.3629.1383l-.9437.9316a.4792.4792 0 00-.0288.6531c.751.884 2.008 1.67 3.3516 2.1085l-.2206 1.131a.4803.4803 0 00.3809.5642l1.212.2354a.482.482 0 00.5664-.38l.227-1.1625c2.2466.0575 3.8576-1.0214 4.2538-2.882.371-1.777-.6637-3.19-2.9185-3.9986" fill="#46587F"/>
    <path stroke="#46587F" stroke-width="2.4228" stroke-linecap="round" stroke-linejoin="round" d="M119.6654 41.9037l3.9261 12.5851-43.9098 10.2333-6.8031-42.7997 37.8046-8.8112"/>
    <path stroke="#46587F" stroke-width="2.0673" stroke-linecap="round" stroke-linejoin="round" stroke-dasharray=".6165 2.5839" d="M111.3803 15.3456l7.4307 23.82"/>
    <path d="M91.1252 13.9107c1.1229-2.024 3.0679-3.5854 5.5046-4.1531 2.3556-.549 4.7112-.062 6.587 1.1616" stroke="#46587F" stroke-width="2.7" stroke-linecap="round" stroke-linejoin="round"/>
    <path d="M78.5499 17.0598l4.4726-6.8069 4.7392 2.4364" stroke="#46587F" stroke-width="2.0673" stroke-linecap="round" stroke-linejoin="round" stroke-dasharray=".6165 2.5839"/>
    <path d="M103.158 24.3313c2.3682 10.1156.216 19.2645-4.8077 20.435-5.0237 1.1715-11.0164-6.08-13.3846-16.1947M82.447 56.1043l10.1421-2.0348M83.0926 58.9581l6.5824-1.3206" stroke="#46587F" stroke-width="1.0584" stroke-linecap="round" stroke-linejoin="round" stroke-dasharray="1.5876 1.5876 .5292"/>
    <path d="M273.7269 175.999c-.7411.2363-1.5759.3684-2.4583.3684-3.0796 0-5.5758-1.6153-5.5758-3.6079 0-1.9934 2.4962-3.6096 5.5758-3.6096s5.5766 1.6162 5.5766 3.6096" stroke="#46587F" stroke-width="2.4228" stroke-linecap="round" stroke-linejoin="round"/>
    <path stroke="#DEE6F7" stroke-width="1.3446" stroke-linecap="round" stroke-linejoin="round" stroke-dasharray="2.016 2.016 .6723" d="M259.8373 29.8513h18.8515M330.1635 100.4617h30.3648M52.416 217.8956H13.105M115.0957 241.4706H91.4736M111.3803 86.3156h-9.0021M222.1066 141.9723h8.7724M248.7918 244.0753h20.2903"/>
  </g>
</svg>
