<svg width="384" height="300" viewBox="0 0 384 300" xmlns="http://www.w3.org/2000/svg">
  <g fill="none" fill-rule="evenodd">
    <path d="M319.855 291.3738c-25.3026 3.3718-122.9798 8.7547-183.9522 3.3817-26.7253-2.3542-53.6925-6.07-77.46-15.3525-23.7694-9.2844-44.2014-24.8612-50.877-44.4547-4.9128-14.4213-2.1232-29.8342 3.0451-44.3366 16.36-45.9037 58.342-87.571 115.611-107.7688 57.2708-20.1996 129.1526-16.6558 177.8918 12.558 15.913 9.54 29.1291 21.4262 40.418 34.1787 17.4725 19.7367 30.6067 41.905 35.9854 65.4036 5.377 23.4994 2.7546 48.3695-9.8374 70.4874-7.7439 13.6018-25.522 22.5304-50.8247 25.9032" fill="#F8FAFD"/>
    <path d="M131.7728 103.3889c4.8463 6.3663 14.0551 6.8752 22.048 6.8508.6817-.0027 1.4219.0153 1.9551.4404.6242.498.7546 1.3753.9182 2.1579 1.1466 5.4747 6.0856 9.5734 11.4625 11.09 5.3769 1.5166 11.126.8565 16.5857-.3305-.3282 6.8698 3.3373 13.7873 9.2007 17.3663 5.8634 3.5799 13.6828 3.6726 19.6299.2341-2.339 3.5781-1.019 9.0178 2.6988 11.1225 5.3427 3.0233 12.0092-.9186 18.0992-.1594 4.9147.6124 9.0299 4.3715 11.1873 8.8358 2.1574 4.4643 2.6286 9.5554 2.608 14.515-.0072 1.748-.0855 3.5583-.858 5.1262-.7958 1.6157-2.321 2.9972-2.3157 4.7984.0144 4.4994 8.529 4.467 9.1603 8.9232.125.8799-.0855 1.8895.4802 2.5748.59.7151 1.6808.661 2.545.997 1.6736.6475 2.3337 2.7585 2.0693 4.5354-.2653 1.777-1.2015 3.371-1.8256 5.056-2.1295 5.7495-.2194 12.758 4.5325 16.626 1.51 1.2294 3.331 2.239 4.197 3.9843.6808 1.3716.6511 2.9783.518 4.504-.339 3.9013-1.2536 7.7991-.8336 11.6942.42 3.8933 2.5971 7.9569 6.3445 9.0772 2.3004.688 5.484.635 6.1782 2.9369.8957-.0568 1.188-1.2212 1.214-2.12.3543-12.005-3.0846-23.8354-3.2815-35.845-.1286-7.8532 1.1304-15.6524 1.9533-23.4624 2.0612-19.5476 1.3993-39.268.7356-58.913-.5387-15.9289-1.0774-31.857-1.6152-47.7859-5.7402.9195-11.8635-.9762-16.0839-4.9803-2.4146 1.8174-4.8958 3.67-7.7879 4.5453-2.8912.8763-6.3266.5917-8.519-1.4905-1.349-1.2806-2.384-3.2692-4.2384-3.3998-1.3544-.0945-2.5082.888-3.6197 1.6689-6.0954 4.2814-15.414 2.9674-20.0921-2.8324-1.9749 3.886-6.1278 6.5663-10.4768 6.7635-4.35.1972-8.7268-2.0966-11.0452-5.7873-2.5558 3.1035-7.0289 4.1095-10.9822 3.3917-3.9524-.7178-7.4822-2.8945-10.7286-5.264-1.67 4.5102-7.0946 6.686-11.8726 6.1781-4.777-.5088-9.0568-3.0692-13.162-5.5693-4.278 5.6918-12.9023 4.8272-19.8683 3.3871 3.7447 4.7093 4.9938 11.3008 3.2312 17.0566" fill="#E8EDF9"/>
    <path fill="#A3DAE0" d="M195.3955 69.8291l4.2806-33.4907h14.0066l3.9794 33.4907zM152.2476 69.8291l17.4671-33.4907h14.4211l-10.4426 33.4907H152.807M261.2881 69.8291L243.821 36.3384h-14.4211l10.4426 33.4907h20.8862M128.7017 69.8291h-21.5706l33.1194-33.4907 13.6756.3737zM284.7464 69.8291h21.5715l-33.1202-33.4907-13.6757.3737z"/>
    <path d="M135.3636 204.1125c.7311.8736 2.4479.6097 2.8625 1.6706.1798.4602.008.9754-.1655 1.4365a137.918 137.918 0 01-4.9138 11.4746c-.2482.5151-.5162 1.0474-.973 1.3905-.5998.4503-1.403.4881-2.152.5043a254.176 254.176 0 01-20.5787-.3935c-4.1628-.2486-8.4704-.581-12.3869.8537-.3075.1126-.6313.2522-.8048.5305-.1853.2963-.1538.6736-.116 1.0213.098.888.1942 1.775.2922 2.663.0432.3963.0917.8079.304 1.1447.6322 1.0024 2.1151.725 3.2968.789 1.9955.1098 3.8076 1.7246 4.1476 3.697.0944.5466.0782 1.1383-.2033 1.6165-.5737.9726-1.9182 1.0672-3.0459 1.0474-7.233-.126-14.4652-.253-21.6982-.3792-1.6916-.0297-3.4525-.0765-4.9516-.8618-2.107-1.1042-3.313-3.7015-2.7995-6.0269-4.8256-3.561-8.9363-8.3783-10.6081-14.143-.697-2.4055-.9578-4.9164-1.0971-7.4165-.1673-2.9819-.1493-6.0727 1.0243-8.8178 1.3948-3.262 4.303-5.6846 7.5019-7.2093 3.1988-1.5256 6.7079-2.257 10.1773-2.9747.5594-.1162 1.1502-.2296 1.6934-.0513.4407.144.7977.4665 1.1862.7214 2.3283 1.5247 5.4165.5115 7.9714-.5917.5099-.2198 1.0342-.4458 1.589-.462.5918-.018 1.1601.2044 1.7105.4223 4.0037 1.5887 8.0082 3.1774 12.0119 4.766a43.0412 43.0412 0 00-6.341 5.1542c-1.0611 1.0465-2.0881 2.1776-2.6583 3.5555-.5692 1.377-.6106 3.054.232 4.2833.5675.8268 1.466 1.369 2.3922 1.7517 2.1826.9033 5.2896.679 6.1737-1.513.2176-.5377.322-1.2086.8354-1.478.3229-.1692.7113-.1188 1.0729-.072a22.6415 22.6415 0 006.0747-.0387c.5648 3.3133 1.1718 6.7338 3.0172 9.5419 1.8462 2.808 5.2833 4.856 8.5361 4.0257 2.7878-.7124 4.6943-3.2575 6.0712-5.7882 1.3759-2.5298 2.5243-5.3018 4.7087-7.1769" fill="#D3CBE6"/>
    <path d="M218.8822 215.2073c-.0045-3.0494-1.4992-6.062-3.9237-7.9082-.3597-.2738-.7482-.534-.9883-.9168-.303-.4818-.3264-1.0897-.25-1.6544.2905-2.1362 1.813-3.8771 2.6205-5.8764 1.1224-2.7757.8157-5.8882.911-8.8809.0054-.1693.0162-.3512.1214-.4836.196-.2477.5783-.1837.8894-.1288.8984.1576 1.8454.028 2.6683-.3656.8471-.4053 1.5575-1.0763 2.4362-1.4086 1.215-.4584 2.6799-.1639 3.6241.7286.812.7673 1.3004 1.9525 2.3508 2.3326 1.0926.3953 2.3606-.264 3.4497.1405.7104.2647 1.1943.9375 1.491 1.6364.8705 2.0524.438 4.449-.4784 6.4816-.0603.1324-.1232.2747-.0971.417.0458.2467.3201.3647.5476.47 1.1179.5188 1.8355 1.649 2.2609 2.8082.6439 1.7525.7536 3.6528.7959 5.5207.0341 1.4742.0206 2.9963-.5513 4.3544-.8058 1.9101-2.635 3.2376-4.591 3.9176-1.9559.68-4.0549.8006-6.1232.915-1.3868.0774-2.7744.154-4.162.2306-1.242.0684-2.6124.0981-3.5756-.69M221.2641 226.6887c.2842.9222-.2068 1.9426-.946 2.5613-.7393.6196-1.6844.9231-2.6035 1.2131-8.3023 2.6208-16.6046 5.2415-24.907 7.8614-2.8156.8898-5.7159 1.8237-7.9623 3.7429-2.1718 1.8552-3.5352 4.4625-4.8463 7.003-1.8472 3.58-3.697 7.1644-5.2573 10.8794a18450.171 18450.171 0 017.5253-2.5974c.3687-.1279.7734-.2855.9443-.6367.4406-.907-1.0171-1.5643-1.3688-2.5082-.331-.887.4803-1.8606 1.3984-2.0849.9182-.2233 1.8724.0649 2.786.3062 3.2114.8475 6.5442 1.1294 9.8627 1.278-1.4488 1.5778-3.3976 2.6892-5.493 3.1314 3.3634.7655 6.7268 1.5319 10.0893 2.2974.4847.1108 1.089.372 1.0503.8682-.0251.3161-.3156.534-.5791.7097-.7087.47-1.4173.9411-2.126 1.4121a27.3733 27.3733 0 005.7996.381c.2824-.0108.5774-.0306.8202-.1765.5998-.3612.5575-1.2312.4406-1.9228-.4739-2.8081-.8462-5.9683.8418-8.2604 1.0683-1.4508 2.813-2.2803 4.5819-2.6108 1.7698-.3314 3.5873-.218 5.384-.1126 6.5937.3837 13.2773.626 19.7406-.7403 1.7635-.372 3.5675-.8979 4.9227-2.0876 2.4425-2.1434 2.7807-5.807 2.5306-9.0501-.1088-1.4077-.3003-2.8297-.8597-4.1257-.5773-1.3356-1.5171-2.4748-2.3867-3.6411a43.0432 43.0432 0 01-4.286-7.0688 142.681 142.681 0 01-15.165 2.4847" fill="#FFA89C"/>
    <path d="M322.782 141.163c-2.8202 5.3668-8.6297 7.8615-12.977 5.5712-4.3462-2.2911-5.5846-8.499-2.7644-13.8657 2.8193-5.3675 8.6297-7.8613 12.977-5.571 4.3462 2.2902 5.5845 8.4989 2.7643 13.8656m-8.1566-21.2362c-9.6431 0-17.4607 7.8298-17.4607 17.487 0 9.658 7.8176 17.487 17.4607 17.487 9.644 0 17.4617-7.829 17.4617-17.487 0-9.6572-7.8176-17.487-17.4617-17.487M106.4353 69.829l.035 5.364c0 6.017 4.9768 10.8938 11.1154 10.8938 6.1395 0 11.1162-4.8768 11.1162-10.8937v-5.364h-22.2666zM150.9153 69.829l.0351 5.364c0 6.017 4.9767 10.8938 11.1153 10.8938 6.1395 0 11.1162-4.8768 11.1162-10.8937v-5.364h-22.2666zM195.3955 69.829l.035 5.364c0 6.017 4.9768 10.8938 11.1154 10.8938 6.1395 0 11.1162-4.8768 11.1162-10.8937v-5.364h-22.2666zM239.8755 69.829l.0351 5.364c0 6.017 4.9767 10.8938 11.1153 10.8938 6.1395 0 11.1162-4.8768 11.1162-10.8937v-5.364h-22.2666zM284.3556 69.829l.035 5.364c0 6.017 4.9768 10.8938 11.1154 10.8938 6.1395 0 11.1162-4.8768 11.1162-10.8937v-5.364h-22.2666z" fill="#66C2CC"/>
    <path stroke="#46587F" stroke-width="2.0673" stroke-linecap="round" stroke-linejoin="round" stroke-dasharray=".6165 2.5839" d="M131.5067 117.6376V88.0681"/>
    <path stroke="#46587F" stroke-width="2.4228" stroke-linecap="round" stroke-linejoin="round" d="M131.5067 199.3192v-77.3239M144.436 269.9031c-3.7896 0-7.2123-1.6544-9.582-4.2778M179.9091 269.9031h-16.7215"/>
    <path stroke="#46587F" stroke-width="2.0673" stroke-linecap="round" stroke-linejoin="round" stroke-dasharray=".6165 2.5839" d="M230.4066 269.9031H219.061"/>
    <path stroke="#46587F" stroke-width="2.4228" stroke-linecap="round" stroke-linejoin="round" d="M246.9549 269.9031h-4.8778M281.1892 209.5698v47.3852c0 7.121-5.8185 12.948-12.9292 12.948h-11.0236"/>
    <path stroke="#46587F" stroke-width="2.0673" stroke-linecap="round" stroke-linejoin="round" stroke-dasharray=".6165 2.5839" d="M281.1892 147.0201v57.3512"/>
    <path stroke="#46587F" stroke-width="2.4228" stroke-linecap="round" stroke-linejoin="round" d="M281.1892 90.5583v52.4781M131.5067 36.089V14.2602c0-7.122 5.8184-12.9489 12.9292-12.9489h123.8243c7.1107 0 12.9292 5.827 12.9292 12.9489v22.4511M128.7017 75.1932c0 6.0169 4.9767 10.8936 11.1153 10.8936 3.491 0 6.6071-1.577 8.644-4.0446M150.933 75.1932c0 6.0169 4.9767 10.8936 11.1153 10.8936 6.1395 0 11.1162-4.8767 11.1162-10.8936"/>
    <path d="M173.1642 75.1932c0 6.0169 4.9767 10.8936 11.1153 10.8936 3.3121 0 6.2861-1.4193 8.323-3.6717M217.6267 75.1932c0 6.0169-4.9767 10.8936-11.1153 10.8936-6.1395 0-11.1162-4.8767-11.1162-10.8936v-5.364l3.411-28.4483M217.6267 75.1932c0 6.0169 4.9768 10.8936 11.1154 10.8936 6.1395 0 11.1162-4.8767 11.1162-10.8936M239.858 75.1932v-5.364L235.6052 55.76M262.0893 75.1932c0 6.0169-4.9767 10.8936-11.1154 10.8936-3.7869 0-7.1314-1.8552-9.1386-4.6894M264.3957 81.8382c2.0324 2.5838 5.2222 4.249 8.8095 4.249 6.1386 0 11.1153-4.8777 11.1153-10.8937M284.3205 75.1932c0 6.0169 4.9767 10.8936 11.1153 10.8936 6.1395 0 11.1154-4.8767 11.1154-10.8936M123.1566 69.829h-16.7215l.035 5.364c0 6.017 4.9768 10.8938 11.1163 10.8938 6.1386 0 11.1153-4.8768 11.1153-10.8937v-5.364l23.5463-29.5695M158.0285 69.8291h-22.3152" stroke="#46587F" stroke-width="2.4228" stroke-linecap="round" stroke-linejoin="round"/>
    <path stroke="#46587F" stroke-width="1.0584" stroke-linecap="round" stroke-linejoin="round" stroke-dasharray="1.5876 1.5876 .5292" d="M190.6629 69.8291h-28.6147"/>
    <path stroke="#46587F" stroke-width="2.4228" stroke-linecap="round" stroke-linejoin="round" d="M234.6726 69.8291H200.671"/>
    <path stroke="#46587F" stroke-width="1.0584" stroke-linecap="round" stroke-linejoin="round" stroke-dasharray="1.5876 1.5876 .5292" d="M278.4335 69.8291h-32.9448"/>
    <path stroke="#46587F" stroke-width="2.4228" stroke-linecap="round" stroke-linejoin="round" d="M232.9264 36.3379h40.3479l33.4421 33.4907h-17.0317"/>
    <path stroke="#46587F" stroke-width="1.0584" stroke-linecap="round" stroke-linejoin="round" stroke-dasharray="1.5876 1.5876 .5292" d="M144.8117 36.3379h82.1643"/>
    <path stroke="#46587F" stroke-width="2.4228" stroke-linecap="round" stroke-linejoin="round" d="M111.7812 64.9114l28.4691-28.5734"/>
    <path stroke="#46587F" stroke-width="2.0673" stroke-linecap="round" stroke-linejoin="round" stroke-dasharray=".6165 2.5839" d="M153.9259 64.4131l13.4895-23.7795"/>
    <path stroke="#46587F" stroke-width="2.4228" stroke-linecap="round" stroke-linejoin="round" d="M177.5469 57.13l5.4084-16.4963"/>
    <path stroke="#46587F" stroke-width="2.0673" stroke-linecap="round" stroke-linejoin="round" stroke-dasharray=".6165 2.5839" d="M217.2054 63.7337l-2.6727-23.1004M259.2881 63.7337l-13.4885-23.1004"/>
    <path stroke="#46587F" stroke-width="2.4228" stroke-linecap="round" stroke-linejoin="round" d="M284.3205 74.8712v-5.0425l-20.432-26.7046M140.748 251.734v5.8431c0 2.5514.3975 4.5886 1.1484 6.2124M140.748 170.186v23.7381M140.748 212.1304v4.3283"/>
    <path stroke="#46587F" stroke-width="1.0584" stroke-linecap="round" stroke-linejoin="round" stroke-dasharray="1.5876 1.5876 .5292" d="M140.748 135.68v31.4472"/>
    <path stroke="#46587F" stroke-width="2.4228" stroke-linecap="round" stroke-linejoin="round" d="M140.748 90.5583v40.5875M272.2797 131.1461v126.4311c0 2.5514-.3975 4.5886-1.1485 6.2124"/>
    <path stroke="#46587F" stroke-width="1.0584" stroke-linecap="round" stroke-linejoin="round" stroke-dasharray="1.5876 1.5876 .5292" d="M272.2797 92.7373v35.4486"/>
    <path stroke="#46587F" stroke-width="2.4228" stroke-linecap="round" stroke-linejoin="round" d="M223.0394 169.854l-.8705 5.0218 1.6574-.2495M215.8703 168.069s-.9119 12.658 5.76 17.2646c0 0 3.6467.498 5.3463-.2909M231.742 159.935s-3.564 4.1086.9532 9.1718c4.5172 5.0632 2.4865 7.2625.8282 9.794-1.6574 2.5317-2.9416 4.6895-.455 8.3829 2.4866 3.6942 3.3975 10.4587-.4146 14.3177"/>
    <path d="M239.8228 192.4715s2.9012-1.2446 4.9732 1.0375c2.072 2.283 3.1907 20.5013-2.4866 25.523-5.6773 5.021-17.5291 6.516-26.7703 3.3197" stroke="#46587F" stroke-width="2.4228" stroke-linecap="round" stroke-linejoin="round"/>
    <path d="M230.1772 217.4553c-5.3338 1.395-11.1028 1.2824-14.6388.4143-4.2267-1.0375-7.4588-.6935-7.5829-.6097" stroke="#46587F" stroke-width="2.4228" stroke-linecap="round" stroke-linejoin="round"/>
    <path d="M237.0463 202.9296s2.2375 11.1224-3.813 13.5288" stroke="#46587F" stroke-width="2.0673" stroke-linecap="round" stroke-linejoin="round" stroke-dasharray=".6165 2.5839"/>
    <path d="M217.6936 192.8867v4.1914s-3.8957 4.3994-4.0612 7.8433c-.1655 3.4448 3.6053 5.8008 3.6053 5.8008l1.1601 3.7447M245.8731 188.5292c.1241-3.9428-4.8067-3.4034-.9532-9.9192 3.8544-6.515 1.2014-9.5446.3732-11.0801-.8292-1.5356 2.7761-14.3178-9.6558-15.729-12.4319-1.4113-25.1956 3.2367-20.4716 12.865 0 0 5.7187.7061 11.189-1.784M217.8595 188.5292s-3.9785.4566-4.4758 6.3907M189.7628 216.9307v-9.1303h8.9094v4.2337s1.8651 1.576 3.0666-.499M198.5895 215.976v1.1627M210.483 207.6107s-.2068 4.3571-2.5278 6.1421M176.7092 220.775h34.1885v5.4369h-59.3842v66.3591h20.4303v5.1046M145.6702 292.5708h-10.5254v5.5612" stroke="#46587F" stroke-width="2.4228" stroke-linecap="round" stroke-linejoin="round"/>
    <path stroke="#46587F" stroke-width="1.0584" stroke-linecap="round" stroke-linejoin="round" stroke-dasharray="1.5876 1.5876 .5292" d="M156.4861 255.8844v-25.7717"/>
    <path stroke="#46587F" stroke-width="2.4228" stroke-linecap="round" stroke-linejoin="round" d="M156.4861 288.5035V259.225M102.943 226.2116h-6.7942v-5.437h75.3998"/>
    <path stroke="#46587F" stroke-width="2.0673" stroke-linecap="round" stroke-linejoin="round" stroke-dasharray=".6165 2.5839" d="M147.1208 226.2116h-39.9899"/>
    <path d="M237.212 227.1659s1.243 2.283 3.3985 5.7269c2.1548 3.4448 3.2735 16.019-6.5064 16.019h-20.9275" stroke="#46587F" stroke-width="2.4228" stroke-linecap="round" stroke-linejoin="round"/>
    <path d="M222.703 238.9106s-16.198 1.9507-16.2808 11.7862c-.0836 9.8355.3723 12.077.3723 12.077s-13.136-.0837-7.7492-2.5315c5.3877-2.4488-18.8547-.6647-8.2052-4.7318 10.6504-4.0662-7.5838-2.573-7.5838-2.573" stroke="#46587F" stroke-width="2.4228" stroke-linecap="round" stroke-linejoin="round"/>
    <path d="M182.8424 257.5444s-3.2735 2.7388-7.2933 1.7634c0 0 2.3201-14.8365 5.6565-17.2015 3.3355-2.3659 36.9027-11.2467 37.8973-13.156.9947-1.9093.8283-1.079.8283-1.079" stroke="#46587F" stroke-width="2.4228" stroke-linecap="round" stroke-linejoin="round"/>
    <path d="M224.117 233.142s.893 1.8678 6.2897 4.2328" stroke="#46587F" stroke-width="2.0673" stroke-linecap="round" stroke-linejoin="round" stroke-dasharray=".6165 2.5839"/>
    <path d="M196.559 249.9913s-.124-1.784 5.5119-5.3531M250.5973 195.1276h6.0505l-6.4237 52.8716v7.9262h-39.6995M212.5965 260.657l5.8985 34.3039M249.52 259.518l5.9659 34.8993M234.932 277.1458l2.9434-17.2358" stroke="#46587F" stroke-width="2.4228" stroke-linecap="round" stroke-linejoin="round"/>
    <path stroke="#46587F" stroke-width="2.0673" stroke-linecap="round" stroke-linejoin="round" stroke-dasharray=".6165 2.5839" d="M231.9829 294.4177l2.8355-16.6089"/>
    <path d="M243.9254 247.958h1.036l7.3347-48.6389" stroke="#46587F" stroke-width="1.0584" stroke-linecap="round" stroke-linejoin="round" stroke-dasharray="1.5876 1.5876 .5292"/>
    <path d="M184.3756 261.985l5.8013 24.5685s.9947 11.4538-4.2267 11.7024M192.8708 262.7735l1.036 24.1118s3.5225 2.4488 1.5333 4.441c-1.9893 1.992 0 7.428 0 7.428M197.3464 265.8029l4.0199 21.2902s-.2905 9.1294-1.7824 9.6274M204.7228 266.6745l.7869 20.2104s2.8598 1.8264 1.3265 3.7771c-1.5333 1.9498 0 8.0928 0 8.0928M91.2177 161.3049s0 3.5276 1.4506 5.3532l-2.9012-.29M77.0865 152.0917c.2491.0415 8.7025 7.0968 21.549.9547" stroke="#46587F" stroke-width="2.4228" stroke-linecap="round" stroke-linejoin="round"/>
    <path d="M98.8013 157.279s1.7815 19.671-5.3463 20.958c-7.127 1.2869-13.7161-3.4034-13.7161-3.4034v8.425s4.4758 4.8552 10.028-.2494v-.5809M74.973 183.798s-11.4786 2.283-14.7529 8.508c-3.2734 6.225-3.4812 19.2972 5.7186 27.7223 9.1998 8.4242 22.3782 16.6828 32.9035-13.5297l-3.4389-2.6973s-8.0397 12.4499-15.4157 13.6126" stroke="#46587F" stroke-width="2.4228" stroke-linecap="round" stroke-linejoin="round"/>
    <path d="M78.5034 212.7236s-2.9092-.2486-4.5666-8.9637" stroke="#46587F" stroke-width="1.0584" stroke-linecap="round" stroke-linejoin="round" stroke-dasharray="1.5876 1.5876 .5292"/>
    <path d="M96.7292 200.1908s-1.3679-4.2751 1.865-6.7644c3.2322-2.4902 5.0973-4.0671 5.0973-4.0671M103.2768 194.7749s3.5639 3.5898-1.8238 8.155M107.1308 188.2385h2.7347v7.0553c0 3.7762-1.9478 4.3157-1.9478 4.3157" stroke="#46587F" stroke-width="2.4228" stroke-linecap="round" stroke-linejoin="round"/>
    <path stroke="#46587F" stroke-width="2.0673" stroke-linecap="round" stroke-linejoin="round" stroke-dasharray=".6165 2.5839" d="M93.2481 185.0429l4.6 1.5769"/>
    <path d="M112.5596 202.3073s1.16 13.5289 9.8626 12.45c8.7025-1.079 12.101-11.8276 12.101-11.8276l4.392 2.1578-4.3094 11.7447M138.0038 199.9002s.0827-1.577 3.2734-.7475c3.1916.8304 7.2528.4566 9.3662-1.078 2.1133-1.5355 1.2014 6.0583-6.796 5.9755M101.4533 216.8322s1.948-7.8938 2.652-11.0225" stroke="#46587F" stroke-width="2.4228" stroke-linecap="round" stroke-linejoin="round"/>
    <path d="M106.012 261.4454c2.2374-7.1382 6.1332-13.2389 7.9983-14.8987" stroke="#46587F" stroke-width="2.0673" stroke-linecap="round" stroke-linejoin="round" stroke-dasharray=".6165 2.5839"/>
    <path d="M71.6993 229.6561s.2068 3.4025 3.3984 4.2328c0 0 31.9503-.9546 40.0727-.2071 8.1225.7466 14.8357 7.6362 5.4695 23.3643-9.3652 15.729-18.3573 33.5322-18.0264 34.8605h-7.4174s6.5703-17.8634 9.7106-27.108" stroke="#46587F" stroke-width="2.4228" stroke-linecap="round" stroke-linejoin="round"/>
    <path d="M106.7163 248.7878H86.7006c-5.304 0-13.7997-2.9882-13.3024-10.582M61.7536 222.1444l3.4812 24.8215 6.0118.498" stroke="#46587F" stroke-width="2.4228" stroke-linecap="round" stroke-linejoin="round"/>
    <path stroke="#46587F" stroke-width="2.4228" stroke-linecap="round" stroke-linejoin="round" d="M53.8731 192.264h-1.9892l6.5478 55.4861v8.1343h45.964M58.8654 273.8643l2.4326-13.7882"/>
    <path stroke="#46587F" stroke-width="2.0673" stroke-linecap="round" stroke-linejoin="round" stroke-dasharray=".6165 2.5839" d="M55.5654 292.5708l2.6044-14.7609M78.9026 293.0923l-1.1394-6.8671"/>
    <path stroke="#46587F" stroke-width="2.4228" stroke-linecap="round" stroke-linejoin="round" d="M73.3775 259.7854l4.0577 24.4613M99.5472 260.5325l-3.1907 18.1355M74.4758 249.8251v1.9093M101.785 150.0579s.2904-4.5652-1.5334-5.644c-1.8229-1.079-12.1837-8.7152-26.729 1.494 0 0-3.3156 2.5316-1.5746 9.9184M76.1749 157.279l1.5747 6.5159s-3.1907-5.146-5.18-1.9922c-1.9892 3.154.3319 8.1343 4.8068 6.6402l.705 1.7435M127.6851 233.9722c1.616 0 15.0426.5395 9.449 13.3425-5.5946 12.803-21.8188 43.9908-21.8188 43.9908h-6.403l4.1035-12.3464M105.4938 294.4177s4.4758 2.8423 9.386 3.2575M119.7287 294.4177s3.7294 2.5523 8.3293 2.6145"/>
    <path d="M194.73 202.751c.8291-5.2324 1-10.5694.509-15.8442-.1412-1.5076-.3381-3.0216-.8265-4.4544-.4874-1.4329-1.2868-2.79-2.465-3.7393-.1735-.1405-.3632-.2747-.5827-.3161-.3156-.0595-.6394.0864-.883.2963-.652.5601-.822 1.4959-.8652 2.356-.0818 1.6435.188 3.3871 1.2176 4.6687.2473.307.5504.5926.929.7033.3247.0946.6754.0523 1.0036-.0333 1.268-.3287 2.3202-1.2671 2.9965-2.3902.6763-1.123 1.0108-2.4217 1.2041-3.7186.67-4.5102-.2868-9.1258-1.831-13.4153M104.9063 182.881a1388.89 1388.89 0 011.563-.9014c.8453-.4882 1.7311-1.016 2.205-1.8697.5144-.9276.4416-2.084.108-3.0909-.3337-1.0068-.903-1.9164-1.3679-2.8693-.0692-.1414-.1367-.3053-.0755-.4494.0584-.1369.2113-.2035.3525-.2503.9712-.317 2.0576-.263 2.9929.1486.322.1414.6439.3278.9946.317.5144-.0144.9128-.4386 1.2311-.843 1.8085-2.2938 3.09-5.0001 3.7204-7.8523" stroke="#46587F" stroke-width="1.0584" stroke-linecap="round" stroke-linejoin="round" stroke-dasharray="1.5876 1.5876 .5292"/>
    <path stroke="#46587F" stroke-width="2.4228" stroke-linecap="round" stroke-linejoin="round" d="M15.8053 297.6754h84.2615M211.7352 298.7545h81.7209M295.4361 102.9694h31.8585c1.7213 0 3.117 1.3977 3.117 3.1214 0 1.7247-1.3957 3.1224-3.117 3.1224h-31.8585M285.9964 95.7667h0c2.6439 0 4.8067 2.1668 4.8067 4.8146v11.1216c0 2.6477-2.1628 4.8146-4.8067 4.8146M312.924 118.7975c-9.6585 0-17.4878 7.8416-17.4878 17.5131 0 9.6725 7.8293 17.5132 17.4877 17.5132"/>
    <path d="M319.1733 152.6726c6.5721-2.519 11.2386-8.8943 11.2386-16.3612 0-8.2793-5.7367-15.2166-13.4463-17.044" stroke="#46587F" stroke-width="2.0673" stroke-linecap="round" stroke-linejoin="round" stroke-dasharray=".6165 2.5839"/>
    <path stroke="#46587F" stroke-width="2.4228" stroke-linecap="round" stroke-linejoin="round" d="M303.8899 109.2129v7.3039M321.9579 109.2129v7.3039M317.9917 128.1862c3.3624 2.103 3.8184 7.4462 1.0198 11.933-1.9524 3.1314-4.974 5.0182-7.7646 5.1587M307.1544 143.9146a5.5266 5.5266 0 01-.6043-.6187c-2.1206-2.5334-2.0963-6.9734.286-10.7928 1.7482-2.8036 4.3535-4.6102 6.8823-5.0578"/>
    <path d="M307.142 143.9006s-.1629-1.5004 1.124-3.5412c.7725-1.2248 2.0657-2.6433 4.2294-4.0482 5.77-3.7483 5.4965-8.1252 5.4965-8.1252" stroke="#46587F" stroke-width="2.4228" stroke-linecap="round" stroke-linejoin="round"/>
    <path d="M193.4034 21.0532c2.0055.7277 4.234.47 6.3041-.0424 2.0711-.5124 4.091-1.2707 6.2079-1.5319 1.8678-.2305 3.76-.0684 5.6377.0559 4.2761.2836 8.697.3494 12.6944-1.197 2.5145-.9726 4.886-2.5829 7.5811-2.6612.7572-.0216 1.5477.0936 2.1727.5223.8732.5998 1.2644 1.6968 1.4074 2.7469.0747.5475.0918 1.1302-.151 1.6265-.4128.8456-1.4263 1.1842-2.3463 1.3779-2.8472.6007-5.7798.6187-8.6881.6349-2.9533.0162-5.9066.0315-8.86.0477-5.223.0288-10.448.0568-15.6684-.117-2.1052-.0703-4.2456-.1802-6.2294-.8907" fill="#E8EDF9"/>
    <path d="M193.9258 22.3412c-1.9146 0-3.4812-1.5688-3.4812-3.4862 0-1.9174 1.5666-3.4862 3.4812-3.4862h38.613c1.9147 0 3.4813 1.5688 3.4813 3.4862 0 1.9174-1.5666 3.4862-3.4812 3.4862" stroke="#46587F" stroke-width="2.4228" stroke-linecap="round" stroke-linejoin="round"/>
    <path stroke="#46587F" stroke-width="2.0673" stroke-linecap="round" stroke-linejoin="round" stroke-dasharray=".6165 2.5839" d="M225.5654 22.3412h-27.7649"/>
    <path d="M179.6185 15.369c1.9227 0 3.4812 1.5608 3.4812 3.4863" stroke="#46587F" stroke-width="2.4228" stroke-linecap="round" stroke-linejoin="round"/>
    <path d="M179.6185 22.3412c-1.9227 0-3.4812-1.5607-3.4812-3.4862 0-.8448.3004-1.6184.7986-2.2218" stroke="#46587F" stroke-width="1.0584" stroke-linecap="round" stroke-linejoin="round" stroke-dasharray="1.5876 1.5876 .5292"/>
    <path stroke="#DEE6F7" stroke-width="1.3446" stroke-linecap="round" stroke-linejoin="round" stroke-dasharray="2.016 2.016 .6723" d="M110.7684 116.517h-10.7016M100.0666 63.1735H58.1693M299.557 22.6544h11.6899M330.4117 193.924h38.8128M303.8899 244.6379h7.3571M41.9254 262.5299h-16.119M31.8169 174.0505H.6715M348.1873 110.8522h26.228"/>
  </g>
</svg>
