<svg width="472" height="433" viewBox="0 0 472 433" xmlns="http://www.w3.org/2000/svg" xmlns:xlink="http://www.w3.org/1999/xlink">
  <defs>
    <path d="M251.6688 1.7174c34.5.5 70.1 4.4 99.9 21.7a141.91 141.91 0 0131.5 25.2c27 28.2 44.1 65.4 49.5 104.1 5.4 38.7-.6 78.7-15.7 114.7-10.5 25-26.3 49.1-50.1 61.8-20.8 11.1-45.6 12.3-69.1 9.8-23.5-2.5-46.5-8.5-69.9-11-28.5-3-57.5-.8-85.5-6.7-22.6-4.7-43.8-14.6-63.7-26.4-17.9-10.7-35.1-23.2-48.1-39.6-20.9-26.5-29-61.1-30.3-94.8-1.3-35 4.7-71.6 25.3-100 10.1-13.9 23.6-24.9 37.6-34.7 49.7-34.6 154.1-24.6 188.6-24.1" id="a"/>
  </defs>
  <g fill="none" fill-rule="evenodd">
    <g transform="translate(18.8612 44.6826)">
      <mask id="b" fill="#fff">
        <use xlink:href="#a"/>
      </mask>
      <use fill="#FFF" xlink:href="#a"/>
      <g mask="url(#b)">
        <path d="M152.3188 264.7474c-10.0303 13.9257-14.1627 31.2459-11.5 48.2 2 12.2 7.4 23.5 12.7 34.6 1.5 3.1 3.2 6.4 6.1 8.2 4.3-2.6 6.6-7.5 9.6-11.5 5.1-7 12.5-12 19.6-17.1a10.86 10.86 0 002.5-2.3 9.43 9.43 0 001-2.3 67.88 67.88 0 003.3-16.6 6.18 6.18 0 00-.4-3.3 4.75 4.75 0 00-2.4-2c-5.2-2.5-12.1-1.2-16.2-5.2s-3.2-11.6-7.5-15.7c-3.4-3.2-8.9-3.1-12.5-6.1-2.6-2.2-3.7-5.5-4.7-8.7M244.2188 327.9174c3.9 4.1 9.6 5.8 15 7.4a17.75 17.75 0 004.6.8 17.13 17.13 0 004.9-1.4c2.5-1.1 5-2.1 7.5-3.2 2.3-1 4.8-2 7.3-1.9 2.2.1 4.4 1.1 6.6 1.5a21.76 21.76 0 007.6-.6c-5.2 9.6-10.7 19.2-18.1 27.3a78.12 78.12 0 01-28 19.8c-1.6-3.5-3.1-7-4.7-10.5-1-2.3-2.1-4.6-3.2-6.9-2.4-4.6-5.4-8.9-6.7-13.9a7.37 7.37 0 01-.3-2.9c.1-.7.3-1.3.4-1.9.3-1.4.1-2.9.4-4.3a9.51 9.51 0 013.3-5.6c1.3-1 3.1-1.8 3.8-3.3" fill="#EFF3FB"/>
        <path d="M160.9188 358.6474c3.6-4.3 7.5-8.3 11.4-12.3 2.1-2.2 4.2-4.3 6.4-6.5 2.5-2.5 5.1-5.2 8.3-6.5 5.6-2.3 12.1-.4 17.7 1.8 10.1 4 20 9 30.7 11-1.1 3.9 1 7.8 3 11.3l11.4 19.8a4.52 4.52 0 01.9 3.3c-.3 1.2-1.6 1.9-2.8 2.4-4.8 1.9-10.1 2.2-15.2 2.4l-12 .6a58.86 58.86 0 01-12.6-.3 53.9 53.9 0 01-9.5-2.7c-6.9-2.3-13.8-4.7-19.9-8.6-6.6-4.3-12-10.3-17.2-16.2" fill="#74C7E5"/>
        <path d="M185.0188 273.0474a64.09 64.09 0 0012.3-2.6 21.07 21.07 0 0010.2-7.1 7.47 7.47 0 001.7-5.7 6.72 6.72 0 01-.4-2.4c.2-1.7 2.1-2.5 3.7-3 11.1-3.3 22.7-3.7 34.2-4.2-.8-2-1.6-4.1-2.3-6.1a4.71 4.71 0 01-.4-1.7c.2-1.6 2.2-2.3 3.9-2.4a21.11 21.11 0 0112.2 3.2 18.56 18.56 0 00-.8-7.4 19.39 19.39 0 00-2-5.4c-2.4-3.8-7.2-5.3-11.7-6.1a89.22 89.22 0 00-41.7 2.2 31.91 31.91 0 00-7.4 3c-7.1 4.1-11.2 12.2-12.5 20.3-1.3 8.1-.1 16.4 1.1 24.5M229.6188 277.7474c.7 2.9 1.3 5.8 1.7 8.7a11.38 11.38 0 01-.2 5.8c-.6 1.5-1.7 2.6-2.2 4.1a7.67 7.67 0 00.5 4.7c2.7 7.5 9.2 12.9 15.6 17.7a43.61 43.61 0 009.9 6 15.24 15.24 0 0011.3.3c5.2-2.2 8.1-8.3 8-14-.1-5.7-2.5-11.1-5.4-16 2-1 4.3-2.3 4.8-4.5a7.55 7.55 0 00-.8-4.4 2.19 2.19 0 00-.3-.5c-.2-.2-.6-.1-.8 0a8.08 8.08 0 01-3.1 0 13.8 13.8 0 00-2-.3 4.28 4.28 0 00-1.6.5 42.34 42.34 0 00-7.6 4 13.41 13.41 0 01-4 2.3c-1.8.4-3.7-.4-5.4-1.1-2.8-1.2-5.6-2.4-7.8-4.5a19.07 19.07 0 01-4.2-6.6 6.37 6.37 0 00-1-1.8c-1.2-1.3-3.2-1.3-5-1.2" fill="#F0F4FB"/>
        <path d="M143.9188 323.2474a1.3 1.3 0 01-1.3-1 84.05 84.05 0 01-2.2-18.8c.025-28.6604 14.9977-55.232 39.5-70.1a1.39 1.39 0 111.4 2.4c-29.321 17.8773-43.842 52.5661-36 86a1.3 1.3 0 01-1 1.6.76.76 0 00-.4-.1M144.8188 326.9174a1.38 1.38 0 01-1.3-1l-.1-.4a1.3 1.3 0 112.5-.7l.1.4a1.28 1.28 0 01-.9 1.6 1 1 0 01-.3.1zm1.2 3.7a1.18 1.18 0 01-1.2-.9c-.1-.2-.1-.4-.2-.6a1.33 1.33 0 112.5-.9c.1.2.1.4.2.6.2198.6887-.1292 1.4304-.8 1.7a1.09 1.09 0 01-.5.1zm1.3 3.7a1.3 1.3 0 01-1.2-.8 1.42 1.42 0 01-.2-.6 1.33 1.33 0 112.5-.9 1.42 1.42 0 01.2.6c.259.6627-.0495 1.4118-.7 1.7h-.6zm1.6 3.6a1.3 1.3 0 01-1.2-.8l-.3-.6c-.2761-.6627.0373-1.4239.7-1.7s1.4239.0373 1.7.7l.3.6a1.25 1.25 0 01-.7 1.7 1.09 1.09 0 01-.5.1zm1.7 3.5a1.52 1.52 0 01-1.2-.7l-.3-.6c-.3314-.6627-.0627-1.4686.6-1.8.6627-.3314 1.4686-.0627 1.8.6l.3.6c.315.6638.0503 1.458-.6 1.8a1.27 1.27 0 01-.6.1zm1.8 3.5a1.08 1.08 0 01-1.1-.7l-.3-.6c-.359-.6351-.1351-1.441.5-1.8s1.441-.1351 1.8.5l.3.6c.3537.6358.131 1.4377-.5 1.8a1.45 1.45 0 01-.7.2zm2.1 3.3a1.25 1.25 0 01-1.1-.6 2.09 2.09 0 00-.4-.6c-.3866-.6075-.2075-1.4134.4-1.8.6075-.3866 1.4134-.2075 1.8.4a2.19 2.19 0 00.3.5 1.3 1.3 0 01-.4 1.8c-.1.3-.4.3-.6.3zm2.2 3.3a1.61 1.61 0 01-1.1-.5 2.18 2.18 0 00-.4-.5 1.2903 1.2903 0 112.1-1.5 1 1 0 00.4.5 1.28 1.28 0 01-.3 1.8 1.85 1.85 0 01-.7.2zm2.3 3.1a1.23 1.23 0 01-1-.5c-.1-.2-.3-.3-.4-.5-.4418-.5523-.3523-1.3582.2-1.8.5523-.4418 1.3582-.3523 1.8.2.1.2.3.3.4.5a1.27 1.27 0 01-.2 1.8.83.83 0 01-.8.3zm2.5 3.1a1.78 1.78 0 01-1-.4c-.1-.2-.3-.3-.4-.5a1.2748 1.2748 0 111.9-1.7c.1.2.3.3.4.5a1.27 1.27 0 01-.1 1.8c-.1.2-.4.3-.8.3zm2.7 2.9a1.09 1.09 0 01-.9-.4l-.5-.5c-.5247-.5247-.5247-1.3753 0-1.9.5247-.5247 1.3753-.5247 1.9 0l.4.5c.5004.5345.5004 1.3655 0 1.9a1.49 1.49 0 01-.9.4zm2.8 2.7a1.22 1.22 0 01-.9-.4l-.5-.5a1.3435 1.3435 0 111.9-1.9c.2.1.3.3.5.4a1.5 1.5 0 01.1 1.9 1.53 1.53 0 01-1.1.5zm2.9 2.7a1.61 1.61 0 01-.9-.3c-.2-.1-.3-.3-.5-.4a1.2748 1.2748 0 011.7-1.9c.2.1.3.3.5.4a1.25 1.25 0 01-.8 2.2zm3.1 2.5a1.14 1.14 0 01-.8-.3 2.18 2.18 0 01-.5-.4c-.5523-.4418-.6418-1.2477-.2-1.8s1.2477-.6418 1.8-.2c.2.1.3.3.5.4a1.2 1.2 0 01.2 1.8 1.59 1.59 0 01-1 .5zm3.1 2.3a2.35 2.35 0 01-.8-.2 2.18 2.18 0 01-.5-.4c-.58-.4142-.7142-1.2201-.3-1.8.4142-.5799 1.22-.7142 1.8-.3a1.76 1.76 0 01.5.4 1.28 1.28 0 01.3 1.8 1.23 1.23 0 01-1 .5zm3.3 2.2a1.85 1.85 0 01-.7-.2 2.09 2.09 0 01-.6-.4 1.3038 1.3038 0 111.4-2.2 2.19 2.19 0 01.5.3 1.3 1.3 0 01.4 1.8 1 1 0 01-1 .7zm3.4 2a1.42 1.42 0 01-.6-.2l-.6-.3a1.321 1.321 0 011.3-2.3l.6.3c.631.3623.8537 1.1642.5 1.8a1.69 1.69 0 01-1.2.7zm3.4 1.8a1.27 1.27 0 01-.6-.1l-.6-.3c-.6627-.3314-.9314-1.1373-.6-1.8.3314-.6627 1.1373-.9314 1.8-.6l.6.3c.6342.3556.894 1.135.6 1.8a1.21 1.21 0 01-1.2.7zm3.6 1.7a.75.75 0 01-.5-.1l-.6-.3a1.3 1.3 0 111-2.4l.6.3a1.28 1.28 0 01.7 1.7 1.3 1.3 0 01-1.2.8zm3.6 1.5a.9.9 0 01-.5-.1 1.42 1.42 0 00-.6-.2c-.6627-.2761-.9761-1.0373-.7-1.7.2761-.6627 1.0373-.9761 1.7-.7a1.42 1.42 0 00.6.2c.6708.2696 1.0198 1.0113.8 1.7a1.34 1.34 0 01-1.3.8zm3.7 1.3a.6.6 0 01-.4-.1c-.2-.1-.4-.1-.6-.2a1.33 1.33 0 11.9-2.5c.2.1.4.1.6.2a1.26 1.26 0 01.8 1.7 1.29 1.29 0 01-1.3.9zm3.8 1.2h-.3c-.2-.1-.4-.1-.6-.2a1.3 1.3 0 11.7-2.5c.2.1.4.1.6.2a1.28 1.28 0 01.9 1.6 1.42 1.42 0 01-1.3.9zm3.8.9h-.3c-.2 0-.4-.1-.7-.1-.718-.1657-1.1657-.882-1-1.6.1657-.718.882-1.1657 1.6-1 .2 0 .4.1.6.1.7126.1732 1.1565.8836 1 1.6-.0632.6033-.5952 1.0466-1.2 1zm3.9.8h-.2c-.2 0-.4-.1-.7-.1a1.32 1.32 0 01.4-2.6c.2 0 .4.1.6.1.7105.1226 1.1966.7855 1.1 1.5a1.2 1.2 0 01-1.2 1.1zm26.7.1a1.38 1.38 0 01-1.3-1.1c-.0966-.7145.3895-1.3774 1.1-1.5.2 0 .4-.1.6-.1a1.32 1.32 0 11.4 2.6c-.2 0-.4.1-.7.1h-.1zm-22.8.5h-.2c-.2 0-.4-.1-.7-.1-.7105-.1226-1.1966-.7855-1.1-1.5a1.29 1.29 0 011.5-1.1c.2 0 .4.1.6.1a1.29 1.29 0 011.1 1.5 1.2 1.2 0 01-1.2 1.1zm18.9 0c-.6807.002-1.2477-.5213-1.3-1.2a1.21 1.21 0 011.2-1.4 1.27 1.27 0 00.6-.1 1.32 1.32 0 11.4 2.6c-.2 0-.4.1-.7.1h-.2zm-15 .3a2.2 2.2 0 01-.8-.1c-.718-.0552-1.2552-.682-1.2-1.4.0552-.718.682-1.2552 1.4-1.2h.6c.7137.0636 1.2462.685 1.2 1.4a1.18 1.18 0 01-1.2 1.3zm11.1.1a1.24 1.24 0 01-1.3-1.2 1.4 1.4 0 011.2-1.4h.6a1.4 1.4 0 011.4 1.2 1.27 1.27 0 01-1.2 1.4c-.2-.1-.4 0-.7 0zm-7.2.1h-.7a1.351 1.351 0 11.1-2.7h.6c.7135.0107 1.2893.5865 1.3 1.3a1.29 1.29 0 01-1.3 1.4zm3.3 0c-.718 0-1.3-.582-1.3-1.3 0-.718.582-1.3 1.3-1.3h.6c.718 0 1.3.582 1.3 1.3 0 .718-.582 1.3-1.3 1.3h-.6zM239.9188 383.5474a1.37 1.37 0 01-.3-2.7c24.503-5.547 44.938-22.3576 55.1048-45.3315 10.1668-22.9739 8.867-49.403-3.5048-71.2685a80.43 80.43 0 00-27.3-28.3 1.373 1.373 0 011.5-2.3c28.3554 17.5424 43.2848 50.492 37.7784 83.3772-5.5065 32.8853-30.3552 59.1742-62.8784 66.5228-.2-.1-.3 0-.4 0" fill="#46587F"/>
        <path d="M265.3188 277.4474c-1.0896.0146-2.0058-.8143-2.1-1.9 0-1.1.3-7.2.4-10.2-6.8.4-34.1 1.8-37.6 1.8-.7732 0-1.4-.6268-1.4-1.4 0-.7732.6268-1.4 1.4-1.4 3.9 0 38.6-1.9 39-1.9a1.16 1.16 0 011 .4 1.28 1.28 0 01.4 1c-.2 3-.4 7.4-.5 9.8.6-1.1 1.2-3.5 1.2-8.2.0077-.732.5706-1.3382 1.3-1.4a1.35 1.35 0 011.4 1.3c.2 11.1-3.4 12-4.5 12.1M223.9188 291.6474c-3.5 0-8.4-3.9-10.9-8.9-2.3-4.5-2.7-10.2-1.1-14.1a5.94 5.94 0 013.3-3.6c2.695-1.1372 5.8093-.5458 7.9 1.5a1.351 1.351 0 11-1.7 2.1 5.14 5.14 0 00-5.4-1.1 3.14 3.14 0 00-1.7 2.1c-1.1 2.6-1.2 7.4 1 11.9 2.4 4.8 6.7 7.5 8.6 7.3.4 0 .7-.2.9-.9a1.3946 1.3946 0 012.7.7c-.348 1.584-1.6844 2.7585-3.3 2.9 0 .1-.2.1-.3.1M208.7188 281.7474a1.27 1.27 0 01-.6-.1 1.36 1.36 0 01-.7-1.8l.7-1.6c.3388-.6288 1.104-.8918 1.7578-.6041.6538.2877.9769 1.0294.7422 1.7041l-.7 1.6a1.3 1.3 0 01-1.2.8M272.0188 288.8474a14.71 14.71 0 01-4.2-.6c-.7456-.1933-1.1933-.9544-1-1.7.1933-.7456.9544-1.1933 1.7-1 2.9.8 5.3.5 5.9.1-.4-1.5-3.3-6.8-5.1-9.9a1.39 1.39 0 112.4-1.4c.8 1.4 5 8.6 5.4 10.8a2.6 2.6 0 01-.7 2.4 6.6 6.6 0 01-4.4 1.3zM254.0188 295.5474a18 18 0 01-2.2-.2c-5.3-1.1-12.9-6.1-17.2-14.5l-3.4-.7c-.7252-.1688-1.2021-.8625-1.1-1.6.1464-.7401.8565-1.2283 1.6-1.1l4.1.8a1.83 1.83 0 011 .7c2.8 5.7 9.1 12.2 15.7 13.6a4.46 4.46 0 003.4-.3c3.5-3 8.8-4.6 9-4.7a1.3601 1.3601 0 11.8 2.6 28.38 28.38 0 00-8.1 4.2 5.58 5.58 0 01-3.6 1.2M267.0188 326.6474a1.3 1.3 0 01-1.2-.8c-.294-.665-.0342-1.4444.6-1.8 6.6-3.1 7.8-11.6 3.4-22.8a8.32 8.32 0 01-1.3.2c-.7732 0-1.4-.6268-1.4-1.4 0-.7732.6268-1.4 1.4-1.4.2 0 1-.2 1.8-.3a1.55 1.55 0 011.6.8c8.3 19.6-1.2 25.9-4.3 27.4-.2 0-.4.1-.6.1M238.7188 315.7474a1.28 1.28 0 01-1-.4 1.76 1.76 0 01-.4-.5c-.4683-.5622-.4247-1.39.1-1.9a1.27 1.27 0 011.8.1c.1.2.3.3.4.5.4683.5622.4247 1.3901-.1 1.9-.1.2-.5.3-.8.3m2.8 2.8a1.09 1.09 0 01-.9-.4l-.5-.5c-.5247-.5247-.5247-1.3753 0-1.9.5247-.5247 1.3753-.5247 1.9 0 .2.1.3.3.5.4.5004.5345.5004 1.3655 0 1.9a1.22 1.22 0 01-1 .5m2.9 2.6a1.14 1.14 0 01-.8-.3c-.2-.1-.3-.3-.5-.4a1.2806 1.2806 0 111.6-2c.2.1.3.3.5.4a1.28 1.28 0 01.2 1.8 1.23 1.23 0 01-1 .5m3.2 2.4a1.85 1.85 0 01-.7-.2c-.2-.1-.4-.3-.6-.4-.58-.4142-.7142-1.2201-.3-1.8.4142-.5799 1.22-.7142 1.8-.3a1.76 1.76 0 01.5.4 1.3 1.3 0 01.4 1.8 2.22 2.22 0 01-1.1.5m3.3 1.9a1.27 1.27 0 01-.6-.1l-.6-.3a1.321 1.321 0 011.3-2.3l.6.3c.6342.3556.894 1.135.6 1.8a1.61 1.61 0 01-1.3.6m3.7 1.5a.6.6 0 01-.4-.1 6.37 6.37 0 00-.7-.2c-.6562-.2717-.9832-1.011-.7426-1.6793.2405-.6683.9638-1.0296 1.6426-.8207.2.1.4.1.6.2a1.28 1.28 0 01.9 1.6 1.48 1.48 0 01-1.3 1m3.8.8h-.2c-.2 0-.5-.1-.7-.1a1.32 1.32 0 01.4-2.6c.2 0 .4.1.6.1a1.29 1.29 0 011.1 1.5 1.13 1.13 0 01-1.2 1.1m3.3.1a1.24 1.24 0 01-1.3-1.2 1.4 1.4 0 011.2-1.4h.6c.718-.0552 1.3448.482 1.4 1.2.0552.718-.482 1.3448-1.2 1.4h-.7M235.8188 312.2474a1.61 1.61 0 01-1.1-.5c-4.4-5.8-8.2-13.2-5.6-16.5 3.2-4 1-11.4 1-11.5a1.3601 1.3601 0 112.6-.8c.1.4 2.6 8.8-1.5 13.9-1.1 1.4.7 6.8 5.6 13.2a1.33 1.33 0 01-.3 1.9.78.78 0 01-.7.3M266.9188 298.4474a1.37 1.37 0 01-.3-2.7c1.7-.4 4.7-1.5 5.5-3a1.47 1.47 0 00.1-1.3 1.33 1.33 0 112.5-.9 4.27 4.27 0 01-.2 3.5c-1.6 3-6.7 4.2-7.3 4.3a.37.37 0 01-.3.1M268.1688 261.8474a1.42 1.42 0 01-1.3-.9 29.67 29.67 0 00-2.8-6.2c-1.8-2.6-3.2-7-4.6-11.3a1.3601 1.3601 0 112.6-.8c.8 2.6 2.5 7.9 4.2 10.6a36 36 0 013.2 6.9c.2038.7163-.193 1.466-.9 1.7h-.4M181.7188 257.4474a1.49 1.49 0 01-1.4-1.3c-.6-11.8 2.2-21 8.4-27.2 10.9-10.9 30.6-11.5 48.4-10.7 10.4.5 17.6 3.4 21.5 8.6a14.84 14.84 0 012.6 12c-.1657.718-.882 1.1657-1.6 1-.718-.1657-1.1657-.882-1-1.6a12.85 12.85 0 00-2.2-9.8c-3.3-4.5-9.9-7-19.4-7.5-17.2-.8-36.2-.3-46.3 9.9-5.7 5.8-8.2 14-7.7 25.2a1.24 1.24 0 01-1.3 1.4M192.9188 326.0474a.9.9 0 01-.5-.1 1.3 1.3 0 01-.8-1.7c4-11.1 4.4-21.2 1.3-31a1.3601 1.3601 0 112.6-.8c3.2 10.2 2.8 21.2-1.4 32.7a1.4 1.4 0 01-1.2.9M181.9188 261.7474a1.24 1.24 0 01-1.3-1.2v-.7c0-.718.582-1.3 1.3-1.3.718 0 1.3.582 1.3 1.3v.6c.1.6-.5 1.2-1.3 1.3m.4 3.9a1.38 1.38 0 01-1.3-1.1c0-.2-.1-.5-.1-.7a1.32 1.32 0 012.6-.4c0 .2.1.4.1.6.0966.7145-.3895 1.3774-1.1 1.5 0 .1-.1.1-.2.1m.7 3.9a1.38 1.38 0 01-1.3-1 1.48 1.48 0 01-.1-.7c-.1657-.718.282-1.4343 1-1.6.718-.1657 1.4343.282 1.6 1 0 .2.1.4.1.6.1565.7164-.2874 1.4268-1 1.6a.37.37 0 01-.3.1m1.1 3.8a1.18 1.18 0 01-1.2-.9c-.1-.2-.1-.4-.2-.6-.1497-.674.2536-1.3476.9185-1.5338.665-.1861 1.3594.18 1.5815.8338.1.2.1.4.2.6.2198.6887-.1292 1.4304-.8 1.7a.51.51 0 00-.5-.1m1.5 3.6a1.52 1.52 0 01-1.2-.7l-.3-.6a1.2748 1.2748 0 112.3-1.1l.3.6c.315.6638.0503 1.458-.6 1.8h-.5m2 3.4a1.25 1.25 0 01-1.1-.6l-.3-.6c-.3866-.6075-.2075-1.4134.4-1.8.6075-.3866 1.4134-.2075 1.8.4l.3.6a1.3 1.3 0 01-.4 1.8 1.08 1.08 0 01-.7.2m2 3.4a1.08 1.08 0 01-1.1-.7l-.3-.6a1.321 1.321 0 012.3-1.3l.3.6c.3537.6358.131 1.4377-.5 1.8a2.54 2.54 0 01-.7.2m1.8 3.5a1.52 1.52 0 01-1.2-.7l-.3-.6c-.3314-.6627-.0627-1.4686.6-1.8.6627-.3314 1.4686-.0627 1.8.6l.3.6a1.44 1.44 0 01-.6 1.8c-.2 0-.4.1-.6.1m1.6 3.6a1.3 1.3 0 01-1.2-.8 1.42 1.42 0 01-.2-.6c-.2761-.6627.0373-1.4239.7-1.7s1.4239.0373 1.7.7l.3.6c.259.6627-.0495 1.4118-.7 1.7-.3 0-.4.1-.6.1M237.1688 339.2475c-.7847-.0622-1.3921-.713-1.4-1.5001a12.28 12.28 0 013.5-7.5c.4-.4.8-.7 1.2-1.1 1.9-1.7 2.9-2.6 3.3-4.3.1657-.718.882-1.1657 1.6-1 .718.1657 1.1657.882 1 1.6-.6 2.6-2 3.8-4.1 5.7a12.7 12.7 0 01-1.2 1 9.74 9.74 0 00-2.6 5.7 1.29 1.29 0 01-1.3 1.4M235.4188 344.1474c-2 0-5.8-.9-13.6-3.8-4-1.5-7.6-3-11.1-4.4-9.6-4-17.2-7.2-23.2-5.4l-5.4 4.8c-.559.425-1.3506.3503-1.8204-.1717-.4697-.522-.4609-1.317.0204-1.8283l5.6-5a2.19 2.19 0 01.5-.3c7-2.2 15.1 1.2 25.4 5.4 3.4 1.4 7 2.9 11 4.4 8.6 3.2 11.7 3.6 12.6 3.6a1.7 1.7 0 01.6-.6 1.32 1.32 0 011.8.6 1.57 1.57 0 01-.3 1.9 2.31 2.31 0 01-2.1.8zM164.2188 353.7474a2.35 2.35 0 01-.8-.2 1.31 1.31 0 01-.3-1.9c7.4-10.4 14.4-14.7 14.7-14.9a1.39 1.39 0 111.4 2.4c-.1 0-6.9 4.2-13.9 14.1a1.61 1.61 0 01-1.1.5M235.2188 352.1474a20.64 20.64 0 01-8.1-1.9c-.6289-.3388-.8918-1.104-.6041-1.7578.2876-.6538 1.0294-.977 1.704-.7422a16.8 16.8 0 007.1 1.7 7.32 7.32 0 01-.1-3.3c.196-.7437.955-1.1901 1.7-1a1.49 1.49 0 011 1.7 6.38 6.38 0 00.5 3.3 1.26 1.26 0 01-.1 1.2 1.45 1.45 0 01-1 .7c-.8 0-1.4.1-2.1.1" fill="#46587F"/>
        <path d="M192.3188 334.3474h-.7c-.718-.0552-1.2552-.682-1.2-1.4.0552-.718.682-1.2552 1.4-1.2h.7c.7137.0636 1.2462.685 1.2 1.4a1.4 1.4 0 01-1.4 1.2m-4.6.2a1.38 1.38 0 01-1.3-1 1.28 1.28 0 01.9-1.6 2.77 2.77 0 01.8-.1 1.32 1.32 0 11.4 2.6 1.21 1.21 0 00-.5.1h-.3m8.5.4h-.3c-.2 0-.4-.1-.6-.1-.6904-.138-1.138-.8096-1-1.5.138-.6904.8096-1.138 1.5-1 .2 0 .4.1.7.1a1.3 1.3 0 011 1.6 1.42 1.42 0 01-1.3.9m3.8 1a.6.6 0 01-.4-.1c-.2-.1-.4-.1-.6-.2a1.3 1.3 0 11.7-2.5c.2.1.4.1.6.2a1.19 1.19 0 01.8 1.6 1.08 1.08 0 01-1.1 1m3.7 1.4a.9.9 0 01-.5-.1 1.42 1.42 0 00-.6-.2 1.3 1.3 0 111-2.4l.6.3a1.25 1.25 0 01.7 1.7 1.39 1.39 0 01-1.2.7m3.5 1.6a1.27 1.27 0 01-.6-.1l-.6-.3a1.32 1.32 0 01-.6-1.8 1.23 1.23 0 011.7-.6l.6.3c.6342.3556.894 1.135.6 1.8a1.13 1.13 0 01-1.1.7m3.5 1.9a1.42 1.42 0 01-.6-.2l-.6-.3c-.631-.3623-.8537-1.1642-.5-1.8a1.31 1.31 0 011.8-.5l.6.3a1.44 1.44 0 01.5 1.8 1.52 1.52 0 01-1.2.7m3.4 2a1.85 1.85 0 01-.7-.2l-.6-.3c-.6351-.359-.859-1.1649-.5-1.8s1.1649-.859 1.8-.5l.6.3a1.44 1.44 0 01.5 1.8 1.36 1.36 0 01-1.1.7m3.4 2a1.85 1.85 0 01-.7-.2l-.6-.3c-.6351-.359-.859-1.1649-.5-1.8s1.1649-.859 1.8-.5l.6.3a1.44 1.44 0 01.5 1.8 1.36 1.36 0 01-1.1.7m3.4 1.9a1.42 1.42 0 01-.6-.2l-.6-.3c-.6351-.359-.859-1.1649-.5-1.8s1.1649-.859 1.8-.5l.6.3c.631.3623.8537 1.1642.5 1.8a1.42 1.42 0 01-1.2.7M249.8188 376.4474a1.3 1.3 0 01-1.2-.8 133.17 133.17 0 00-11.4-20.8 1.3601 1.3601 0 112.2-1.6 130.16 130.16 0 0111.7 21.3 1.36 1.36 0 01-.7 1.8c-.2 0-.4.1-.6.1M177.7188 368.2474h-.2c-.7288-.1125-1.2502-.7643-1.2-1.5a32.33 32.33 0 014.3-11.8l.4-.6c2.9-4.4 3.3-5.2 2.9-7.5-.8-3.9-.3-6.5 1.3-7.8 1.8-1.4 2.2-2.2 2.3-2.6a1.3342 1.3342 0 112.6.6c-.3 1.3-1.4 2.6-3.3 4.1-.5.4-.9 2-.3 5.1.7 3.5-.3 5-3.3 9.5l-.4.6a30.76 30.76 0 00-3.9 10.7 1.1 1.1 0 01-1.2 1.2M239.9188 262.2474a1.45 1.45 0 01-.7-.2c-.6131-.429-.7881-1.2602-.4-1.9.5-.8 1.1-1.5 1.6-2.2 5.9-6.9 5.7-9.7 3.4-12.6-2.6-3.2-3.8-5.5-3.5-6.8.1688-.7252.8625-1.2021 1.6-1.1.7105.1226 1.1966.7855 1.1 1.5 0 .2.3 1.5 3 4.7 4.1 5.1 1.6 10.1-3.4 16.1a13.3 13.3 0 00-1.4 1.9 1.94 1.94 0 01-1.3.6zM235.5188 276.4474a1.37 1.37 0 01-1.4-1.4 32 32 0 01.9-5.9c.1657-.718.882-1.1657 1.6-1 .718.1657 1.1657.882 1 1.6a31 31 0 00-.8 5.4c-.0107.7135-.5865 1.2893-1.3 1.3M256.3188 240.1474a1.14 1.14 0 01-.8-.3 12.52 12.52 0 00-9.9-2c-.7456.1933-1.5067-.2544-1.7-1-.1933-.7456.2544-1.5067 1-1.7a15 15 0 0112.2 2.5c.5881.4535.7198 1.2873.3 1.9a1.38 1.38 0 01-1.1.6M235.8188 248.1474a1 1 0 01-.9-.8.82.82 0 01.8-.9c1.7-.1 2.7-.1 2.7-.1a.8515.8515 0 01.1 1.7s-1 .1-2.7.1m-3.5.3a.88.88 0 01-.9-.8.82.82 0 01.8-.9l.9-.1a.8515.8515 0 01.1 1.7l-.9.1m-8.7.8a1 1 0 01-.9-.8.89.89 0 01.8-1l2.6-.3c.2 0 .3 0 .4.1.1-.1.3-.1.4-.2a24.62 24.62 0 012.6-.2.8515.8515 0 01.1 1.7 21.12 21.12 0 01-2.6.2c-.2 0-.3 0-.4-.1-.1.1-.3.1-.4.2l-2.6.3v.1m-3.5.5a1 1 0 01-.9-.7.9.9 0 01.7-1c.3 0 .6-.1.9-.1a.8631.8631 0 11.3 1.7c-.3 0-.6.1-.9.1h-.05m-8.6 1.8a.76.76 0 01-.8-.6.86.86 0 01.6-1.1c.8-.2 1.6-.5 2.6-.7h.5a.52.52 0 01.4-.2 20 20 0 012.6-.5.8631.8631 0 11.3 1.7c-.9.2-1.8.3-2.5.5h-.4a.52.52 0 01-.4.2 18.24 18.24 0 00-2.5.7h-.4m-3.2 1.4a1.23 1.23 0 01-.8-.4.93.93 0 01.3-1.2 3 3 0 01.8-.4.8944.8944 0 11.8 1.6 1.61 1.61 0 00-.7.4c-.1-.1-.2 0-.4 0m-1.4 7.8h-.3a.91.91 0 01-.6-1.1 6.93 6.93 0 00.3-2v-.3a.6.6 0 01.1-.4c-.1-.1-.1-.2-.2-.4a7.37 7.37 0 00-.4-1.4 3.55 3.55 0 01-.2-1v-.5a.8631.8631 0 011.7.3v.1a.37.37 0 00.1.3 15.43 15.43 0 01.5 1.7.9.9 0 01-.1.5.76.76 0 01.2.5v.4a7.27 7.27 0 01-.4 2.5c0 .6-.3.8-.7.8m-1.7 3a1.42 1.42 0 01-.6-.2.82.82 0 01-.1-1.2c.2-.2.3-.4.5-.6a.8602.8602 0 111.4 1 4.35 4.35 0 01-.6.7.71.71 0 01-.6.3m-7.2 4.9a.88.88 0 01-.3-1.7c.8-.3 1.6-.7 2.3-1a.6.6 0 01.4-.1l.3-.3a14.29 14.29 0 002-1.4.8515.8515 0 111.1 1.3 13.36 13.36 0 01-2.3 1.6.75.75 0 01-.5.1l-.3.3a18.89 18.89 0 01-2.5 1.1.35.35 0 01-.2.1m-3.3 1a1 1 0 01-.9-.7 1 1 0 01.7-1.1c.3-.1.5-.1.8-.2a1 1 0 011.1.6.91.91 0 01-.6 1.1 2.92 2.92 0 01-.9.2.31.31 0 01-.2.1" fill="#46587F"/>
      </g>
    </g>
    <path d="M206.63 211.3a39 39 0 0024.7-2.9c2.3-1.1 4.7-2.7 5.7-5.1 1.3-3.2-.1-6.8-1.7-9.8-1.6-3-3.4-6.3-2.8-9.7.5-3 2.9-5.4 5.5-7.1 2.6-1.7 5.4-3 7.8-5 2.4-2 4.2-5 3.7-8 5.9-.2 11.8-.1 17.7.1-.7 18.9-1.3 37.8-2 56.6a1.49 1.49 0 01-.2.9 1.8 1.8 0 01-.9.6 33.15 33.15 0 01-10.4 1.5l-14.7.3-15.1.3a6.48 6.48 0 01-2-.2 6 6 0 01-1.5-.9c-5-3.7-10-7.5-14.9-11.2" fill="#F0F4FB"/>
    <path d="M230.03 177.6c0 1.933-1.567 3.5-3.5 3.5s-3.5-1.567-3.5-3.5c.0216-1.924 1.576-3.4784 3.5-3.5a3.42 3.42 0 013.5 3.5M255.33 176.3c0 1.933-1.567 3.5-3.5 3.5s-3.5-1.567-3.5-3.5c.0216-1.924 1.576-3.4784 3.5-3.5a3.42 3.42 0 013.5 3.5M224.23 190.5a3.4803 3.4803 0 01-3.5 3.5c-1.933 0-3.5-1.567-3.5-3.5s1.567-3.5 3.5-3.5a3.4803 3.4803 0 013.5 3.5M243.13 191.9c0 1.933-1.567 3.5-3.5 3.5s-3.5-1.567-3.5-3.5 1.567-3.5 3.5-3.5 3.5 1.567 3.5 3.5M234.33 204.5c0 1.933-1.567 3.5-3.5 3.5s-3.5-1.567-3.5-3.5 1.567-3.5 3.5-3.5 3.5 1.567 3.5 3.5" fill="#FFF"/>
    <path d="M250.03 163.6c-.7665-.016-1.384-.6335-1.4-1.4v-7.1h-26.7v2.9a1.37 1.37 0 01-1.4 1.4c-.7665-.016-1.384-.6335-1.4-1.4v-4.2a1.37 1.37 0 011.4-1.4h29.4c.7665.016 1.384.6335 1.4 1.4v8.5a1.21 1.21 0 01-1.3 1.3zM267.73 204.1c-.7665-.016-1.384-.6335-1.4-1.4a1.37 1.37 0 011.4-1.4h4v-18.9h-4c-.7732 0-1.4-.6268-1.4-1.4 0-.7732.6268-1.4 1.4-1.4h5.4c.7665.016 1.384.6335 1.4 1.4v21.6a1.37 1.37 0 01-1.4 1.4l-5.4.1zM200.33 204.1h-4.2c-.7665-.016-1.384-.6335-1.4-1.4v-21.6a1.37 1.37 0 011.4-1.4h4.2c.7732 0 1.4.6268 1.4 1.4 0 .7732-.6268 1.4-1.4 1.4h-2.9v18.9h2.9c.7665.016 1.384.6335 1.4 1.4a1.49 1.49 0 01-1.4 1.3M254.53 236.1h-21.6c-.7665-.016-1.384-.6335-1.4-1.4v-11.4c.016-.7665.6335-1.384 1.4-1.4.7665.016 1.384.6335 1.4 1.4v10h18.9v-5.5c.016-.7665.6335-1.384 1.4-1.4.7665.016 1.384.6335 1.4 1.4v6.8a1.28 1.28 0 01-.4 1 1.39 1.39 0 01-1.1.5" fill="#46587F"/>
    <path d="M232.93 224.7c-.7665-.016-1.384-.6335-1.4-1.4a1.37 1.37 0 011.4-1.4h29.4l-.1-59.5c.016-.7665.6335-1.384 1.4-1.4.7665.016 1.384.6335 1.4 1.4l.1 60.9c-.016.7665-.6335 1.384-1.4 1.4h-30.8zM228.43 224.3h-6.8a2.3502 2.3502 0 01-.8-.2l-15.8-10.9a1.38 1.38 0 01-.6-1.1v-49.6c.016-.7665.6335-1.384 1.4-1.4h39.2c.7732 0 1.4.6268 1.4 1.4 0 .7732-.6268 1.4-1.4 1.4h-37.8v47.5l15 10.2h6.3c.7665.016 1.384.6335 1.4 1.4a1.51 1.51 0 01-1.5 1.3" fill="#46587F"/>
    <path d="M250.03 163.8c-.7732 0-1.4-.6268-1.4-1.4 0-.7732.6268-1.4 1.4-1.4h12.9c.7665.016 1.384.6335 1.4 1.4a1.37 1.37 0 01-1.4 1.4h-12.9zM215.13 181.7c-.7665-.016-1.384-.6335-1.4-1.4v-6.1c.016-.7665.6335-1.384 1.4-1.4a1.37 1.37 0 011.4 1.4v6.1a1.37 1.37 0 01-1.4 1.4M228.23 195.7c-.7665-.016-1.384-.6335-1.4-1.4v-6.1c0-.7732.6268-1.4 1.4-1.4.7732 0 1.4.6268 1.4 1.4v6.1a1.37 1.37 0 01-1.4 1.4M235.03 181.7c-.7665-.016-1.384-.6335-1.4-1.4v-6.1c.016-.7665.6335-1.384 1.4-1.4a1.37 1.37 0 011.4 1.4v6.1a1.37 1.37 0 01-1.4 1.4M241.83 181.7c-.7665-.016-1.384-.6335-1.4-1.4v-6.1c.016-.7665.6335-1.384 1.4-1.4a1.37 1.37 0 011.4 1.4v6.1c-.016.7665-.6335 1.384-1.4 1.4M215.13 209.6c-.7665-.016-1.384-.6335-1.4-1.4v-6.1c.016-.7665.6335-1.384 1.4-1.4a1.37 1.37 0 011.4 1.4v6.1a1.37 1.37 0 01-1.4 1.4M221.93 209.6c-.7665-.016-1.384-.6335-1.4-1.4v-6.1c.016-.7665.6335-1.384 1.4-1.4a1.37 1.37 0 011.4 1.4v6.1a1.37 1.37 0 01-1.4 1.4M225.13 181.9a4.4802 4.4802 0 01-4.5-4.5c.016-.7665.6335-1.384 1.4-1.4a1.37 1.37 0 011.4 1.4c0 .9941.8059 1.8 1.8 1.8.9941 0 1.8-.8059 1.8-1.8 0-.9941-.8059-1.8-1.8-1.8-.7732 0-1.4-.6268-1.4-1.4 0-.7732.6268-1.4 1.4-1.4a4.4802 4.4802 0 014.5 4.5c-.0973 2.499-2.101 4.5027-4.6 4.6M241.83 209.6c-.7665-.016-1.384-.6335-1.4-1.4v-6.1c.016-.7665.6335-1.384 1.4-1.4a1.37 1.37 0 011.4 1.4v6.1c-.016.7665-.6335 1.384-1.4 1.4M231.83 209.7a4.4802 4.4802 0 01-4.5-4.5c.016-.7665.6335-1.384 1.4-1.4a1.37 1.37 0 011.4 1.4c0 .9941.8059 1.8 1.8 1.8.9941 0 1.8-.8059 1.8-1.8 0-.9941-.8059-1.8-1.8-1.8-.7732 0-1.4-.6268-1.4-1.4 0-.7732.6268-1.4 1.4-1.4a4.4802 4.4802 0 014.5 4.5 4.5902 4.5902 0 01-4.6 4.6M248.13 195.7c-.7665-.016-1.384-.6335-1.4-1.4v-6.1c0-.7732.6268-1.4 1.4-1.4.7732 0 1.4.6268 1.4 1.4v6.1a1.37 1.37 0 01-1.4 1.4M254.93 195.7c-.7665-.016-1.384-.6335-1.4-1.4v-6.1c.016-.7665.6335-1.384 1.4-1.4a1.37 1.37 0 011.4 1.4v6.1c-.016.7665-.6335 1.384-1.4 1.4M238.23 195.8c-2.4853 0-4.5-2.0147-4.5-4.5s2.0147-4.5 4.5-4.5c.7732 0 1.4.6268 1.4 1.4 0 .7732-.6268 1.4-1.4 1.4-.9941 0-1.8.8059-1.8 1.8 0 .9941.8059 1.8 1.8 1.8.9941 0 1.8-.8059 1.8-1.8.016-.7665.6335-1.384 1.4-1.4a1.37 1.37 0 011.4 1.4c-.151 2.442-2.1537 4.3577-4.6 4.4M218.33 195.8c-2.4853 0-4.5-2.0147-4.5-4.5s2.0147-4.5 4.5-4.5 4.5 2.0147 4.5 4.5c0 .7732-.6268 1.4-1.4 1.4-.7732 0-1.4-.6268-1.4-1.4 0-.9941-.8059-1.8-1.8-1.8-.9941 0-1.8.8059-1.8 1.8 0 .9941.8059 1.8 1.8 1.8.7665.016 1.384.6335 1.4 1.4-.0107.7135-.5865 1.2893-1.3 1.3M251.73 181.9c-2.4853 0-4.5-2.0147-4.5-4.5s2.0147-4.5 4.5-4.5 4.5 2.0147 4.5 4.5c-.016.7665-.6335 1.384-1.4 1.4a1.37 1.37 0 01-1.4-1.4c0-.9941-.8059-1.8-1.8-1.8-.9941 0-1.8.8059-1.8 1.8 0 .9941.8059 1.8 1.8 1.8.7665.016 1.384.6335 1.4 1.4a1.21 1.21 0 01-1.3 1.3M132.33 84.3h-2.6a.9.9 0 010-1.8h2.6a.9.9 0 010 1.8m3.5 0h-.8a.9.9 0 010-1.8h.8a.9.9 0 01.9.9 1.06 1.06 0 01-.9.9M162.93 261.5h-2.6a.9.9 0 010-1.8h2.6a.9.9 0 010 1.8m3.5 0h-.9a.9.9 0 010-1.8h.9a.9.9 0 010 1.8m8.7 0h-2.6c-.2 0-.3 0-.4-.1a.6.6 0 01-.4.1h-2.7a.9.9 0 010-1.8h2.6c.2 0 .3 0 .4.1a.6.6 0 01.4-.1h2.6a.9.9 0 01.9.9.77.77 0 01-.8.9" fill="#46587F"/>
    <path d="M304.93 206.2a9.25 9.25 0 013.7-1 24.2 24.2 0 013.8.2 67.67 67.67 0 0013.5.1c-1.9 3.4-3.7 6.9-5.6 10.3a27.31 27.31 0 00-2.5 5.5c-1.1 3.7-.9 7.9-2.9 11.3-.1.1-.1.2-.2.2-.3.2-.7-.3-.8-.6-1.5-4.4-3.1-8.8-4.6-13.3-1.3-3.7-2.6-7.4-3.8-11.1M348.13 202.2c.3.9-.7 1.6-1.6 1.9-.9.3-2 .5-2.3 1.3a2.77 2.77 0 00-.1.9c.1 4.5.2 9 .2 13.4a10.72 10.72 0 00.7 4.4c1 1.9 3 3.1 3.8 5.1.2.5.4 1.2.9 1.2a1.33 1.33 0 00.8-.3 28.08 28.08 0 007.8-9 15.4 15.4 0 001.9-6.3 7.83 7.83 0 00-2.3-6c-2.3-2.1-6.1-2.5-7.4-5.3a13.27 13.27 0 00-.9-2.1c-.5-.6-1.6-.8-2-.2M412.43 267c7.5-2.9 15.1-5.9 21.3-11a72.45 72.45 0 0010-10.7c7.2-8.8 14.6-18 17.8-28.9a31.08 31.08 0 01-11.9 4c-8.8 1-17.5-1.9-26.3-2.7a98.58 98.58 0 00-16.3.1 2.9 2.9 0 00-1.8.5 3.14 3.14 0 00-1.1 1.4c-2.6 4.6-5.2 9.1-7.8 13.7a39.62 39.62 0 00-4.6 10.3c-.8 3.7-.4 7.8 2 10.7a7.14 7.14 0 01-1.2-5.3 93.78 93.78 0 0119.9 17.3" fill="#EFF3FB"/>
    <path d="M362.03 208.1c-1.9-2.3-5.8-1.9-7.8-4.1-1.2-1.3-1.6-3.2-2.7-4.6-2.6-3.2-8.5-2.4-10.4-6.1-.8-1.5-.5-3.3-.6-5-.1-7.5-5.8-13.8-7.8-21.1-1.9-6.9-.4-14.3 1.8-21.1a40.88 40.88 0 014.5-10c3.9-6 10.2-10.3 16.9-12.8 6.7-2.5 13.9-3.5 21.1-4.2a51.35 51.35 0 019.6-.2 46 46 0 018.9 2.1 109.4 109.4 0 0116.5 7.1 6.7 6.7 0 013.3 2.9c.7 1.5.3 3.3-.2 4.9a32.83 32.83 0 01-2.7 7.4c-1.4 2.6-3.5 4.7-4.9 7.3-2.8 5.3-2.5 12.1-6.4 16.6-.8.9-1.7 1.8-2.5 2.7-2.5 3.3-2.6 8.4-6 10.7-4.3 2.9-10.7-.6-15.1 2.1-2.2 1.4-3.2 4-4.4 6.3a33.26 33.26 0 01-8.1 10.5 16.19 16.19 0 00-3.1 3.3 4 4 0 00-.1 4.3M333.03 250.7a31 31 0 005.9-6.6 139.9999 139.9999 0 009.3-14.7 7.84 7.84 0 00.9-2.4 4.43 4.43 0 00-.3-2c-.9-3-2.7-5.6-3.7-8.6-1.5-4.4-1-9.2-.2-13.8a72.29 72.29 0 01-8.5-6 25.21 25.21 0 00-12.2 8.4 42.94 42.94 0 00-7.2 13.1c-1.1 3.1-2 6.5-1.3 9.8.5 2.5 2 4.8 3.4 6.9l4.2 6.4c2.2 3.4 4.8 7.2 8.8 8.1" fill="#F0F4FB"/>
    <path d="M332.43 256c2.3-9.1 11.8-14.3 16.6-22.3 2 1.9 4.8 2.8 7.4 3.9 13.5 5.7 24.2 17.1 38.1 21.7a11.78 11.78 0 01-.9-9 71.33 71.33 0 0117 18.5c-2.1 2-5.1 2.7-7.9 3.1a111 111 0 01-51.2-3.9c-7.6-2.5-15.4-6-19.9-12.7" fill="#B3A2DA"/>
    <path d="M304.63 181.6h-.2c-.7105-.1226-1.1966-.7855-1.1-1.5a81.43 81.43 0 0116.7-38.4 1.351 1.351 0 012.1 1.7 80 80 0 00-16.2 37.1 1.38 1.38 0 01-1.3 1.1M304.13 185.5h-.1a1.4 1.4 0 01-1.2-1.4 1.27 1.27 0 01.1-.6c.0552-.718.682-1.2552 1.4-1.2.718.0552 1.2552.682 1.2 1.4a1.27 1.27 0 01-.1.6 1.38 1.38 0 01-1.3 1.2m-.3 3.9a1.34 1.34 0 01-1.3-1.4v-.7a1.3038 1.3038 0 012.6.2v.6a1.39 1.39 0 01-1.3 1.3m-.2 3.9c-.7135-.0107-1.2893-.5865-1.3-1.3v-.7c.0107-.7135.5865-1.2893 1.3-1.3.7135.0107 1.2893.5865 1.3 1.3v.6a1.24 1.24 0 01-1.3 1.4m.1 4c-.7135-.0107-1.2893-.5865-1.3-1.3v-.7a1.351 1.351 0 112.7-.1v.6a1.6 1.6 0 01-1.4 1.5m.3 3.9c-.6807.002-1.2476-.5213-1.3-1.2l-.1-.7c-.0552-.718.482-1.3448 1.2-1.4.718-.0552 1.3448.482 1.4 1.2l.1.6a1.27 1.27 0 01-1.2 1.4l-.1.1m.4 3.9a1.38 1.38 0 01-1.3-1.1c0-.2-.1-.4-.1-.7a1.32 1.32 0 112.6-.4c0 .2.1.4.1.6.0966.7145-.3895 1.3774-1.1 1.5-.1.1-.1.1-.2.1m.7 3.9a1.29 1.29 0 01-1.3-1.1c0-.2-.1-.4-.1-.7a1.32 1.32 0 112.6-.4c0 .2.1.4.1.6a1.27 1.27 0 01-1 1.5.77.77 0 01-.3.1m.8 3.8a1.38 1.38 0 01-1.3-1 6.37 6.37 0 01-.2-.7 1.3342 1.3342 0 012.6-.6c0 .2.1.4.1.6.1565.7164-.2874 1.4268-1 1.6 0 .1-.1.1-.2.1m1 3.8a1.42 1.42 0 01-1.3-.9c-.1-.2-.1-.4-.2-.6-.1497-.674.2536-1.3476.9185-1.5338.665-.1861 1.3594.18 1.5815.8338.1.2.1.4.2.6a1.28 1.28 0 01-.9 1.6h-.3m1.2 3.8a1.26 1.26 0 01-1.2-.9c-.1-.2-.1-.4-.2-.6a1.33 1.33 0 112.5-.9c.1.2.1.4.2.6.2198.6887-.1292 1.4304-.8 1.7a4.3302 4.3302 0 00-.5.1m1.4 3.6a1.3 1.3 0 01-1.2-.8 1.42 1.42 0 01-.2-.6c-.2761-.6627.0373-1.4239.7-1.7s1.4239.0373 1.7.7a1.42 1.42 0 01.2.6c.259.6627-.0495 1.4118-.7 1.7a1.09 1.09 0 01-.5.1m1.5 3.6a1.3 1.3 0 01-1.2-.8l-.3-.6c-.2761-.6627.0373-1.4239.7-1.7s1.4239.0373 1.7.7l.3.6c.2948.6356.0285 1.3903-.6 1.7a1.27 1.27 0 01-.6.1m1.8 3.6a1.52 1.52 0 01-1.2-.7l-.3-.6c-.3314-.6627-.0627-1.4686.6-1.8.6627-.3314 1.4686-.0627 1.8.6l.3.6c.315.6638.0504 1.458-.6 1.8-.2 0-.4.1-.6.1M372.33 273.6h-.2c-24.3556-3.593-45.7829-18.0003-58.3-39.2-.3563-.6598-.125-1.4832.5227-1.861.6477-.3779 1.4783-.1739 1.8773.461 12.1075 20.4615 32.7864 34.3821 56.3 37.9a1.27 1.27 0 011.1 1.5 1.38 1.38 0 01-1.3 1.2M445.23 246.5a1.61 1.61 0 01-.9-.3 1.27 1.27 0 01-.1-1.8c.1-.2.3-.3.4-.5.4418-.5523 1.2477-.6418 1.8-.2s.6418 1.2477.2 1.8c-.1.2-.3.3-.4.5a1.39 1.39 0 01-1 .5m-2.7 2.9a1.22 1.22 0 01-.9-.4c-.5004-.5345-.5004-1.3655 0-1.9.1-.2.3-.3.4-.5a1.35 1.35 0 112 1.8l-.5.5a1.39 1.39 0 01-1 .5m-2.7 2.8a1.09 1.09 0 01-.9-.4c-.5004-.5345-.5004-1.3655 0-1.9.2-.1.3-.3.5-.4.5247-.5247 1.3753-.5247 1.9 0 .5247.5247.5247 1.3753 0 1.9l-.5.5a5.39 5.39 0 01-1 .3m-2.9 2.6a1.39 1.39 0 01-1-.5 1.27 1.27 0 01.1-1.8c.2-.1.3-.3.5-.4a1.27 1.27 0 011.8.1c.4683.5622.4247 1.39-.1 1.9-.2.1-.3.3-.5.4a1.14 1.14 0 01-.8.3m-3.1 2.5a1.23 1.23 0 01-1-.5 1.36 1.36 0 01.2-1.8c.2-.1.3-.3.5-.4.5523-.4418 1.3582-.3523 1.8.2.4418.5523.3523 1.3582-.2 1.8-.2.1-.3.3-.5.4a1.14 1.14 0 01-.8.3m-3.1 2.4a1.38 1.38 0 01-1.1-.6 1.28 1.28 0 01.3-1.8 1.76 1.76 0 00.5-.4 1.2903 1.2903 0 111.5 2.1 2.18 2.18 0 00-.5.4 1.08 1.08 0 01-.7.3m-3.3 2.1a1.25 1.25 0 01-1.1-.6 1.3 1.3 0 01.4-1.8 2.19 2.19 0 00.5-.3 1.3038 1.3038 0 111.4 2.2 2.09 2.09 0 00-.6.4c-.1.1-.3.1-.6.1m-3.3 2.1a1.08 1.08 0 01-1.1-.7c-.3537-.6358-.131-1.4377.5-1.8l.6-.3a1.321 1.321 0 111.3 2.3l-.6.3a2.54 2.54 0 01-.7.2m-3.5 1.8a1.52 1.52 0 01-1.2-.7c-.315-.6638-.0503-1.458.6-1.8l.6-.3c.6627-.3314 1.4686-.0627 1.8.6.3314.6627.0627 1.4686-.6 1.8l-.6.3a1.27 1.27 0 01-.6.1m-3.5 1.7a1.3 1.3 0 01-1.2-.8 1.25 1.25 0 01.7-1.7l.6-.3c.6351-.3038 1.3962-.0351 1.7.6.3038.6351.0351 1.3962-.6 1.7l-.6.3a.85.85 0 01-.6.2m-3.6 1.6a1.3 1.3 0 01-1.2-.8c-.259-.6627.0495-1.4118.7-1.7a1.42 1.42 0 01.6-.2c.6627-.2761 1.4239.0373 1.7.7s-.0373 1.4239-.7 1.7a1.42 1.42 0 01-.6.2 4.3302 4.3302 0 00-.5.1m-3.7 1.3a1.18 1.18 0 01-1.2-.9c-.2198-.6887.1292-1.4304.8-1.7.2-.1.4-.1.6-.2.6788-.209 1.402.1524 1.6426.8207.2406.6682-.0864 1.4076-.7426 1.6793-.2.1-.4.1-.6.2a1.34 1.34 0 01-.5.1m-3.8 1.2a1.38 1.38 0 01-1.3-1 1.28 1.28 0 01.9-1.6c.2-.1.4-.1.6-.2a1.3 1.3 0 11.7 2.5c-.2.1-.4.1-.6.2-.2.1-.2.1-.3.1m-3.8.9a1.38 1.38 0 01-1.3-1c-.1565-.7164.2874-1.4268 1-1.6.2 0 .4-.1.6-.1a1.3342 1.3342 0 01.6 2.6c-.2.1-.4.1-.6.2a.37.37 0 00-.3-.1m-3.8.8a1.29 1.29 0 01-1.3-1.1 1.27 1.27 0 011.1-1.5c.2 0 .4-.1.6-.1a1.2748 1.2748 0 11.5 2.5c-.2 0-.4.1-.7.1a.31.31 0 01-.2.1m-3.9.6a1.38 1.38 0 01-1.3-1.1c-.0966-.7145.3895-1.3774 1.1-1.5.2 0 .4-.1.6-.1a1.32 1.32 0 01.4 2.6c-.2 0-.4.1-.7.1h-.1m-3.9.4a1.24 1.24 0 01-1.3-1.2 1.27 1.27 0 011.2-1.4 1.27 1.27 0 00.6-.1c.718-.0552 1.3448.482 1.4 1.2.0552.718-.482 1.3448-1.2 1.4a2 2 0 00-.7.1m-11.1.1h-.7a1.3039 1.3039 0 01.2-2.6h.6a1.27 1.27 0 011.2 1.4c-.0524.6787-.6193 1.202-1.3 1.2m7.2.1c-.7135-.0107-1.2893-.5865-1.3-1.3.003-.7339.5684-1.3428 1.3-1.4h.6c.7456-.0276 1.3724.5544 1.4 1.3.0276.7456-.5544 1.3724-1.3 1.4h-.7m-3.3 0h-.7c-.718 0-1.3-.582-1.3-1.3 0-.718.582-1.3 1.3-1.3h.6c.7135.0107 1.2893.5865 1.3 1.3a1.13 1.13 0 01-1.2 1.3M447.53 243.7007a1.1436 1.1436 0 01-.8-.3007 1.31 1.31 0 01-.2-1.9c25.3412-32.1918 22.0046-78.3843-7.7-106.6-.4813-.5114-.4901-1.3063-.0203-1.8283.4697-.522 1.2612-.5966 1.8203-.1717 30.7373 29.1778 34.2451 76.945 8.1 110.3a1.583 1.583 0 01-1.2.5007M387.53 113.2h-.7c-.7456-.0276-1.3276-.6544-1.3-1.4.0276-.7456.6544-1.3276 1.4-1.3h.7a1.35 1.35 0 011.3 1.4c-.0572.7316-.6661 1.297-1.4 1.3m3.9.3h-.1a1.27 1.27 0 01-.6-.1c-.718-.0552-1.2552-.682-1.2-1.4.0552-.718.682-1.2552 1.4-1.2a2 2 0 01.7.1c.7137.0636 1.2463.685 1.2 1.4a1.4 1.4 0 01-1.4 1.2m3.9.4h-.2c-.2 0-.4-.1-.6-.1a1.32 1.32 0 11.4-2.6c.2 0 .4.1.7.1.7105.1226 1.1966.7855 1.1 1.5a1.39 1.39 0 01-1.4 1.1m3.9.7h-.2c-.2 0-.4-.1-.6-.1a1.32 1.32 0 01.4-2.6c.2 0 .4.1.7.1a1.2 1.2 0 011 1.5 1.38 1.38 0 01-1.3 1.1m3.9.8h-.3a1.27 1.27 0 00-.6-.1 1.3342 1.3342 0 01.6-2.6 2.54 2.54 0 01.7.2 1.43 1.43 0 011 1.6 1.84 1.84 0 01-1.4.9m3.8 1a.76.76 0 01-.4-.1c-.2-.1-.4-.1-.6-.2a1.3 1.3 0 11.7-2.5c.2.1.4.1.6.2a1.28 1.28 0 01.9 1.6 1.36 1.36 0 01-1.2 1m3.7 1.2a.6.6 0 01-.4-.1c-.2-.1-.4-.1-.6-.2a1.33 1.33 0 11.9-2.5c.2.1.4.1.6.2.6858.2535 1.0418 1.01.8 1.7a1.48 1.48 0 01-1.3.9m3.7 1.4a.9.9 0 01-.5-.1 1.42 1.42 0 00-.6-.2 1.3 1.3 0 111-2.4 1.42 1.42 0 00.6.2 1.25 1.25 0 01.7 1.7 1.3 1.3 0 01-1.2.8m3.6 1.5a.75.75 0 01-.5-.1l-.6-.3c-.6627-.2761-.9761-1.0373-.7-1.7.2761-.6627 1.0373-.9761 1.7-.7l.6.3a1.23 1.23 0 01.6 1.7 1 1 0 01-1.1.8m3.5 1.8a1.27 1.27 0 01-.6-.1l-.6-.3a1.3416 1.3416 0 111.2-2.4l.6.3c.6342.3556.894 1.135.6 1.8a1.52 1.52 0 01-1.2.7m3.4 1.9a1.85 1.85 0 01-.7-.2l-.6-.3c-.6351-.359-.859-1.1649-.5-1.8s1.1649-.859 1.8-.5l.6.3a1.44 1.44 0 01.5 1.8 1.08 1.08 0 01-1.1.7m3.4 2.1a1.85 1.85 0 01-.7-.2 1 1 0 01-.5-.4c-.6075-.3866-.7866-1.1925-.4-1.8.3866-.6075 1.1925-.7866 1.8-.4a2.09 2.09 0 01.6.4 1.3 1.3 0 01.4 1.8 1.73 1.73 0 01-1.2.6m3.2 2.2a1.33 1.33 0 01-.8-.3c-.2-.1-.3-.3-.5-.4a1.2903 1.2903 0 011.5-2.1 2.18 2.18 0 01.5.4 1.28 1.28 0 01.3 1.8 1.1 1.1 0 01-1 .6m3.1 2.4a1.14 1.14 0 01-.8-.3l-.5-.4a1.2806 1.2806 0 111.6-2l.5.4a1.2 1.2 0 01.2 1.8 1.23 1.23 0 01-1 .5m2.6 2.1a1.61 1.61 0 01-.9-.3c-.5295-.5077-.5732-1.3395-.1-1.9a1.27 1.27 0 011.8-.1l.1.1c.5295.5077.5732 1.3395.1 1.9a1.69 1.69 0 01-1 .3M429.33 189.1a1.49 1.49 0 01-1.4-1.3 1.37 1.37 0 011.3-1.5 19.91 19.91 0 006.7-1.9c-3.3-4-10.8-13.4-11.2-13.8-.4694-.5799-.3799-1.4306.2-1.9.5799-.4694 1.4306-.3799 1.9.2.1.1 10.2 12.8 12.2 15.1a1.13 1.13 0 01.3 1.1 1.7 1.7 0 01-.6 1 22.07 22.07 0 01-9.4 3M426.13 219.6h-.3c-5.8-.2-28.4-2.8-34.5-9.5a5.47 5.47 0 01-1.6-4.2 1.4036 1.4036 0 012.8.2 3.24 3.24 0 00.9 2.1c2.1 2.3 7.6 4.6 15.4 6.3a106.83 106.83 0 0017.1 2.3c1.9 0 3.2-.4 4.1-1.5 1-1.3 1.8-4.3-.1-11.3a38.09 38.09 0 01-.7-13.3 1.373 1.373 0 112.7.5 32.79 32.79 0 00.6 12.1c1.8 6.5 1.7 11-.4 13.7a7.1 7.1 0 01-6 2.6M425.23 166.2a1.28 1.28 0 01-1-.4 1.27 1.27 0 010-1.8c.1-.2.6-1.5-.3-5.7-1.2-5.3-7.1-15.9-8.2-17a1.39 1.39 0 01-.4-1.7 1.32 1.32 0 011.8-.6c1.7.8 8.3 13.5 9.4 18.8 1.3 5.8.1 7.6-.4 8.1a1.4 1.4 0 01-.9.3zM394.83 180.2a2.54 2.54 0 01-.7-.2 1.44 1.44 0 01-.5-1.8c.1-.2.2-.3.3-.5.3314-.6627 1.1373-.9314 1.8-.6.6627.3314.9314 1.1373.6 1.8l-.3.6a1.52 1.52 0 01-1.2.7m-2.5 2.9a1.61 1.61 0 01-1.1-.5 1.28 1.28 0 01.3-1.8c.1-.1.3-.2.4-.3.5523-.4418 1.3582-.3523 1.8.2.4418.5523.3523 1.3582-.2 1.8-.2.2-.4.3-.6.5-.1 0-.4.1-.6.1m-6.9 1.3a.6.6 0 01-.4-.1c-.3-.1-.6-.3-.9-.4-.6075-.3866-.7866-1.1925-.4-1.8.3866-.6075 1.1925-.7866 1.8-.4a.44.44 0 00.3.1c.6858.2535 1.0418 1.01.8 1.7a1.11 1.11 0 01-1.2.9m3.3.2a1.38 1.38 0 01-1.3-1.1c-.0966-.7145.3895-1.3774 1.1-1.5a4.3302 4.3302 0 00.5-.1c.718-.1657 1.4343.282 1.6 1 .1657.718-.282 1.4343-1 1.6a2 2 0 01-.7.1h-.2M384.83 179.8a1.39 1.39 0 01-1.2-.7 1.32 1.32 0 01.6-1.8c4.7-2.3 17-9.7 18.2-15.2.4-1.9.6-3.3.8-4.5.5-3.4.7-4.8 4-9.5a46.2 46.2 0 004.9-10.1 19.1 19.1 0 011.7-3.9c-.9-1.3-4.5-4.7-10.2-7.9-5.4-3-14-6.5-24-5.8-.7456.0276-1.3724-.5544-1.4-1.3-.0276-.7456.5544-1.3724 1.3-1.4 19.3-1.3 35.7 12 37.1 15.9a1.56 1.56 0 01-.5 2 18.36 18.36 0 00-1.4 3.4 45.13 45.13 0 01-5.2 10.7c-2.9 4.2-3.1 5.1-3.6 8.3-.2 1.2-.4 2.6-.8 4.6-.7 3.4-4.3 7.4-10.6 11.7a87.8 87.8 0 01-9 5.4c-.3 0-.5.1-.7.1M334.43 181.3a1.2301 1.2301 0 01-1-.5c-5.9-6.9-8.1-26.6 3.4-44.4 6.9-10.8 19.3-16.8 36.6-18a2.22 2.22 0 00.9-.1 1.36 1.36 0 11.3 2.7 4.14 4.14 0 00-1 .1c-16.4 1.1-28.1 6.7-34.5 16.7-11.1 17.2-8.3 35.7-3.6 41.2.4732.5605.4295 1.3923-.1 1.9a1.6203 1.6203 0 01-1 .4M337.23 184.8a1.38 1.38 0 01-1.1-.6c-.2-.3-.3-.4-.3-.5-.4418-.5523-.3523-1.3582.2-1.8.5523-.4418 1.3582-.3523 1.8.2a2.48 2.48 0 01.4.6 1.3 1.3 0 01-.4 1.8.71.71 0 01-.6.3m1.7 3.5a1.42 1.42 0 01-1.3-.9c-.1-.2-.1-.4-.2-.5a1.33 1.33 0 112.5-.9 1.85 1.85 0 01.2.7 1.28 1.28 0 01-.9 1.6h-.3m.2 3.9h-.3a1.28 1.28 0 01-.9-1.6c0-.2.1-.3.1-.5a1.32 1.32 0 012.6.4 2.35 2.35 0 01-.2.8 1.54 1.54 0 01-1.3.9M316.63 229.1c-.7665-.016-1.384-.6335-1.4-1.4a34.75 34.75 0 0110.8-23.2 38.61 38.61 0 019.9-7.1 1.39 1.39 0 011.7.4 12.57 12.57 0 007.6 4.8 1.38 1.38 0 00.4-.3 1.34 1.34 0 00.2-.9 22.25 22.25 0 01-8-5.2 1.35 1.35 0 112-1.8 20.72 20.72 0 007.7 4.8 1.3 1.3 0 01.9 1 5.68 5.68 0 01-.6 3.7 3.59 3.59 0 01-2.4 1.5h-.4a14.75 14.75 0 01-8.9-5c-3.7 2-17.3 10.7-18.2 27.5a1.31 1.31 0 01-1.3 1.2" fill="#46587F"/>
    <path d="M347.13 227.8a1.33 1.33 0 01-.8-.3c-6.5-4.6-4.1-19.2-4-19.8.138-.7456.8544-1.238 1.6-1.1.7456.138 1.238.8544 1.1 1.6-.6 3.7-1.4 14.1 2.9 17.1a1.31 1.31 0 01.3 1.9 1.15 1.15 0 01-1.1.6M360.23 210.6a1.52 1.52 0 01-1.2-.7c-.5-1-1.2-1.2-2.7-1.7a21.35 21.35 0 01-3.1-1.2 8.76 8.76 0 01-4.3-5.9 1.51 1.51 0 011.1-1.6c.7145-.0966 1.3774.3895 1.5 1.1a5.79 5.79 0 002.8 3.9 25.72 25.72 0 002.7 1.1c1.6.5 3.2 1 4.2 3a1.29 1.29 0 01-.5 1.8c-.1.2-.3.2-.5.2M402.23 267a1.61 1.61 0 01-1.1-.5c-1.6-2-2.8-3.5-3.4-4.3-1.3 0-3.6-.6-7-3.8-3.9-3.8-25.6-17.1-32.4-18.9-7.9-2.1-9.2-6.9-9.3-7.1a1.25 1.25 0 01.4-1.3c.1-.1 7.6-7.3 8.4-17.8.0552-.7732.7268-1.3552 1.5-1.3.7732.0552 1.3552.7268 1.3 1.5a31.39 31.39 0 01-8.6 18.9c.6 1.1 2.4 3.3 7 4.5 7.6 2 29.8 15.8 33.6 19.6 3.5 3.4 5.2 3.1 5.2 3.1a1.39 1.39 0 011.5.4s1.5 1.9 3.9 5a1.31 1.31 0 01-.2 1.9c-.2 0-.5.1-.8.1M361.73 204.8a1.61 1.61 0 01-1.1-.5 1.31 1.31 0 01.2-1.9 43.2 43.2 0 008.2-9.3c4-6.2 6.8-10 10.6-12.2a1.31 1.31 0 011.8.5c.3636.6657.1442 1.4995-.5 1.9-3.3 1.9-6 5.4-9.7 11.3a45.09 45.09 0 01-8.8 10 1.17 1.17 0 01-.7.2M382.83 202.2c-4.2 0-9.4-5.5-10-6.1a1.35 1.35 0 112-1.8c1.9 2.1 5.9 5.4 8.1 5.2 3.6-.2 3.9-1.1 4-2.5.1159-.7154.7724-1.2143 1.4927-1.1343.7203.08 1.2513.7109 1.2073 1.4343-.3 4.1-3.5 4.9-6.6 5 0-.1-.1-.1-.2-.1M377.53 191.5a.75.75 0 01-.5-.1 1.28 1.28 0 01-.7-1.7 2.64 2.64 0 01.6-.9c.4694-.5247 1.2753-.5694 1.8-.1.5247.4694.5694 1.2753.1 1.8a.35.35 0 00-.1.2 1.41 1.41 0 01-1.2.8m2.2 2.4h-.3l-.2-.1c-.2 0-.3-.1-.5-.1a1.3 1.3 0 11.7-2.5c.1 0 .2.1.3.1l.2.1a1.43 1.43 0 011 1.6c0 .5-.6.9-1.2.9m3.8 1a.73.73 0 01-.6-.2.58.58 0 00-.4-.1 1.3 1.3 0 11.7-2.5 9.44 9.44 0 01.9.3 1.29 1.29 0 01.5 1.8 1.08 1.08 0 01-1.1.7" fill="#46587F"/>
    <path d="M391.63 254.2a1.52 1.52 0 01-1.2-.7c-3.2-5.9 1.3-14.2 4.3-19.7a28.85 28.85 0 001.8-3.7c1.2-3.7 5.3-11.2 5.4-11.5.359-.6351 1.1649-.859 1.8-.5s.859 1.1649.5 1.8c0 .1-4.1 7.6-5.2 11a29.26 29.26 0 01-2 4.1c-2.5 4.7-6.8 12.5-4.3 17.1a1.29 1.29 0 01-.5 1.8.6.6 0 01-.6.3" fill="#46587F"/>
    <path d="M409.53 266a1.39 1.39 0 01-1-.5c-2.8-3.2-5.6-6-8.1-8.4-1.5-1.4-2.7-2.7-3.8-3.8a13 13 0 00.3 1.3c.3314.6627.0627 1.4686-.6 1.8-.6627.3314-1.4686.0627-1.8-.6-.9-1.9-.9-5.9-.9-6.7a1.38 1.38 0 011.1-1.3 1.49 1.49 0 011.5.7c.6 1.3 3.2 3.8 6.1 6.7 2.5 2.5 5.4 5.3 8.2 8.6a1.3 1.3 0 01-1 2.2M337.13 252.2a1.85 1.85 0 01-.7-.2 1.25 1.25 0 01-.5-1.8 111.7 111.7 0 0110.8-16.3 1.351 1.351 0 012.1 1.7 116.16 116.16 0 00-10.6 15.9 1.13 1.13 0 01-1.1.7M374.73 176.2a1.08 1.08 0 01-.7-.3.82.82 0 01.1-1.2c.6-.5 1.2-1.1 1.8-1.6a.85.85 0 011.2 1.2c-.6.6-1.2 1.1-1.9 1.7a.76.76 0 01-.5.2m-2.7 2.2a.91.91 0 01-.7-.3.83.83 0 01.2-1.2 3 3 0 01.7-.5.8515.8515 0 111.1 1.3 3 3 0 01-.7.5c-.3.1-.4.2-.6.2m-7.3 4.9a.67.67 0 01-.7-.4.84.84 0 01.3-1.2c.8-.5 1.5-.9 2.2-1.4a.6.6 0 01.4-.1l.3-.3c.7-.5 1.5-1 2.1-1.5a.8602.8602 0 011 1.4c-.7.5-1.4 1-2.2 1.5a.6.6 0 01-.4.1c-.1.1-.2.3-.3.3-.7.5-1.5.9-2.2 1.4-.1.2-.3.2-.5.2m-3 1.8a1.23 1.23 0 01-.8-.4.93.93 0 01.3-1.2 4.35 4.35 0 00.7-.4.8746.8746 0 11.9 1.5c-.3.1-.5.3-.8.4 0 .1-.1.1-.3.1m-7.6 4.3a.67.67 0 01-.7-.4.86.86 0 01.3-1.2l2.1-1.2.2-.1a.6.6 0 01.4-.1l.3-.3c.8-.4 1.5-.8 2.3-1.3a.8746.8746 0 11.9 1.5c-.8.4-1.5.8-2.3 1.3a.6.6 0 01-.4.1l-.3.3-.2.1c-.7.4-1.4.8-2 1.2a1.49 1.49 0 01-.6.1m-2.8 2a1.08 1.08 0 01-.7-.3.82.82 0 01.1-1.2c.2-.2.5-.4.7-.6a.8602.8602 0 011 1.4 2.65 2.65 0 01-.6.5c-.1.2-.3.2-.5.2m-3 4.3a.9.9 0 01-.9-.9 5.46 5.46 0 011.3-2.9.8602.8602 0 011.4 1 3.26 3.26 0 00-.9 1.8.92.92 0 01-.9 1M324.13 140.2a1.61 1.61 0 01-.9-.3 1.3 1.3 0 01-.1-1.9c13.8633-15.6726 33.2465-25.382 54.1-27.1a1.36 1.36 0 11.3 2.7c-20.179 1.6947-38.9368 11.0736-52.4 26.2a1.28 1.28 0 01-1 .4" fill="#46587F"/>
    <path d="M21.53 201.6c-7.8-4.5-12.1-13-16-21.1l-1.5 2.65c-.2 2.1-.5 4.1-.7 6.2a23.72 23.72 0 00-.3 4.6 22.78 22.78 0 001 5.2c.5 2 1.1 4.1 1.7 6.1 3.2 11.7 7.1 23.8 14.9 33a54.69 54.69 0 019.3-10.5c5.9-5.1 13.2-8.9 18.3-14.6-4.4-2-8.6-4.4-13.1-6.2-4.5-1.8-9.4-2.9-13.6-5.4M160.43 216.1c-3.2.5-6.1 2.1-9.1 3.5a57.24 57.24 0 01-32.9 4.5c-6.4-1-12.5-3.1-18.7-5l-15 23.4c2.7 1.4 5.3 2.8 8 4.2.3.2.7.4.8.8a1.73 1.73 0 01-.1 1c-1.2 3.2-2.5 6.4-2.8 9.9a22.21 22.21 0 002.7 12.3 19.22 19.22 0 006.3-.9c3.1-.9 5.9-2.7 8.9-4.1 2.4-1.1 4.9-1.8 7.4-2.7 11.1-3.9 21-11 29-19.7a108.26 108.26 0 0018-27.4c-.9.1-1.7.1-2.5.2" fill="#EFF3FB"/>
    <path d="M53.53 200.9a13.49 13.49 0 008.2-3.2c3.4-3.1 4.6-7.9 4.9-12.5.3-4.6-.1-9.2 1-13.7.8-3.5 2.8-7.1 6.2-8.3 2.6-1 5.6-.3 8.1.9a19.33 19.33 0 018.7 8.5 8.53 8.53 0 001.9 3c.9486.7997 2.3584.7116 3.2-.2-.8724-4.5644.6786-9.2553 4.1-12.4 1.5-1.4 3.4-2.4 4.9-3.8a14 14 0 004.3-12.7c5.2-.2 10.3 1.8 15.1 3.7 2.3.9 5.1 2.5 4.7 5 3-3.2 3.5-8.3 1.7-12.3a16.77 16.77 0 00-9.6-8.5 12.39 12.39 0 004.4-3.8c-5.5-2.8-11.1-5.7-16.6-8.5a63 63 0 00-10.3-4.5c-7.4-2.4-15.4-1.5-23.2-.6-6.8.8-14.4 2-18.6 7.5a27.85 27.85 0 01-2.6 3.4 37.26 37.26 0 01-3.9 2.5c-2.5 1.7-4.1 4.5-5.6 7.2s-3 5.4-3.3 8.5a22.25 22.25 0 00.9 7.2c3.7 15.5 7.4 31.1 11.2 46.6" fill="#F0F4FB"/>
    <path d="M24.53 238.7c2.6-5.8 7.9-10 13-13.8l7.3-5.5a15.71 15.71 0 013.7-2.2c2.4-.8 5-.1 7.4.6 2.9.8 5.8 1.6 8.1 3.6 2.2 1.8 3.5 4.4 5.3 6.6a33.76 33.76 0 004.4 4c6.8 5.5 13.6 11 21.4 14.9-1.5 3.4-1.5 7.3-1.3 11a116 116 0 001.2 11.7c-3 1.3-6.4 1.3-9.7 1.1a111.07 111.07 0 01-25.5-5.2 77.77 77.77 0 01-20.6-9.2c-6.3-4.2-11.7-9.8-14.7-16.8" fill="#FEC8C2"/>
    <path d="M6.63 209.3a1.3 1.3 0 01-1.3-1 84.05 84.05 0 01-2.2-18.8c.025-28.6604 14.9977-55.2321 39.5-70.1a1.39 1.39 0 111.4 2.4c-29.321 17.8773-43.842 52.5661-36 86a1.3 1.3 0 01-1 1.6.76.76 0 00-.4-.1M7.53 213a1.38 1.38 0 01-1.3-1l-.1-.4a1.3 1.3 0 112.5-.7l.1.4a1.28 1.28 0 01-.9 1.6c0 .1-.2.1-.3.1zm1.2 3.7a1.18 1.18 0 01-1.2-.9c-.1-.2-.1-.4-.2-.6a1.33 1.33 0 112.5-.9c.1.2.1.4.2.6.2198.6887-.1292 1.4304-.8 1.7a1.09 1.09 0 01-.5.1zm1.3 3.7a1.3 1.3 0 01-1.2-.8 1.42 1.42 0 01-.2-.6c-.209-.6788.1524-1.402.8207-1.6426.6682-.2406 1.4076.0864 1.6793.7426a1.42 1.42 0 01.2.6c.259.6627-.0495 1.4118-.7 1.7h-.6zm1.6 3.6a1.3 1.3 0 01-1.2-.8l-.3-.6c-.2761-.6627.0373-1.4239.7-1.7s1.4239.0373 1.7.7l.3.6a1.25 1.25 0 01-.7 1.7 1.09 1.09 0 01-.5.1zm1.7 3.6a1.52 1.52 0 01-1.2-.7l-.3-.6c-.3314-.6627-.0627-1.4686.6-1.8.6627-.3314 1.4686-.0627 1.8.6l.3.6c.315.6638.0503 1.458-.6 1.8-.2 0-.4.1-.6.1zm1.8 3.4a1.08 1.08 0 01-1.1-.7l-.3-.6a1.321 1.321 0 112.3-1.3l.3.6c.3537.6358.131 1.4377-.5 1.8a.84.84 0 01-.7.2zm2.1 3.4a1.25 1.25 0 01-1.1-.6 2.09 2.09 0 00-.4-.6c-.3866-.6075-.2075-1.4134.4-1.8.6075-.3866 1.4134-.2075 1.8.4a2.19 2.19 0 00.3.5 1.3 1.3 0 01-.4 1.8.71.71 0 01-.6.3zm2.2 3.2a1.61 1.61 0 01-1.1-.5 2.18 2.18 0 00-.4-.5 1.2903 1.2903 0 112.1-1.5 1 1 0 00.4.5 1.28 1.28 0 01-.3 1.8 1.85 1.85 0 01-.7.2zm2.3 3.2a1.23 1.23 0 01-1-.5c-.1-.2-.3-.3-.4-.5-.4418-.5523-.3523-1.3582.2-1.8.5523-.4418 1.3582-.3523 1.8.2.1.2.3.3.4.5a1.27 1.27 0 01-.2 1.8 1.14 1.14 0 01-.8.3zm2.5 3a1.78 1.78 0 01-1-.4c-.1-.2-.3-.3-.4-.5a1.2748 1.2748 0 111.9-1.7c.1.2.3.3.4.5a1.27 1.27 0 01-.1 1.8c-.1.2-.4.3-.8.3zm2.7 2.9a1.09 1.09 0 01-.9-.4l-.5-.5c-.5247-.5247-.5247-1.3753 0-1.9.5247-.5247 1.3753-.5247 1.9 0l.4.5c.5004.5345.5004 1.3655 0 1.9a1.09 1.09 0 01-.9.4zm2.8 2.8a1.22 1.22 0 01-.9-.4l-.5-.5c-.5247-.5247-.5247-1.3753 0-1.9.5247-.5247 1.3753-.5247 1.9 0 .2.1.3.3.5.4a1.5 1.5 0 01.1 1.9 2.11 2.11 0 01-1.1.5zm2.9 2.6a1.61 1.61 0 01-.9-.3c-.2-.1-.3-.3-.5-.4-.5247-.4694-.5694-1.2753-.1-1.8.4694-.5247 1.2753-.5694 1.8-.1.2.1.3.3.5.4a1.25 1.25 0 01-.8 2.2zm3.1 2.5a1.14 1.14 0 01-.8-.3 2.18 2.18 0 01-.5-.4 1.2806 1.2806 0 111.6-2c.2.1.3.3.5.4a1.2 1.2 0 01.2 1.8 1.59 1.59 0 01-1 .5zm3.1 2.3a2.35 2.35 0 01-.8-.2 2.18 2.18 0 01-.5-.4 1.2903 1.2903 0 111.5-2.1 1.76 1.76 0 01.5.4 1.28 1.28 0 01.3 1.8 1.23 1.23 0 01-1 .5zm3.3 2.2a1.85 1.85 0 01-.7-.2 2.09 2.09 0 01-.6-.4 1.3038 1.3038 0 011.4-2.2 2.19 2.19 0 01.5.3 1.3 1.3 0 01.4 1.8 1 1 0 01-1 .7zm3.4 2a1.42 1.42 0 01-.6-.2l-.6-.3c-.6351-.359-.859-1.1649-.5-1.8s1.1649-.859 1.8-.5l.6.3c.631.3623.8537 1.1642.5 1.8a1.42 1.42 0 01-1.2.7zm3.4 1.9a1.27 1.27 0 01-.6-.1l-.6-.3a1.3416 1.3416 0 111.2-2.4l.6.3c.6342.3556.894 1.135.6 1.8a1.39 1.39 0 01-1.2.7zm3.6 1.6a.75.75 0 01-.5-.1l-.6-.3c-.6627-.2761-.9761-1.0373-.7-1.7.2761-.6627 1.0373-.9761 1.7-.7l.6.3a1.28 1.28 0 01.7 1.7 1.3 1.3 0 01-1.2.8zm3.6 1.5a.9.9 0 01-.5-.1 1.42 1.42 0 00-.6-.2 1.3 1.3 0 011-2.4 1.42 1.42 0 00.6.2c.6708.2696 1.0198 1.0113.8 1.7a1.34 1.34 0 01-1.3.8zm3.7 1.4a.6.6 0 01-.4-.1c-.2-.1-.4-.1-.6-.2-.6562-.2717-.9832-1.011-.7426-1.6793.2406-.6683.9638-1.0296 1.6426-.8207.2.1.4.1.6.2a1.26 1.26 0 01.8 1.7 1.42 1.42 0 01-1.3.9zm3.8 1.1h-.3c-.2-.1-.4-.1-.6-.2a1.3 1.3 0 11.7-2.5c.2.1.4.1.6.2a1.28 1.28 0 01.9 1.6 1.42 1.42 0 01-1.3.9zm3.8.9h-.3c-.2 0-.4-.1-.7-.1-.718-.1657-1.1657-.882-1-1.6.1657-.718.882-1.1657 1.6-1 .2 0 .4.1.6.1.7126.1732 1.1566.8836 1 1.6-.0632.6033-.5952 1.0466-1.2 1zm3.9.8h-.2c-.2 0-.4-.1-.7-.1a1.32 1.32 0 11.4-2.6c.2 0 .4.1.6.1.7105.1226 1.1966.7855 1.1 1.5a1.2 1.2 0 01-1.2 1.1zm26.7.1a1.38 1.38 0 01-1.3-1.1c-.0966-.7145.3895-1.3774 1.1-1.5.2 0 .4-.1.6-.1a1.32 1.32 0 01.4 2.6c-.2 0-.4.1-.7.1h-.1zm-22.8.5h-.2c-.2 0-.4-.1-.7-.1a1.32 1.32 0 11.4-2.6c.2 0 .4.1.6.1a1.29 1.29 0 011.1 1.5 1.2 1.2 0 01-1.2 1.1zm18.9 0c-.6807.002-1.2476-.5213-1.3-1.2a1.21 1.21 0 011.2-1.4 1.27 1.27 0 00.6-.1 1.32 1.32 0 01.4 2.6c-.2 0-.4.1-.7.1h-.2zm-15 .3a2.2 2.2 0 01-.8-.1 1.3038 1.3038 0 01.2-2.6h.6c.7137.0636 1.2463.685 1.2 1.4a1.18 1.18 0 01-1.2 1.3zm11.1.1a1.24 1.24 0 01-1.3-1.2 1.4 1.4 0 011.2-1.4h.6c.715-.0463 1.3364.4863 1.4 1.2a1.27 1.27 0 01-1.2 1.4h-.7zm-7.2.1h-.7c-.7456-.0276-1.3276-.6544-1.3-1.4.0276-.7456.6544-1.3276 1.4-1.3h.6c.7135.0107 1.2893.5865 1.3 1.3a1.29 1.29 0 01-1.3 1.4zm3.3 0c-.718 0-1.3-.582-1.3-1.3 0-.718.582-1.3 1.3-1.3h.6c.718 0 1.3.582 1.3 1.3 0 .718-.582 1.3-1.3 1.3h-.6zM102.63 269.6a1.37 1.37 0 01-.3-2.7c24.503-5.547 44.938-22.3576 55.1048-45.3315 10.1668-22.9739 8.867-49.403-3.5048-71.2685a80.43 80.43 0 00-27.3-28.3 1.373 1.373 0 011.5-2.3c20.0545 12.4103 33.8045 32.8445 37.7468 56.0965 3.9423 23.252-2.3038 47.0765-17.1468 65.4035a82.78 82.78 0 01-45.8 28.4h-.3" fill="#46587F"/>
    <path d="M126.53 186.3h-.5a1.351 1.351 0 11.1-2.7c3.3.1 4.9-.8 5.7-1.4-3.9-5.2-7.1-13.7-7.2-14.1a1.33 1.33 0 112.5-.9c0 .1 3.6 9.5 7.5 14.2a1.6 1.6 0 01.2 1.5c-.2.3-2 3.4-8.3 3.4M118.83 211.1a17 17 0 01-2.2-.1c-4.2-.4-10.7-2.4-17-5-4.1-1.7-11.3-5.2-13.8-8.8a4 4 0 01-.9-3.5 1.3342 1.3342 0 012.6.6 1.65 1.65 0 00.5 1.3c3 4.2 19 11.7 28.9 12.7 2.7.3 4.5 0 5.3-.8 1-1.1.6-3.7.1-6.4-.1-.7-.2-1.5-.3-2.2-1-6.9 3.1-10.5 3.3-10.6a1.35 1.35 0 111.8 2c-.1.1-3.1 2.8-2.3 8.2l.3 2.1c.6 3.4 1.1 6.6-.8 8.7-1.2 1.2-3 1.8-5.5 1.8M90.73 175.1a1.24 1.24 0 01-1.3-1.2 1.34 1.34 0 011.2-1.5l3-.4a19.5 19.5 0 01-.4-3.9c0-4.1 1.4-7.5 4.1-9.8 1.2-1 2.3-1.9 3.3-2.7 4-3.3 5.6-4.7 5.7-7.7a1.29 1.29 0 011.4-1.3 1.35 1.35 0 011.3 1.4c-.1 4.3-2.7 6.4-6.7 9.7-1 .8-2 1.7-3.2 2.7-5 4.4-2.5 12.3-2.5 12.4a1.38 1.38 0 01-.1 1.1 1.33 1.33 0 01-1 .6l-4.5.6h-.3M126.83 154.39999999999998a1.15 1.15 0 01-1.1-.6 1.23 1.23 0 01-.1-1.3c.4-.9.3-1.3.2-1.5-.6-1.5-4.5-2.8-7.3-3.7-3.8-1.3-8.3-2.5-11-3.2a25.69 25.69 0 01-3-.9 1.54 1.54 0 01-.5-1.9 1.31 1.31 0 011.7-.5c.3.1 1.3.4 2.4.7 2.7.7 7.3 2 11.2 3.3 4.6 1.5 8 2.8 9 5.3.1.3.2.6.3 1l.2-.2c.9-1.1 1.3-2.9 1.1-5.3-.6-6.8-4.2-9.9-9.5-12.3-.6289-.3388-.8918-1.104-.6041-1.7578.2877-.6539 1.0294-.977 1.7041-.7422 5.1 2.4 10.3 6 11 14.6.3 3.3-.4 5.8-1.9 7.4a5.8 5.8 0 01-3.8 1.6" fill="#46587F"/>
    <path d="M125.23 165.2a1.27 1.27 0 01-.6-.1 1.32 1.32 0 01-.6-1.8c.1-.2 2.2-4.8-2.3-10.8-.4198-.6127-.2881-1.4465.3-1.9.615-.4095 1.4411-.279 1.9.3 5.5 7.4 2.7 13.4 2.5 13.6a1.39 1.39 0 01-1.2.7M121.33 130.2a14.23 14.23 0 01-1.5-.1 1.51 1.51 0 01-1.1-1.6 1.38 1.38 0 011.3-1.1 36 36 0 01-3.9-2.5l-1.2-.9c-4.7-3.7-15.7-12.3-40.4-8.1-.7456.138-1.462-.3544-1.6-1.1-.138-.7456.3544-1.462 1.1-1.6 25.9-4.4 38 5.1 42.5 8.6a7.29 7.29 0 001.1.9 73.24 73.24 0 007.2 4.2 1.55 1.55 0 01.8 1.1 1.31 1.31 0 01-.6 1.2 6.68 6.68 0 01-3.7 1M69.23 116.8h-.7c-.718 0-1.3-.582-1.3-1.3 0-.718.582-1.3 1.3-1.3.5 0 .8 0 .8.1.7105.1226 1.1966.7855 1.1 1.5-.0632.6033-.5952 1.0466-1.2 1m-4.5.6a1.29 1.29 0 01-1.2-.9c-.2198-.6887.1292-1.4304.8-1.7.2-.1.5-.1.7-.2.674-.1497 1.3476.2536 1.5338.9185.1861.665-.18 1.3594-.8338 1.5815-.2.1-.4.1-.6.2a.6.6 0 01-.4.1m-3.6 1.7a1.25 1.25 0 01-1.1-.6 1.3 1.3 0 01.4-1.8 2.09 2.09 0 00.6-.4c.6351-.359 1.441-.1351 1.8.5s.1351 1.441-.5 1.8c-.2.1-.3.2-.5.3a1.45 1.45 0 01-.7.2m-3.1 2.3a1.78 1.78 0 01-1-.4c-.4683-.5622-.4247-1.39.1-1.9.2-.2.4-.3.5-.4.5523-.4418 1.3582-.3523 1.8.2.4418.5523.3523 1.3582-.2 1.8-.2.1-.3.3-.5.4a.78.78 0 01-.7.3m-2.8 2.8a1.61 1.61 0 01-.9-.3 1.27 1.27 0 01-.1-1.8l.5-.5a1.27 1.27 0 011.8-.1c.5295.5077.5732 1.3395.1 1.9-.1.2-.3.3-.4.5a1.69 1.69 0 01-1 .3M51.73 202.5h-.2c-.7401-.1464-1.2283-.8565-1.1-1.6 1.2-7.4-1.7-16.1-5-26.1-2.5-7.5-5.1-15.3-6.4-23.7-1-6.7-.2-12.6 2.4-17.4a20.94 20.94 0 017.3-7.7 10.6 10.6 0 012.4-1.2 1.33 1.33 0 11.9 2.5 11.42 11.42 0 00-1.9 1c-4 2.5-10.5 8.7-8.4 22.4 1.3 8.2 3.8 15.8 6.3 23.3 3.4 10.4 6.4 19.3 5.1 27.4a1.47 1.47 0 01-1.4 1.1M51.43 207.6h-.2c-.7105-.1226-1.1966-.7855-1.1-1.5 0-.2.1-.4.1-.6.0552-.718.682-1.2552 1.4-1.2.718.0552 1.2552.682 1.2 1.4 0 .2-.1.5-.1.7a1.38 1.38 0 01-1.3 1.2m-1.1 3.8a.75.75 0 01-.5-.1 1.28 1.28 0 01-.7-1.7 1.42 1.42 0 00.2-.6c.2761-.6627 1.0373-.9761 1.7-.7.6627.2761.9761 1.0373.7 1.7l-.3.6a1.17 1.17 0 01-1.1.8m-2.1 3.3a1.14 1.14 0 01-.8-.3 1.28 1.28 0 01-.2-1.8 5.2 5.2 0 01.3-.5c.4142-.5799 1.2201-.7142 1.8-.3.5799.4142.7142 1.2201.3 1.8a4.57 4.57 0 00-.4.6 1 1 0 01-1 .5M55.93 199.1a1.42 1.42 0 01-1.3-.9 1.31 1.31 0 01.9-1.7s2.1-.7 4.7-1.6c2.2-.7 4.5-4.7 4.4-13.6 0-9.8.2-15.5 3.9-18.6.5799-.4694 1.4306-.3799 1.9.2.4694.5799.3799 1.4306-.2 1.9-2.7 2.2-3 7-3 16.5 0 12.2-3.9 15.4-6.3 16.2-2.7.9-4.7 1.6-4.7 1.6h-.3M83.53 185.4c-3.7 0-9-6.9-9.7-7.8a14.13 14.13 0 01-2.4-12.3 7.94 7.94 0 014.6-5.4c4.6-1.6 7.5 2.2 8.4 4.4.2719.7179-.085 1.5208-.8 1.8a1.36 1.36 0 01-1.8-.7c-.2-.4-1.8-4-4.9-2.8a5.19 5.19 0 00-2.9 3.6 11.5 11.5 0 001.9 9.9c3.3 4.4 6.3 6.5 7.3 6.7v-.5a1.35 1.35 0 011.3-1.4c.732.0077 1.3382.5706 1.4 1.3 0 2.2-1.1 3-1.8 3.2-.1-.1-.4 0-.6 0" fill="#46587F"/>
    <path d="M80.83 170.2a1.14 1.14 0 01-.8-.3 1.2 1.2 0 01-.2-1.8l.1-.1c.222-.6538.9165-1.02 1.5815-.8338.6649.1862 1.0682.8597.9185 1.5338a4.67 4.67 0 01-.5 1 1.61 1.61 0 01-1.1.5m-3.1 2.4a1.85 1.85 0 01-.7-.2 1.3 1.3 0 01-.4-1.8 2.7 2.7 0 01.7-.8 1.27 1.27 0 011.8.1c.4683.5622.4247 1.39-.1 1.9l-.2.2a1.36 1.36 0 01-1.1.6m.9 3.5a1.28 1.28 0 01-1-.4 3 3 0 01-.5-.7c-.4142-.5799-.2799-1.3858.3-1.8.5799-.4142 1.3858-.2799 1.8.3a1.73 1.73 0 01.3.4 1.27 1.27 0 01-.1 1.8.91.91 0 01-.8.4M88.03 166.3a1.08 1.08 0 01-1.1-.7c-.1-.2-.2-.3-.3-.5-.3866-.6075-.2075-1.4134.4-1.8.6075-.3866 1.4134-.2075 1.8.4.1.2.3.4.4.6.3537.6358.131 1.4377-.5 1.8a2.54 2.54 0 01-.7.2m1.3 3.7c-.6807.002-1.2476-.5213-1.3-1.2a1.75 1.75 0 00-.1-.5c-.1657-.718.282-1.4343 1-1.6.718-.1657 1.4343.282 1.6 1a4.53 4.53 0 01.1.8 1.21 1.21 0 01-1.2 1.4c0 .1 0 .1-.1.1M88.13 238.5a1.52 1.52 0 01-1.2-.7c-.5-.8-.6-1 4.1-8.7 3.8-6.2 9.1-15 10.2-19.2.1958-.7437.9549-1.1901 1.7-1a1.49 1.49 0 011 1.7c-1.2 4.4-6.2 13-10.5 19.9-3.1 5-3.7 6.4-3.9 6.7-.0618.7294-.668 1.2923-1.4 1.3M91.33 266a1.38 1.38 0 01-1.3-1.1c-1.9-10.2-.3-15.1 1.2-17.3-8.2-3.7-20.8-12.9-27.7-21.8-4.161-5.2523-10.7443-7.9764-17.4-7.2a1.32 1.32 0 11-.4-2.6c.5-.1 12.2-1.8 20 8.2 7.5 9.6 21.6 19.1 28.3 21.6a1.29 1.29 0 01.9 1.2 1.46 1.46 0 01-.7 1.3c-.3.2-3.9 3.3-1.5 16.2a1.51 1.51 0 01-1.1 1.6c-.1-.2-.2-.1-.3-.1M25.73 234.5a1.09 1.09 0 01-.9-.4 1.3 1.3 0 01-.1-1.9 83 83 0 0116.9-13.8c.6598-.3563 1.4832-.125 1.861.5227.3779.6477.1739 1.4783-.461 1.8773a84.22 84.22 0 00-16.3 13.3 2.11 2.11 0 01-1 .4" fill="#46587F"/>
    <path d="M58.83 241a1.31 1.31 0 01-1.2-.7 32.56 32.56 0 01-1.9-3.8 30.29 30.29 0 01-1.4-13.7 1.36 1.36 0 112.7.3c0 .1-.9 6.7 1.3 12.4a27.13 27.13 0 001.8 3.4 1.36 1.36 0 01-.5 1.9 3.09 3.09 0 01-.8.2M61.63 245.3a1 1 0 01-.9-.8.89.89 0 01.8-1 24.52 24.52 0 012.7-.2.9.9 0 01.5.1.75.75 0 01.5-.1h.1a21.75 21.75 0 012.6.1 1 1 0 01.8 1 .91.91 0 01-1 .8 20.08 20.08 0 00-2.5-.1h-.1c-.2 0-.3 0-.4-.1a.6.6 0 01-.4.1 21.05 21.05 0 00-2.5.2h-.2m9.5.6h-.2c-.3-.1-.5-.1-.8-.2a.8631.8631 0 01.3-1.7c.3.1.6.1.9.2a.86.86 0 01-.2 1.7m-13 0a1 1 0 01-.9-.7.82.82 0 01.7-1c.3-.1.6-.1.9-.2a.8631.8631 0 11.3 1.7c-.3.1-.6.1-.8.2h-.2m-8.3 2.6a.84.84 0 01-.8-.6.78.78 0 01.5-1.1c.8-.3 1.7-.6 2.5-.9a.45.45 0 01.5 0 1.38 1.38 0 01.4-.3c.9-.3 1.7-.5 2.5-.8a.89.89 0 01.5 1.7c-.8.2-1.6.5-2.5.8-.1 0-.3.1-.4 0a.52.52 0 01-.4.2l-2.4.9a.76.76 0 01-.4.1m-3.2 1.4a.89.89 0 01-.8-.5 1 1 0 01.4-1.2 3 3 0 00.8-.4.78.78 0 011.1.5.91.91 0 01-.5 1.2c-.3.1-.5.2-.8.3a.35.35 0 01-.2.1m32.1.2a1.42 1.42 0 01-.6-.2 15.58 15.58 0 00-2-1.6l-.3-.3a.6.6 0 01-.4-.1c-.7-.4-1.4-.8-2.2-1.2a1.08 1.08 0 01-.5-1.2 1 1 0 011.1-.5 18.34 18.34 0 012.4 1.3l.3.3a.52.52 0 01.4.2 17.33 17.33 0 012.1 1.7.82.82 0 01.1 1.2c.1.3-.2.4-.4.4m-36.9 2a1 1 0 01-.8-.5 1 1 0 01.4-1.2l2.4-1.2a.8944.8944 0 11.8 1.6 25.32 25.32 0 00-2.3 1.2.9.9 0 01-.5.1m39.3.5a.91.91 0 01-.7-.3 1.79 1.79 0 01-.5-.7.8515.8515 0 011.3-1.1c.2.2.4.5.6.7a.91.91 0 01-.1 1.2 1 1 0 01-.6.2m4.2 7.6a.84.84 0 01-.8-.6c-.3-.8-.7-1.6-1-2.3a.6.6 0 01-.1-.4l-.3-.3a15.92 15.92 0 00-1.3-2.2.8746.8746 0 111.5-.9 17.1 17.1 0 011.3 2.3.75.75 0 01.1.5l.3.3c.4.8.7 1.6 1.1 2.5a.78.78 0 01-.5 1.1h-.3M87.83 266.7a1.52 1.52 0 01-1.2-.7c-.6-1.1-1-1.7-1-1.7-.4142-.6351-.2351-1.4858.4-1.9.6351-.4142 1.4858-.2351 1.9.4 0 0 .4.7 1 1.8a1.29 1.29 0 01-.5 1.8.6.6 0 01-.6.3M55.73 136.7a1.09 1.09 0 01-.9-.4c-.7-.6-2.8-3.8-2.6-5.3.1226-.7105.7855-1.1966 1.5-1.1a1.24 1.24 0 011.1 1.4 11.09 11.09 0 001.7 3 1.3 1.3 0 01.1 1.9c-.1.4-.5.5-.9.5zM190.83 187.1h-18.5c-.7732 0-1.4-.6268-1.4-1.4 0-.7732.6268-1.4 1.4-1.4h18.5c.7665.016 1.384.6335 1.4 1.4a1.5 1.5 0 01-1.4 1.4" fill="#46587F"/>
    <path d="M173.33 191.9h-.9a.9.9 0 010-1.8h.9a.9.9 0 010 1.8m8.8 0h-2.6c-.2 0-.3 0-.4-.1a.6.6 0 01-.4.1h-2.6a.9.9 0 010-1.8h2.6c.2 0 .3 0 .4.1a.6.6 0 01.4-.1h2.6a.9.9 0 01.9.9 1.06 1.06 0 01-.9.9m3.4 0h-.9a.9.9 0 010-1.8h.9a.9.9 0 010 1.8m5.3 0h-2.6a.9.9 0 010-1.8h2.6a.9.9 0 010 1.8" fill="#FEC8C2"/>
    <path d="M280.13 191.9h-.9a.9.9 0 010-1.8h.9a.9.9 0 010 1.8m8.7 0h-2.6c-.2 0-.3 0-.4-.1a.6.6 0 01-.4.1h-2.6a.9.9 0 010-1.8h2.6c.2 0 .3 0 .4.1a.6.6 0 01.4-.1h2.6a.9.9 0 010 1.8m3.5 0h-.9a.9.9 0 010-1.8h.9a.9.9 0 010 1.8m5.3 0h-2.6a.9.9 0 010-1.8h2.6a.9.9 0 010 1.8" fill="#B3A2DA"/>
    <path d="M190.83 197.6h-18.5c-.7732 0-1.4-.6268-1.4-1.4 0-.7732.6268-1.4 1.4-1.4h18.5c.7665.016 1.384.6335 1.4 1.4a1.5 1.5 0 01-1.4 1.4M238.53 257.9c-.7135-.0107-1.2893-.5865-1.3-1.3v-18.5c0-.718.582-1.3 1.3-1.3.718 0 1.3.582 1.3 1.3v18.5c-.0107.7135-.5865 1.2893-1.3 1.3" fill="#46587F"/>
    <path d="M243.73 241.6a.9.9 0 01-.9-.9v-2.6a.9.9 0 011.8 0v2.6a.9.9 0 01-.9.9m0 3.5a.9.9 0 01-.9-.9v-.9a.9.9 0 011.8 0v.9a.9.9 0 01-.9.9m0 8.7a.9.9 0 01-.9-.9v-2.6c0-.2 0-.3.1-.4a.6.6 0 01-.1-.4v-2.6a.9.9 0 011.8 0v2.6c0 .2 0 .3-.1.4a.6.6 0 01.1.4v2.6a.9.9 0 01-.9.9m0 3.5a.9.9 0 01-.9-.9v-.8a.9.9 0 011.8 0v.9a.88.88 0 01-.9.8" fill="#66CED8"/>
    <path d="M249.03 257.9c-.7135-.0107-1.2893-.5865-1.3-1.3v-18.5c0-.718.582-1.3 1.3-1.3.718 0 1.3.582 1.3 1.3v18.5c-.0107.7135-.5865 1.2893-1.3 1.3M294.63 187.1h-18.5c-.7732 0-1.4-.6268-1.4-1.4 0-.7732.6268-1.4 1.4-1.4h18.5c.7665.016 1.384.6335 1.4 1.4a1.37 1.37 0 01-1.4 1.4M294.63 197.6h-18.5c-.7732 0-1.4-.6268-1.4-1.4 0-.7732.6268-1.4 1.4-1.4h18.5c.7665.016 1.384.6335 1.4 1.4a1.37 1.37 0 01-1.4 1.4" fill="#46587F"/>
    <g fill="#46587F">
      <path d="M283.5 117.99h-2.7a.9.9 0 010-1.8h2.6a.9.9 0 01.9.9.82.82 0 01-.8.9m3.5 0h-.9a.9.9 0 010-1.8h.9a1.06 1.06 0 01.8.9.88.88 0 01-.8.9m5.2 0h-2.6a.9.9 0 110-1.8h2.6a.9.9 0 110 1.8M351.8 314.89h-2.6a.9.9 0 010-1.8h2.6a.9.9 0 010 1.8m3.5 0h-.9a.9.9 0 010-1.8h.9a.9.9 0 010 1.8m3 0h-.4a.9.9 0 010-1.8h.4a.9.9 0 010 1.8"/>
    </g>
    <g fill="#46587F">
      <path d="M226.21 41.3c-.7135-.0107-1.2893-.5865-1.3-1.3v-.7c0-.718.582-1.3 1.3-1.3.718 0 1.3.582 1.3 1.3v.6a1.34 1.34 0 01-1.3 1.4zm.7 3.9a1.42 1.42 0 01-1.3-.9 1.85 1.85 0 01-.2-.7c-.221-.718.182-1.479.9-1.7.718-.221 1.479.182 1.7.9.1.2.1.4.2.6.2418.69-.1142 1.4465-.8 1.7a.9.9 0 01-.5.1zm1.9 3.5a1.38 1.38 0 01-1.1-.6c-.1-.2-.3-.4-.4-.6-.3881-.6398-.2131-1.471.4-1.9.6415-.378 1.4653-.2045 1.9.4a3.33 3.33 0 00.3.6c.4095.615.279 1.4411-.3 1.9a1.08 1.08 0 01-.8.2zm2.7 3a1.09 1.09 0 01-.9-.4l-.5-.5c-.5247-.5247-.5247-1.3753 0-1.9.5247-.5247 1.3753-.5247 1.9 0 .2.1.3.3.5.4.5247.51.5683 1.3378.1 1.9a1.53 1.53 0 01-1.1.5zm3 2.6a1.14 1.14 0 01-.8-.3l-.5-.4a1.351 1.351 0 111.7-2.1l.5.4a1.31 1.31 0 01.2 1.9 1.27 1.27 0 01-1.1.5zm3.1 2.6a1.22 1.22 0 01-.9-.4c-.2-.1-.3-.3-.5-.4-.4813-.5114-.4901-1.3063-.0203-1.8283.4697-.522 1.2612-.5966 1.8203-.1717l.5.5c.5247.51.5683 1.3378.1 1.9a1.28 1.28 0 01-1 .4zm2.7 3a1.61 1.61 0 01-1.1-.5 1.76 1.76 0 00-.4-.5 1.351 1.351 0 112.1-1.7 2.09 2.09 0 01.4.6c.4095.615.279 1.4411-.3 1.9a1.17 1.17 0 01-.7.2zm1.9 3.5a1.38 1.38 0 01-1.3-.9c-.1-.2-.1-.4-.2-.6-.2347-.6747.0883-1.4164.7422-1.7041.6538-.2877 1.419-.0248 1.7578.6041.1.2.2.5.3.7a1.26 1.26 0 01-.8 1.7.55.55 0 01-.5.2zm.8 3.9c-.7135-.0107-1.2893-.5865-1.3-1.3v-.6a1.36 1.36 0 112.7-.3 1.7 1.7 0 00.1.7 1.61 1.61 0 01-1.5 1.5zm-.3 4h-.3c-.7126-.1732-1.1566-.8836-1-1.6 0-.2.1-.4.1-.6a1.32 1.32 0 012.6.4c0 .2-.1.5-.1.7a1.29 1.29 0 01-1.3 1.1zm-1.4 3.8a1.85 1.85 0 01-.7-.2c-.631-.3623-.8537-1.1642-.5-1.8a2.19 2.19 0 01.3-.5 1.3416 1.3416 0 112.4 1.2l-.3.6a1.52 1.52 0 01-1.2.7zm-2.4 3.1a1.09 1.09 0 01-.9-.4c-.5247-.51-.5683-1.3378-.1-1.9.1-.2.3-.3.4-.5a1.35 1.35 0 112 1.8c-.2.2-.3.4-.5.5a1 1 0 01-.9.5zm-3 2.8a1.23 1.23 0 01-1-.5 1.31 1.31 0 01.2-1.9c.2-.1.3-.3.5-.4a1.35 1.35 0 111.8 2c-.2.1-.3.3-.5.4a1.28 1.28 0 01-1 .4zm-3 2.5a1.23 1.23 0 01-1-.5c-.4732-.5605-.4295-1.3923.1-1.9.2-.1.3-.3.5-.4.5799-.4694 1.4306-.3799 1.9.2.4694.5799.3799 1.4306-.2 1.9-.2.1-.3.3-.5.4a1.14 1.14 0 01-.8.3zm-2.88 2.8a1.61 1.61 0 01-.9-.3 1.3 1.3 0 01-.1-1.9c.2-.2.3-.4.5-.5a1.3435 1.3435 0 111.9 1.9c-.1.2-.3.3-.4.5a1.93 1.93 0 01-1 .3zm-2.3 3.3a1.27 1.27 0 01-.6-.1 1.32 1.32 0 01-.6-1.8l.3-.6c.359-.6351 1.1649-.859 1.8-.5s.859 1.1649.5 1.8a2.19 2.19 0 01-.3.5 1.08 1.08 0 01-1.1.7zm-1.2 3.8h-.2c-.7105-.1226-1.1966-.7855-1.1-1.5 0-.2.1-.5.1-.7a1.3342 1.3342 0 112.6.6c0 .2-.1.4-.1.6a1.3 1.3 0 01-1.3 1zm-.2 4a1.24 1.24 0 01-1.3-1.2 1.7 1.7 0 00-.1-.7 1.351 1.351 0 012.7-.1v.6c.0502.7357-.4712 1.3875-1.2 1.5a.1.1 0 00-.1-.1zm.9 3.9a1.3 1.3 0 01-1.2-.8c-.1-.2-.2-.5-.3-.7-.209-.6788.1524-1.402.8207-1.6426.6682-.2406 1.4076.0864 1.6793.7426.1.2.1.4.2.6a1.36 1.36 0 01-.7 1.8c-.1-.1-.3 0-.5 0zm2.1 3.4a1.23 1.23 0 01-1-.5 2.09 2.09 0 01-.4-.6c-.4418-.6075-.3075-1.4582.3-1.9.6075-.4418 1.4582-.3075 1.9.3a1.76 1.76 0 00.4.5 1.31 1.31 0 01-.2 1.9 2.24 2.24 0 01-1 .3zm2.8 2.9a1.61 1.61 0 01-.9-.3l-.5-.5a1.35 1.35 0 111.8-2c.2.1.3.3.5.4a1.3 1.3 0 01.1 1.9 1.39 1.39 0 01-1 .5zm3.1 2.5a1.61 1.61 0 01-.9-.3l-.5-.4a1.351 1.351 0 011.7-2.1l.5.4a1.31 1.31 0 01.2 1.9 1 1 0 01-1 .5zm3 2.7a1.09 1.09 0 01-.9-.4c-.2-.1-.3-.3-.5-.4-.4813-.5114-.4901-1.3063-.0203-1.8283.4697-.522 1.2612-.5966 1.8203-.1717l.5.5c.5004.5345.5004 1.3655 0 1.9a1 1 0 01-.9.4zm2.6 3.1a1.25 1.25 0 01-1.1-.6c-.1-.2-.2-.3-.3-.5-.4418-.6075-.3075-1.4582.3-1.9.6075-.4418 1.4582-.3075 1.9.3.1.2.3.4.4.6.378.6415.2045 1.4653-.4 1.9a3.09 3.09 0 01-.8.2zm1.7 3.6a1.38 1.38 0 01-1.3-1c-.1-.2-.1-.4-.2-.6a1.33 1.33 0 112.5-.9 1.85 1.85 0 01.2.7c.2038.7163-.193 1.466-.9 1.7a.37.37 0 01-.3.1zm.5 3.9c-.7135-.0107-1.2893-.5865-1.3-1.3v-.6a1.351 1.351 0 112.7-.1v.7a1.35 1.35 0 01-1.4 1.3zm-.5 4h-.4a1.28 1.28 0 01-.9-1.6 1.27 1.27 0 00.1-.6 1.3342 1.3342 0 012.6.6c-.1.2-.1.5-.2.7 0 .5-.6.9-1.2.9zm-1.6 3.6a1.85 1.85 0 01-.7-.2c-.6222-.423-.7989-1.262-.4-1.9.1-.2.2-.3.3-.5.359-.6351 1.1649-.859 1.8-.5s.859 1.1649.5 1.8c-.1.2-.3.4-.4.6a1.27 1.27 0 01-1.1.7zm-2.6 3.1a1.4301 1.4301 0 01-1-.4c-.5004-.5345-.5004-1.3655 0-1.9l.4-.4c.5247-.5247 1.3753-.5247 1.9 0 .5247.5247.5247 1.3753 0 1.9l-.5.5c-.1.2-.4.3-.8.3zm-3 2.7a1.23 1.23 0 01-1-.5 1.31 1.31 0 01.2-1.9l.5-.4c.5799-.4694 1.4306-.3799 1.9.2.4694.5799.3799 1.4306-.2 1.9l-.5.4a1.61 1.61 0 01-.9.3zm-3.1 2.6a1.78 1.78 0 01-1-.4c-.4732-.5605-.4295-1.3923.1-1.9l.5-.5a1.35 1.35 0 111.8 2c-.2.1-.3.3-.5.4a1.09 1.09 0 01-.9.4zm-2.8 2.8a1.14 1.14 0 01-.8-.3 1.31 1.31 0 01-.2-1.9c.2-.2.3-.4.5-.5a1.35 1.35 0 112 1.8c-.1.2-.3.3-.4.5a1.5 1.5 0 01-1.1.4zm-2.1 3.5a.75.75 0 01-.5-.1 1.36 1.36 0 01-.7-1.8c.1-.2.2-.5.3-.7a1.3416 1.3416 0 112.4 1.2 1.69 1.69 0 00-.2.5 1.38 1.38 0 01-1.3.9zm-.9 3.8h-.1c-.7451-.0837-1.2819-.7547-1.2-1.5 0-.2.1-.5.1-.7a1.32 1.32 0 112.6.4c0 .2-.1.4-.1.6a1.38 1.38 0 01-1.3 1.2z"/>
      <path d="M243.03 41.3a1.28 1.28 0 01-1.3-1.4v-.6c0-.718.582-1.3 1.3-1.3.718 0 1.3.582 1.3 1.3v.7c-.0107.7135-.5865 1.2893-1.3 1.3m-.7 3.9a.6.6 0 01-.4-.1 1.26 1.26 0 01-.8-1.7c.1-.2.1-.4.2-.6a1.3601 1.3601 0 112.6.8c-.1.2-.1.5-.2.7a1.84 1.84 0 01-1.4.9m-1.9 3.5a1.33 1.33 0 01-.8-.3 1.38 1.38 0 01-.3-1.8c.1-.2.2-.3.3-.5.423-.6222 1.262-.7989 1.9-.4a1.33 1.33 0 01.4 1.9c-.1.2-.3.4-.4.6a1.29 1.29 0 01-1.1.5m-2.6 3a1.28 1.28 0 01-1-.4 1.3 1.3 0 01.1-1.9c.2-.1.3-.3.5-.4a1.3435 1.3435 0 111.9 1.9l-.5.5a2.24 2.24 0 01-1 .3m-3.1 2.6a1.23 1.23 0 01-1-.5 1.31 1.31 0 01.2-1.9l.5-.4c.5799-.4694 1.4306-.3799 1.9.2.4694.5799.3799 1.4306-.2 1.9l-.5.4a1.61 1.61 0 01-.9.3m-3 2.7a1.28 1.28 0 01-1-.4 1.3 1.3 0 01.1-1.9l.5-.5c.559-.425 1.3506-.3503 1.8203.1717.4698.522.461 1.317-.0203 1.8283-.2.1-.3.3-.5.4a1.8 1.8 0 01-.9.4m-2.8 2.9a1.14 1.14 0 01-.8-.3c-.5881-.4535-.7198-1.2873-.3-1.9.1-.2.3-.4.4-.6a1.351 1.351 0 112.1 1.7c-.1.2-.3.3-.4.5a.92.92 0 01-1 .6m-1.9 3.5a.9.9 0 01-.5-.1 1.3 1.3 0 01-.8-1.7c.1-.2.2-.5.3-.7a1.37 1.37 0 112.5 1.1c-.1.2-.1.4-.2.6a1.34 1.34 0 01-1.3.8m-.7 3.9a1.28 1.28 0 01-1.3-1.4 1.7 1.7 0 01.1-.7c.1159-.7154.7724-1.2143 1.4927-1.1343.7203.08 1.2513.7109 1.2073 1.4343v.6a1.59 1.59 0 01-1.5 1.2m.3 4a1.29 1.29 0 01-1.3-1.1 1.7 1.7 0 01-.1-.7 1.32 1.32 0 112.6-.4c0 .2.1.4.1.6.1566.7164-.2874 1.4268-1 1.6h-.3m1.4 3.8a1.31 1.31 0 01-1.2-.7l-.3-.6c-.3314-.6627-.0627-1.4686.6-1.8.6627-.3314 1.4686-.0627 1.8.6a2.19 2.19 0 00.3.5 1.31 1.31 0 01-.5 1.8 2.54 2.54 0 01-.7.2m2.4 3.2a1.28 1.28 0 01-1-.4l-.5-.5c-.425-.559-.3503-1.3506.1717-1.8203.522-.4698 1.317-.461 1.8283.0203.1.2.3.3.4.5.5004.5345.5004 1.3655 0 1.9a2.39 2.39 0 01-.9.3m3 2.7a1.61 1.61 0 01-.9-.3c-.2-.1-.3-.3-.5-.4-.4813-.5114-.4901-1.3063-.0203-1.8283.4697-.522 1.2612-.5966 1.8203-.1717.2.1.3.3.5.4.5556.4824.643 1.3125.2 1.9a3 3 0 01-1.1.4m3 2.5a1.61 1.61 0 01-.9-.3c-.2-.1-.3-.3-.5-.4a1.351 1.351 0 111.7-2.1c.2.1.3.3.5.4a1.3 1.3 0 01.1 1.9c-.1.4-.5.5-.9.5m2.9 2.8a1.78 1.78 0 01-1-.4c-.1-.2-.3-.3-.4-.5a1.3435 1.3435 0 111.9-1.9l.5.5c.4732.5605.4295 1.3923-.1 1.9a1 1 0 01-.9.4m2.3 3.3a1.39 1.39 0 01-1.2-.7 2.19 2.19 0 00-.3-.5 1.321 1.321 0 112.3-1.3l.3.6a1.32 1.32 0 01-.6 1.8.75.75 0 01-.5.1m1.3 3.8a1.38 1.38 0 01-1.3-1.1c0-.2-.1-.4-.1-.6a1.3342 1.3342 0 112.6-.6 1.7 1.7 0 01.1.7c.0966.7145-.3895 1.3774-1.1 1.5a.31.31 0 01-.2.1m0 4h-.1c-.7451-.0837-1.2819-.7547-1.2-1.5v-.6a1.351 1.351 0 012.7.1 1.7 1.7 0 01-.1.7c-.0107.7135-.5865 1.2893-1.3 1.3m-.9 3.8a.9.9 0 01-.5-.1 1.36 1.36 0 01-.7-1.8c.1-.2.1-.4.2-.6.2717-.6562 1.011-.9832 1.6793-.7426.6683.2406 1.0296.9638.8207 1.6426-.1.2-.2.5-.3.7a1.26 1.26 0 01-1.2.9m-2.1 3.5a1.14 1.14 0 01-.8-.3 1.31 1.31 0 01-.2-1.9c.1-.2.3-.3.4-.5a1.3601 1.3601 0 112.2 1.6c-.1.2-.3.4-.4.6a2.08 2.08 0 01-1.2.5m-2.8 2.9a1.78 1.78 0 01-1-.4c-.4732-.5605-.4295-1.3923.1-1.9.2-.1.3-.3.5-.4a1.35 1.35 0 111.8 2l-.5.5a6.37 6.37 0 01-.9.2m-3 2.5a1.23 1.23 0 01-1-.5 1.31 1.31 0 01.2-1.9l.5-.4a1.351 1.351 0 011.7 2.1l-.6.4a1.14 1.14 0 01-.8.3m-3 2.7a1.43 1.43 0 01-1-.4c-.5004-.5345-.5004-1.3655 0-1.9l.5-.5c.559-.425 1.3506-.3503 1.8203.1717.4698.522.461 1.317-.0203 1.8283-.2.1-.3.3-.5.4a.91.91 0 01-.8.4m-2.6 3.1a1.45 1.45 0 01-.7-.2c-.6222-.423-.7989-1.262-.4-1.9.1-.2.3-.4.4-.6a1.3601 1.3601 0 012.2 1.6c-.1.2-.2.3-.3.5a1.73 1.73 0 01-1.2.6m-1.7 3.6a.76.76 0 01-.4-.1 1.35 1.35 0 01-.9-1.7c.1-.2.1-.5.2-.7.2717-.6562 1.011-.9832 1.6793-.7426.6683.2406 1.0296.9638.8207 1.6426-.1.2-.1.4-.2.6a1.19 1.19 0 01-1.2 1m-.6 4c-.7135-.0107-1.2893-.5865-1.3-1.3v-.7a1.35 1.35 0 011.4-1.3c.7294.0618 1.2923.668 1.3 1.4v.6a1.35 1.35 0 01-1.4 1.3m.6 3.9a1.38 1.38 0 01-1.3-1c-.1-.2-.1-.5-.2-.7a1.3342 1.3342 0 112.6-.6c0 .2.1.4.1.6.2038.7163-.193 1.466-.9 1.7h-.3m1.6 3.7a1.25 1.25 0 01-1.1-.6c-.1-.2-.3-.4-.4-.6-.359-.6351-.1351-1.441.5-1.8s1.441-.1351 1.8.5c.1.2.2.3.3.5.3881.6398.2131 1.471-.4 1.9-.2 0-.4.1-.7.1m2.6 3a1.09 1.09 0 01-.9-.4l-.5-.5c-.5247-.5247-.5247-1.3753 0-1.9.5247-.5247 1.3753-.5247 1.9 0 .1.2.3.3.4.5.5004.5345.5004 1.3655 0 1.9a1.09 1.09 0 01-.9.4m3 2.7a1.14 1.14 0 01-.8-.3c-.2-.1-.3-.3-.5-.4-.5799-.4694-.6694-1.3201-.2-1.9.4694-.5799 1.3201-.6694 1.9-.2.2.1.3.3.5.4a1.31 1.31 0 01.2 1.9 1.61 1.61 0 01-1.1.5m3.1 2.6a1.61 1.61 0 01-.9-.3c-.2-.1-.3-.3-.5-.4a1.35 1.35 0 111.8-2l.5.5a1.3 1.3 0 01.1 1.9 3.81 3.81 0 01-1 .3m2.8 2.8a1.23 1.23 0 01-1-.5c-.1-.2-.3-.3-.4-.5-.425-.559-.3503-1.3506.1717-1.8203.522-.4698 1.317-.461 1.8283.0203.2.2.3.4.5.5a1.31 1.31 0 01-.2 1.9 1.22 1.22 0 01-.9.4m2.1 3.4a1.3 1.3 0 01-1.2-.8 2.19 2.19 0 00-.3-.5c-.3314-.6627-.0627-1.4686.6-1.8.6627-.3314 1.4686-.0627 1.8.6a4.88 4.88 0 01.3.7 1.36 1.36 0 01-.7 1.8h-.5m1 3.9a1.24 1.24 0 01-1.3-1.2 1.27 1.27 0 00-.1-.6 1.32 1.32 0 112.6-.4c0 .2.1.5.1.7.0502.7357-.4712 1.3875-1.2 1.5h-.1"/>
    </g>
  </g>
</svg>
