<svg width="319" height="277" viewBox="0 0 319 277" xmlns="http://www.w3.org/2000/svg" xmlns:xlink="http://www.w3.org/1999/xlink">
  <defs>
    <path d="M38.3584 6.1988c-.7353-.0036-1.3445-.0063-1.804-.0036l-2.0276.0162c-4.2452.0341-21.0711.8493-34.0582-3.178V122.232h74.5288L77.5188 3.0306 76.387.0566C64.5597 6.259 45.489 6.2284 38.3584 6.1988" id="a"/>
    <path d="M38.3584 6.1988c-.7353-.0036-1.3445-.0063-1.804-.0036l-2.0276.0162c-4.2452.0341-21.0711.8493-34.0582-3.178V122.232h74.5288L77.5188 3.0306 76.387.0566C64.5597 6.259 45.489 6.2284 38.3584 6.1988" id="c"/>
    <path d="M38.3584 6.1988c-.7353-.0036-1.3445-.0063-1.804-.0036l-2.0276.0162c-4.2452.0341-21.0711.8493-34.0582-3.178V122.232h74.5288L77.5188 3.0306 76.387.0566C64.5597 6.259 45.489 6.2284 38.3584 6.1988" id="e"/>
    <path d="M38.3584 6.1988c-.7353-.0036-1.3445-.0063-1.804-.0036l-2.0276.0162c-4.2452.0341-21.0711.8493-34.0582-3.178V122.232h74.5288L77.5188 3.0306 76.387.0566C64.5597 6.259 45.489 6.2284 38.3584 6.1988" id="g"/>
    <path d="M38.3584 6.1988c-.7353-.0036-1.3445-.0063-1.804-.0036l-2.0276.0162c-4.2452.0341-21.0711.8493-34.0582-3.178V122.232h74.5288L77.5188 3.0306 76.387.0566C64.5597 6.259 45.489 6.2284 38.3584 6.1988" id="i"/>
    <path d="M38.3584 6.1988c-.7353-.0036-1.3445-.0063-1.804-.0036l-2.0276.0162c-4.2452.0341-21.0711.8493-34.0582-3.178V122.232h74.5288L77.5188 3.0306 76.387.0566C64.5597 6.259 45.489 6.2284 38.3584 6.1988" id="k"/>
    <path d="M38.3584 6.1988c-.7353-.0036-1.3445-.0063-1.804-.0036l-2.0276.0162c-4.2452.0341-21.0711.8493-34.0582-3.178V122.232h74.5288L77.5188 3.0306 76.387.0566C64.5597 6.259 45.489 6.2284 38.3584 6.1988" id="m"/>
    <path d="M38.3584 6.1988c-.7353-.0036-1.3445-.0063-1.804-.0036l-2.0276.0162c-4.2452.0341-21.0711.8493-34.0582-3.178V122.232h74.5288L77.5188 3.0306 76.387.0566C64.5597 6.259 45.489 6.2284 38.3584 6.1988" id="o"/>
    <path d="M38.3584 6.1988c-.7353-.0036-1.3445-.0063-1.804-.0036l-2.0276.0162c-4.2452.0341-21.0711.8493-34.0582-3.178V122.232h74.5288L77.5188 3.0306 76.387.0566C64.5597 6.259 45.489 6.2284 38.3584 6.1988" id="q"/>
    <path d="M38.3584 6.1988c-.7353-.0036-1.3445-.0063-1.804-.0036l-2.0276.0162c-4.2452.0341-21.0711.8493-34.0582-3.178V122.232h74.5288L77.5188 3.0306 76.387.0566C64.5597 6.259 45.489 6.2284 38.3584 6.1988" id="s"/>
    <path d="M38.3584 6.1988c-.7353-.0036-1.3445-.0063-1.804-.0036l-2.0276.0162c-4.2452.0341-21.0711.8493-34.0582-3.178V122.232h74.5288L77.5188 3.0306 76.387.0566C64.5597 6.259 45.489 6.2284 38.3584 6.1988" id="u"/>
    <path d="M38.3584 6.1988c-.7353-.0036-1.3445-.0063-1.804-.0036l-2.0276.0162c-4.2452.0341-21.0711.8493-34.0582-3.178V122.232h74.5288L77.5188 3.0306 76.387.0566C64.5597 6.259 45.489 6.2284 38.3584 6.1988" id="w"/>
    <path d="M38.3584 6.1988c-.7353-.0036-1.3445-.0063-1.804-.0036l-2.0276.0162c-4.2452.0341-21.0711.8493-34.0582-3.178V122.232h74.5288L77.5188 3.0306 76.387.0566C64.5597 6.259 45.489 6.2284 38.3584 6.1988" id="y"/>
    <path d="M38.3584 6.1988c-.7353-.0036-1.3445-.0063-1.804-.0036l-2.0276.0162c-4.2452.0341-21.0711.8493-34.0582-3.178V122.232h74.5288L77.5188 3.0306 76.387.0566C64.5597 6.259 45.489 6.2284 38.3584 6.1988" id="A"/>
    <path d="M38.3584 6.1988c-.7353-.0036-1.3445-.0063-1.804-.0036l-2.0276.0162c-4.2452.0341-21.0711.8493-34.0582-3.178V122.232h74.5288L77.5188 3.0306 76.387.0566C64.5597 6.259 45.489 6.2284 38.3584 6.1988" id="C"/>
    <path d="M38.3584 6.1988c-.7353-.0036-1.3445-.0063-1.804-.0036l-2.0276.0162c-4.2452.0341-21.0711.8493-34.0582-3.178V122.232h74.5288L77.5188 3.0306 76.387.0566C64.5597 6.259 45.489 6.2284 38.3584 6.1988" id="E"/>
    <path d="M38.3584 6.1988c-.7353-.0036-1.3445-.0063-1.804-.0036l-2.0276.0162c-4.2452.0341-21.0711.8493-34.0582-3.178V122.232h74.5288L77.5188 3.0306 76.387.0566C64.5597 6.259 45.489 6.2284 38.3584 6.1988" id="G"/>
    <path d="M38.3584 6.1988c-.7353-.0036-1.3445-.0063-1.804-.0036l-2.0276.0162c-4.2452.0341-21.0711.8493-34.0582-3.178V122.232h74.5288L77.5188 3.0306 76.387.0566C64.5597 6.259 45.489 6.2284 38.3584 6.1988" id="I"/>
    <path d="M38.3584 6.1988c-.7353-.0036-1.3445-.0063-1.804-.0036l-2.0276.0162c-4.2452.0341-21.0711.8493-34.0582-3.178V122.232h74.5288L77.5188 3.0306 76.387.0566C64.5597 6.259 45.489 6.2284 38.3584 6.1988" id="K"/>
  </defs>
  <g fill="none" fill-rule="evenodd">
    <path d="M308.2619 33.6727c20.3105 15.9216 19.1111 170.618-73.6485 199.7542C108.887 272.917 32.008 298.282 5.4245 198.2456-5.836 155.8787-6.9759 128.6192 77.4555 62.7532c74.6387-58.2293 153.5408-89.6456 230.8064-29.0805" fill="#F8FAFD"/>
    <g transform="translate(127.0593 240.9401)">
      <mask id="b" fill="#fff">
        <use xlink:href="#a"/>
      </mask>
      <path d="M8.7576-55.8128v81.4956c0 3.8566 3.1639 7.0121 7.0297 7.0121h45.1773c3.8658 0 7.0288-3.1555 7.0288-7.0121v-85.4681c0-3.8566-3.163-7.0122-7.0288-7.0122H15.7873c-3.8658 0-7.0297 3.1556-7.0297 7.0122" fill="#D3CBE6" mask="url(#b)"/>
    </g>
    <g transform="translate(127.0593 240.9401)">
      <mask id="d" fill="#fff">
        <use xlink:href="#c"/>
      </mask>
      <path d="M20.6448 16.5374c0-2.0124-1.6356-3.6436-3.654-3.6436-2.0168 0-3.6524 1.6312-3.6524 3.6436 0 2.0123 1.6356 3.6436 3.6523 3.6436 2.0185 0 3.6541-1.6313 3.6541-3.6436" fill="#F9FAFC" mask="url(#d)"/>
    </g>
    <g transform="translate(127.0593 240.9401)">
      <mask id="f" fill="#fff">
        <use xlink:href="#e"/>
      </mask>
      <path d="M19.3415 22.7002c0-2.0123-1.6347-3.6436-3.6532-3.6436-2.0176 0-3.6523 1.6313-3.6523 3.6436s1.6347 3.6436 3.6523 3.6436c2.0185 0 3.6532-1.6313 3.6532-3.6436" fill="#F9FAFC" mask="url(#f)"/>
    </g>
    <g transform="translate(127.0593 240.9401)">
      <mask id="h" fill="#fff">
        <use xlink:href="#g"/>
      </mask>
      <path d="M6.004 2.0146v25.8062c0 3.8566 3.164 7.0122 7.0307 7.0122H58.211c3.8668 0 7.0288-3.1556 7.0288-7.0122v-85.468c0-3.8567-3.162-7.0122-7.0288-7.0122H13.0347c-3.8668 0-7.0307 3.1555-7.0307 7.0121" stroke="#46587F" stroke-width="2.4228" stroke-linecap="round" stroke-linejoin="round" mask="url(#h)"/>
    </g>
    <g transform="translate(127.0593 240.9401)">
      <mask id="j" fill="#fff">
        <use xlink:href="#i"/>
      </mask>
      <path stroke="#46587F" stroke-width="2.0673" stroke-linecap="round" stroke-linejoin="round" stroke-dasharray=".6165 2.5839" mask="url(#j)" d="M6.004-53.6747v52.0241"/>
    </g>
    <g transform="translate(127.0593 240.9401)">
      <mask id="l" fill="#fff">
        <use xlink:href="#k"/>
      </mask>
      <path stroke="#46587F" stroke-width="1.0584" stroke-linecap="round" stroke-linejoin="round" stroke-dasharray="1.5876 1.5876 .5292" mask="url(#l)" d="M11.8544-58.4564v21.6378"/>
    </g>
    <g transform="translate(127.0593 240.9401)">
      <mask id="n" fill="#fff">
        <use xlink:href="#m"/>
      </mask>
      <path stroke="#46587F" stroke-width="1.0584" stroke-linecap="round" stroke-linejoin="round" stroke-dasharray="1.5876 1.5876 .5292" mask="url(#n)" d="M54.2101-58.4564v21.6378"/>
    </g>
    <g transform="translate(127.0593 240.9401)">
      <mask id="p" fill="#fff">
        <use xlink:href="#o"/>
      </mask>
      <path stroke="#46587F" stroke-width="1.0584" stroke-linecap="round" stroke-linejoin="round" stroke-dasharray="1.5876 1.5876 .5292" mask="url(#p)" d="M14.8218-58.3748v14.2014"/>
    </g>
    <g transform="translate(127.0593 240.9401)">
      <mask id="r" fill="#fff">
        <use xlink:href="#q"/>
      </mask>
      <path d="M12.605 22.8494c0 1.9297 1.5689 3.4944 3.5045 3.4944 1.9338 0 3.5027-1.5647 3.5027-3.4944" stroke="#46587F" stroke-width="2.0673" stroke-linecap="round" stroke-linejoin="round" stroke-dasharray=".6165 2.5839" mask="url(#r)"/>
    </g>
    <g transform="translate(127.0593 240.9401)">
      <mask id="t" fill="#fff">
        <use xlink:href="#s"/>
      </mask>
      <path d="M16.1092 13.881c-1.9347 0-3.5045 1.5648-3.5045 3.4945 0 1.9296 1.5698 3.4944 3.5045 3.4944 1.9339 0 3.5036-1.5648 3.5036-3.4944" stroke="#46587F" stroke-width="2.4228" stroke-linecap="round" stroke-linejoin="round" mask="url(#t)"/>
    </g>
    <g transform="translate(127.0593 240.9401)">
      <mask id="v" fill="#fff">
        <use xlink:href="#u"/>
      </mask>
      <path d="M33.279-50.1389h-8.6562c-.2775 0-.5046.2265-.5046.5033v10.9236c0 .2768.227.5033.5046.5033h8.6563c.2784 0 .5055-.2265.5055-.5033v-10.9236c0-.2768-.227-.5033-.5055-.5033" fill="#F9FAFC" mask="url(#v)"/>
    </g>
    <g transform="translate(127.0593 240.9401)">
      <mask id="x" fill="#fff">
        <use xlink:href="#w"/>
      </mask>
      <path d="M32.2934-42.907v-7.707c0-.2768-.227-.5033-.5046-.5033h-8.6563c-.2784 0-.5046.2265-.5046.5033v10.9245c0 .2768.2262.5033.5046.5033h8.6563c.2775 0 .5046-.2265.5046-.5033" stroke="#46587F" stroke-width="2.4228" stroke-linecap="round" stroke-linejoin="round" mask="url(#x)"/>
    </g>
    <g transform="translate(127.0593 240.9401)">
      <mask id="z" fill="#fff">
        <use xlink:href="#y"/>
      </mask>
      <path stroke="#46587F" stroke-width="2.4228" stroke-linecap="round" stroke-linejoin="round" mask="url(#z)" d="M25.6538-46.5723h1.9834v2.6486h1.2102"/>
    </g>
    <g transform="translate(127.0593 240.9401)">
      <mask id="B" fill="#fff">
        <use xlink:href="#A"/>
      </mask>
      <path d="M25.9733-35.3184c.3947.542.9975.8915 1.6725.8996.675.009 1.2769-.3262 1.6707-.8565" stroke="#46587F" stroke-width="2.4228" stroke-linecap="round" stroke-linejoin="round" mask="url(#B)"/>
    </g>
    <g transform="translate(127.0593 240.9401)">
      <mask id="D" fill="#fff">
        <use xlink:href="#C"/>
      </mask>
      <path d="M24.2545-32.2021c.957.7621 2.1285 1.216 3.3919 1.2286 1.2706.0135 2.4448-.4215 3.399-1.1693" stroke="#46587F" stroke-width="2.4228" stroke-linecap="round" stroke-linejoin="round" mask="url(#D)"/>
    </g>
    <g transform="translate(127.0593 240.9401)">
      <mask id="F" fill="#fff">
        <use xlink:href="#E"/>
      </mask>
      <path stroke="#46587F" stroke-width="2.0673" stroke-linecap="round" stroke-linejoin="round" stroke-dasharray=".6165 2.5839" mask="url(#F)" d="M43.0798-56.3016v16.2685"/>
    </g>
    <g transform="translate(127.0593 240.9401)">
      <mask id="H" fill="#fff">
        <use xlink:href="#G"/>
      </mask>
      <path stroke="#46587F" stroke-width="2.0673" stroke-linecap="round" stroke-linejoin="round" stroke-dasharray=".6165 2.5839" mask="url(#H)" d="M43.0798-34.7844v16.2686"/>
    </g>
    <g transform="translate(127.0593 240.9401)">
      <mask id="J" fill="#fff">
        <use xlink:href="#I"/>
      </mask>
      <path stroke="#46587F" stroke-width="2.0673" stroke-linecap="round" stroke-linejoin="round" stroke-dasharray=".6165 2.5839" mask="url(#J)" d="M43.0798-13.2667V3.0019"/>
    </g>
    <g transform="translate(127.0593 240.9401)">
      <mask id="L" fill="#fff">
        <use xlink:href="#K"/>
      </mask>
      <path stroke="#46587F" stroke-width="2.0673" stroke-linecap="round" stroke-linejoin="round" stroke-dasharray=".6165 2.5839" mask="url(#L)" d="M43.0798 8.2506v16.2685"/>
    </g>
    <g>
      <path d="M208.6342 42.368h-7.4028c-5.1454 16.1976-17.2089 29.84-31.1872 39.783-6.3475 4.5154-13.1258 8.3945-19.9889 12.084-9.4339 5.0717-19.1454 9.836-29.5408 12.4343l-.2811-.8017v2.9902c0 .2769.227.5033.5046.5033h87.8962c.2784 0 .5055-.2264.5055-.5033V42.8714c0-.2768-.227-.5033-.5055-.5033" fill="#FFCBC4"/>
      <path d="M129.8029 219.8834c4.9995-.0404 9.9998-.08 14.9993-.1205 1.7257-.0134 3.2225 1.5064 3.326 3.3785.1091 1.9162.219 3.8315.329 5.7476.1036 1.8713-1.1679 3.4145-2.826 3.427l-10.6432.0863-3.819.0307c-1.6572.0134-3.1972-1.5074-3.4198-3.3786-.2262-1.9144-.4514-3.8287-.6767-5.744l2.7304-3.427z" fill="#F5A3AC"/>
      <path d="M170.0194 219.5613l2.7512-.0217c1.7256-.0143 3.0999 1.5074 3.0548 3.3804l-.127 5.7503c-.0451 1.873-1.4383 3.417-3.0963 3.4297-4.821.0386-9.643.0782-14.464.1169-1.6572.0125-3.0747-1.5091-3.1504-3.3812l-.219-5.7468c-.0739-1.873 1.276-3.4153 3.0017-3.4296l5.2779-.0423" fill="#FFCFB3"/>
      <path d="M202.9406 228.4515c-.1938 1.8748-1.7086 3.419-3.3657 3.4324L185.109 232c-1.6571.0134-2.953-1.509-2.879-3.3821.0783-1.917.1576-3.8341.237-5.7512.0738-1.873 1.5472-3.418 3.272-3.4315 5.0003-.0395 10.0007-.08 15.001-.1205 1.7257-.0134 2.9792 1.5091 2.7854 3.384" fill="#66C2CC"/>
      <path d="M122.5983 185.3117c-.2235-1.8712 1.157-3.4144 3.0683-3.4297 5.5402-.044 11.0794-.089 16.6205-.1322 1.9113-.0152 3.5603 1.5028 3.664 3.3758.1099 1.9153.219 3.8306.3289 5.7467.1045 1.8722-1.3202 3.4154-3.162 3.4306-5.3627.0423-10.7235.0854-16.0844.1278-1.8437.0151-3.535-1.5038-3.7586-3.375-.072-.6058-.091-.7658-.1342-1.137M154.6175 193.211c-.6326-.612-1.0435-1.4605-1.0814-2.397l-.219-5.7476c-.0747-1.8721 1.4275-3.4162 3.3397-3.4315 5.5392-.044 11.0793-.089 16.6195-.1322 1.9113-.0152 3.4396 1.5046 3.3946 3.3777-.0424 1.917-.0848 3.8341-.128 5.7503-.0442 1.873-1.5905 3.418-3.4333 3.4324M200.1985 181.288l4.0704-.0326c1.9113-.0151 3.317 1.5056 3.1233 3.3804-.1947 1.918-.3893 3.836-.584 5.753-.1946 1.8748-1.8608 3.4207-3.7045 3.435-5.3626.0432-10.7244.0855-16.086.1287-1.8447.0143-3.2919-1.5055-3.218-3.3794.0793-1.9171.1586-3.8342.236-5.7512.0749-1.874 1.6996-3.419 3.611-3.4342 1.4715-.0117 4.9345-.0387 6.406-.0504M135.7034 156.3278c-4.2686.0342-8.5391.0684-12.8077.1016-2.0303.0162-3.874-1.501-4.0975-3.373-.2262-1.9144-.4515-3.8288-.6776-5.7432-.2235-1.8712 1.3093-3.4162 3.408-3.4333l18.2398-.1447c2.0978-.0161 3.8983 1.5019 4.0028 3.374l.3298 5.7467c.1046 1.8721-1.4715 3.4162-3.5008 3.4333M160.5918 143.5704c4.649-.0368 8.54-.0683 13.188-.1051 2.0979-.0162 3.7776 1.5027 3.7325 3.3757l-.046 2.1175a4780.841 4780.841 0 00-.0801 3.6328c-.045 1.873-1.742 3.419-3.7722 3.4351-5.9024.0467-11.803.0935-17.7054.1411-2.0302.0162-3.7514-1.5027-3.827-3.3749-.073-1.9161-.146-3.8323-.22-5.7476-.0747-1.873 1.5797-3.418 3.6776-3.435l5.0526-.0396zM185.4838 149.6762c.0406-.9662.0802-1.9324.1199-2.8994.073-1.873 1.8509-3.4198 3.9487-3.436 6.08-.0495 12.1608-.097 18.2416-.1456 2.097-.0162 3.655 1.5036 3.463 3.3775-.1955 1.9189-.3902 3.836-.5848 5.754-.1937 1.8748-2.0122 3.4206-4.0425 3.4368l-17.7072.1412c-1.2679.0098-2.369-.5798-2.998-1.4804M141.8591 175.2958l-16.8944.135c-1.9365.0151-3.7036-1.5038-3.928-3.3741-.2253-1.9153-.4506-3.8297-.6767-5.745-.2226-1.8703 1.2336-3.4143 3.2377-3.4305 5.8105-.0458 11.62-.0926 17.4297-.1384 2.005-.0162 3.7307 1.5018 3.8343 3.3748.11 1.9153.2199 3.8306.3289 5.7468M173.5289 162.484c2.005-.0162 3.6072 1.5037 3.563 3.3767l-.127 5.7503c-.0442 1.874-1.6662 3.418-3.6036 3.4342-5.6312.044-11.2633.0899-16.8953.134-1.9365.0152-3.582-1.5037-3.6568-3.3759-.073-1.9161-.146-3.8314-.2199-5.7476-.0748-1.8721 1.504-3.417 3.509-3.4333l11.183-.089M209.163 167.1928a6508.8133 6508.8133 0 01-.4226 4.165c-.1937 1.8747-1.9365 3.4206-3.874 3.4368l-16.8961.134c-1.9365.0152-3.4603-1.5046-3.3864-3.3785.0793-1.9171.1567-3.8333.236-5.7512.0748-1.873 1.7753-3.418 3.7803-3.4351 5.8105-.0459 11.62-.0926 17.4305-.1384M147.0397 204.1335c.11 1.9162.2199 3.8315.329 5.7467.1045 1.873-1.2436 3.4154-2.9936 3.4297-5.0914.0405-10.1828.081-15.2733.1224-1.7518.0133-3.3666-1.5065-3.59-3.3777-.2254-1.9144-.4506-3.8287-.6768-5.7431-.2226-1.8721 1.0822-3.4144 2.9007-3.4288l15.8085-.1267M154.9422 211.8042a3.6393 3.6393 0 01-.6795-1.979c-.073-1.9153-.1469-3.8315-.2199-5.7477-.0747-1.872 1.3526-3.4153 3.1711-3.4305 5.2698-.0414 10.5396-.0836 15.8094-.126 1.8185-.0151 3.2702 1.5065 3.226 3.3795-.0432 1.9162-.0855 3.8332-.1279 5.7503-.046 1.873-1.5148 3.4162-3.2648 3.4306-3.0971.0251-10.1755.08-13.2727.1051M204.7366 201.2674c.5362.613.8192 1.4623.7227 2.3997-.1946 1.918-.3902 3.835-.5848 5.753-.1937 1.8748-1.7842 3.4189-3.536 3.4342-5.0914.0404-10.1828.0808-15.275.1214-1.751.0143-3.1225-1.5073-3.0477-3.3804.0775-1.917.1568-3.8341.236-5.7512.047-1.162.6606-2.1983 1.5536-2.8203" fill="#FFF"/>
      <path d="M104.5044 74.517c-.6443-18.4365-1.0534-32.584-1.0913-37.8174-.1478-20.2268 2.361-23.785 11.7228-26.3815 9.361-2.5965 22.2805-3.9555 22.2805-3.9555l5.8528 2.992 6.2295-.044" stroke="#46587F" stroke-width="2.4228" stroke-linecap="round" stroke-linejoin="round"/>
      <path d="M108.3395 166.7308c-1.4012-28.4774-2.7259-61.188-3.6487-86.9502" stroke="#46587F" stroke-width="2.0673" stroke-linecap="round" stroke-linejoin="round" stroke-dasharray=".6165 2.5839"/>
      <path d="M204.3802 240.9965c-13.0465 6.8414-34.907 6.1-39.8317 6.1395l-2.0285.0161c-4.246.0333-21.071.8485-34.0582-3.178-7.948-2.4653-14.4604-6.7434-15.7706-14.125l-.0072-.035c-1.194-6.7552-2.6602-29.6809-4.0695-57.575" stroke="#46587F" stroke-width="2.4228" stroke-linecap="round" stroke-linejoin="round"/>
      <path d="M215.7764 207.235c-.5533 10.5388-1.121 18.3167-1.6824 21.8058-.7245 4.4938-3.3838 7.875-7.1316 10.4175" stroke="#46587F" stroke-width="2.0673" stroke-linecap="round" stroke-linejoin="round" stroke-dasharray=".6165 2.5839"/>
      <path d="M220.3982 40.4398c-.164 25.6193-2.1528 116.9096-4.4417 163.2391M201.6768 8.1637c2.2547.4188 4.5147.8996 6.6008 1.4443 9.4006 2.4536 11.9643 5.9732 12.1256 26.1999" stroke="#46587F" stroke-width="2.4228" stroke-linecap="round" stroke-linejoin="round"/>
      <path d="M153.5552 9.2796l26.577-.2058 5.807-3.081s5.651.5078 12.1976 1.5593" stroke="#46587F" stroke-width="2.0673" stroke-linecap="round" stroke-linejoin="round" stroke-dasharray=".6165 2.5839"/>
      <path stroke="#46587F" stroke-width="2.4228" stroke-linecap="round" stroke-linejoin="round" d="M145.3254 41.2942l-27.2258.2328.0586 7.5532"/>
      <path stroke="#46587F" stroke-width="2.0673" stroke-linecap="round" stroke-linejoin="round" stroke-dasharray=".6165 2.5839" d="M185.4398 40.9922l-35.7406.2841"/>
      <path stroke="#46587F" stroke-width="2.4228" stroke-linecap="round" stroke-linejoin="round" d="M118.185 54.3114l.4444 53.827 88.3747-.7055-.5335-66.6075-16.3267.141M207.0934 118.4511l-88.3756.7046"/>
      <path stroke="#46587F" stroke-width="1.0584" stroke-linecap="round" stroke-linejoin="round" stroke-dasharray="1.5876 1.5876 .5292" d="M186.5618 125.6267l-47.2002.3766"/>
      <path stroke="#46587F" stroke-width="2.4228" stroke-linecap="round" stroke-linejoin="round" d="M171.0737 238.9032l-14.41.115M134.1106 154.3697c-4.2696.0342-8.5391.0683-12.8087.1016-2.0302.0161-3.873-1.501-4.0974-3.3722-.2253-1.9153-.4515-3.8296-.6768-5.744-.2235-1.8712 1.3094-3.4162 3.4081-3.4333l18.2398-.1447c2.0969-.0162 3.8983 1.5027 4.0028 3.374.11 1.9161.2199 3.8314.3289 5.7467.1054 1.8721-1.4706 3.4162-3.5 3.4333M175.8732 147.0001c-.027 1.2115-.0541 2.4222-.0802 3.6328-.046 1.873-1.741 3.4198-3.7722 3.436l-17.7054.1402c-2.0302.017-3.7523-1.5018-3.827-3.3749-.073-1.9161-.147-3.8314-.22-5.7476-.0747-1.8721 1.5806-3.417 3.6776-3.4342"/>
      <path d="M158.999 141.6127c4.649-.0377 8.5392-.0683 13.1881-.1051 2.0978-.0171 3.7775 1.5027 3.7325 3.3757" stroke="#46587F" stroke-width="2.0673" stroke-linecap="round" stroke-linejoin="round" stroke-dasharray=".6165 2.5839"/>
      <path d="M183.891 147.7185c.0396-.967.0793-1.9333.1198-2.8994.073-1.874 1.851-3.4198 3.9488-3.437 6.0799-.0485 12.1607-.096 18.2406-.1446 2.0979-.0162 3.656 1.5027 3.463 3.3775l-.5838 5.754c-.1938 1.8739-2.0132 3.4206-4.0425 3.4368-5.9024.0477-11.8048.0944-17.7072.1412-1.2688.0098-2.369-.5798-2.999-1.4812M140.2663 173.3377c-5.632.045-11.2632.0899-16.8944.135-1.9365.015-3.7045-1.503-3.928-3.3742-.2253-1.9152-.4506-3.8296-.6768-5.7449-.2235-1.8703 1.2337-3.4144 3.2378-3.4305 5.8096-.0459 11.6192-.0926 17.4296-.1385 2.005-.0161 3.7298 1.5028 3.8343 3.375.109 1.9152.219 3.8304.329 5.7466M171.9351 160.5259c2.006-.0162 3.6082 1.5036 3.564 3.3766-.0423 1.9171-.0847 3.8333-.128 5.7503-.0441 1.874-1.6652 3.418-3.6027 3.4342-5.632.045-11.2632.09-16.8953.134-1.9365.0161-3.582-1.5037-3.6567-3.3758-.073-1.9162-.147-3.8315-.22-5.7476-.0747-1.8721 1.504-3.4171 3.5082-3.4333l11.183-.089M207.5703 165.2351c-.1406 1.3877-.2811 2.7763-.4235 4.165-.1937 1.8739-1.9365 3.4206-3.873 3.436-5.6321.0448-11.265.0898-16.8962.1348-1.9375.0152-3.4604-1.5046-3.3865-3.3785.0784-1.9171.1568-3.8342.2361-5.7512.0739-1.874 1.7743-3.419 3.7802-3.4351 5.8096-.0459 11.6201-.0926 17.4306-.1384M121.0055 183.3535c-.2244-1.8712 1.157-3.4144 3.0684-3.4296 5.5401-.044 11.0794-.089 16.6195-.1323 1.9113-.0151 3.5604 1.5038 3.665 3.3759.109 1.9153.2189 3.8314.3288 5.7467.1046 1.873-1.3201 3.4162-3.163 3.4306-5.3617.0431-10.7225.0854-16.0842.1286-1.8437.0143-3.5351-1.5046-3.7586-3.3758-.0712-.6058-.0901-.7658-.1334-1.137M153.0238 191.2529c-.6317-.612-1.0426-1.4605-1.0805-2.397-.073-1.9153-.146-3.8315-.2199-5.7476-.0748-1.8722 1.4283-3.4162 3.3405-3.4315l16.6196-.1323c1.9113-.0151 3.4387 1.5047 3.3945 3.3777-.0423 1.917-.0856 3.8342-.128 5.7503-.045 1.874-1.5904 3.418-3.4342 3.4333" stroke="#46587F" stroke-width="2.4228" stroke-linecap="round" stroke-linejoin="round"/>
      <path d="M163.4554 192.1696c-2.6754.0216-5.35.0432-8.0236.0638" stroke="#46587F" stroke-width="2.0673" stroke-linecap="round" stroke-linejoin="round" stroke-dasharray=".6165 2.5839"/>
      <path d="M198.6047 179.3298l4.0704-.0325c1.9122-.0152 3.317 1.5064 3.1233 3.3804-.1937 1.918-.3884 3.8359-.5839 5.753-.1937 1.8748-1.86 3.4207-3.7036 3.435-5.3636.0432-10.7253.0854-16.087.1287-1.8437.0143-3.2918-1.5056-3.217-3.3795.0793-1.917.1576-3.8341.236-5.7512.074-1.874 1.6996-3.418 3.6109-3.4342 1.4706-.0117 4.9346-.0386 6.4052-.0503M145.4469 202.1758c.11 1.9153.219 3.8315.3289 5.7468.1045 1.872-1.2436 3.4153-2.9936 3.4287-5.0913.0414-10.1827.0818-15.2741.1224-1.751.0143-3.3657-1.5056-3.5892-3.3768-.2262-1.9144-.4515-3.8287-.6768-5.744-.2234-1.8712 1.0823-3.4135 2.8999-3.4288 5.2698-.0413 10.5387-.0836 15.8094-.1258M153.3493 209.8465a3.6401 3.6401 0 01-.6803-1.979l-.219-5.7476c-.0748-1.8722 1.3526-3.4154 3.171-3.4306 5.269-.0423 10.5397-.0845 15.8086-.1269 1.8194-.0142 3.2702 1.5074 3.226 3.3804-.0423 1.9162-.0847 3.8332-.128 5.7503-.045 1.873-1.5138 3.4162-3.2647 3.4306-3.0963.0251-10.1756.08-13.2718.1051M203.1438 199.3097c.5353.613.8191 1.4614.7227 2.3988-.1955 1.9189-.3902 3.836-.5857 5.7539-.1929 1.8748-1.7834 3.4189-3.5352 3.4333-5.0913.0413-10.1836.0818-15.276.1223-1.75.0134-3.1214-1.5073-3.0475-3.3804.0784-1.917.1577-3.834.237-5.7512.046-1.162.6596-2.1983 1.5526-2.8203M188.0534 198.4302c4.2858-.0341 8.5724-.0692 12.8582-.1033" stroke="#46587F" stroke-width="2.4228" stroke-linecap="round" stroke-linejoin="round"/>
      <path d="M129.575 230.4747c-1.6572.0134-3.1963-1.5073-3.4198-3.3776l-.6758-5.744" stroke="#46587F" stroke-width="2.0673" stroke-linecap="round" stroke-linejoin="round" stroke-dasharray=".6165 2.5839"/>
      <path d="M128.2102 217.9253c4.9994-.0396 9.9989-.08 14.9993-.1206 1.7247-.0133 3.2215 1.5074 3.326 3.3786.109 1.9162.219 3.8314.328 5.7476.1046 1.8721-1.167 3.4144-2.825 3.4279-3.5477.0279-5.9907.0566-9.5394.0854M168.4257 217.6032l2.7511-.0217c1.7257-.0143 3.1008 1.5073 3.0558 3.3803-.0433 1.9171-.0847 3.8333-.127 5.7503-.046 1.873-1.4383 3.4171-3.0964 3.4306l-14.465.116c-1.657.0126-3.0746-1.5082-3.1494-3.3803l-.219-5.7476c-.0747-1.873 1.276-3.4153 3.0017-3.4297 1.759-.0135 3.518-.0278 5.278-.0422M201.3478 226.4938c-.1938 1.8749-1.7086 3.419-3.3667 3.4324l-14.465.116c-1.658.0134-2.9538-1.509-2.879-3.3821.0784-1.917.1577-3.8341.237-5.7512.0739-1.873 1.5463-3.418 3.272-3.4315 5.0004-.0404 10.0007-.08 15.001-.1205 1.7258-.0134 2.9783 1.5082 2.7846 3.383M135.5063 24.0952l5.3238-.0423M199.2604 31.1725l-.0361-4.5513" stroke="#46587F" stroke-width="2.4228" stroke-linecap="round" stroke-linejoin="round"/>
      <path stroke="#DEE6F7" stroke-width="1.3446" stroke-linecap="round" stroke-linejoin="round" stroke-dasharray="2.016 2.016 .6723" d="M83.5092 74.4818H56.614M270.4918 112.4854h-14.6244M82.8994 174.929h-8.9086M243.597 193.9527h-5.3798M53.147 108.138h-5.3788M252.8415 52.1307h-5.379"/>
    </g>
  </g>
</svg>
